<svg width="306" height="251" viewBox="0 0 306 251" fill="none" xmlns="http://www.w3.org/2000/svg">
<g clip-path="url(#clip0)">
<path d="M306 144.236C203.413 105.419 101.398 104.422 0 144.236V0H306V144.236Z" fill="#3F3D56"/>
<path d="M71.1557 9.14795H10.994V11.8924H71.1557V9.14795Z" fill="#D0CDE1"/>
<path d="M71.1557 16.1616H10.994V18.9061H71.1557V16.1616Z" fill="#D0CDE1"/>
<path d="M71.1557 23.1753H10.994V25.9197H71.1557V23.1753Z" fill="#D0CDE1"/>
<path d="M27.1796 34.7632H21.0718V40.8619H27.1796V34.7632Z" fill="#D0CDE1"/>
<path d="M44.2814 34.7632H38.1736V40.8619H44.2814V34.7632Z" fill="#6C63FF"/>
<path d="M61.3833 34.7632H55.2755V40.8619H61.3833V34.7632Z" fill="#FF6584"/>
<path d="M66.8803 57.6328H15.5749V66.4385H66.8803V57.6328Z" fill="#D0CDE1"/>
<path d="M66.8803 71.1455H15.5749V79.9512H66.8803V71.1455Z" fill="#6C63FF"/>
<path d="M66.8803 84.6577H15.5749V93.4634H66.8803V84.6577Z" fill="#FF6584"/>
<path opacity="0.15" d="M36.7995 57.6328H15.5749V66.4385H36.7995V57.6328Z" fill="black"/>
<path opacity="0.15" d="M22.4461 71.1455H15.5748V79.9512H22.4461V71.1455Z" fill="black"/>
<path opacity="0.15" d="M49.7785 84.6577H15.5749V93.4634H49.7785V84.6577Z" fill="black"/>
<path d="M150.251 7.01367V107.643C163.616 107.643 176.432 102.342 185.882 92.9063C195.332 83.4705 200.641 70.6727 200.641 57.3284C200.641 43.9841 195.332 31.1864 185.882 21.7505C176.432 12.3147 163.616 7.01367 150.251 7.01367Z" fill="#D0CDE1"/>
<path d="M146.892 9.22559C138.305 9.22377 129.886 11.6074 122.577 16.11C115.269 20.6126 109.359 27.0565 105.509 34.7211L146.892 59.1813V9.22559Z" fill="#D0CDE1"/>
<path d="M102.149 35.3765C98.2993 43.0485 96.4776 51.5762 96.8576 60.1493C97.2376 68.7224 99.8067 77.056 104.321 84.3584C108.835 91.6609 115.144 97.6895 122.648 101.872C130.153 106.054 138.603 108.25 147.198 108.253V62.0028L102.149 35.3765Z" fill="#6C63FF"/>
<path d="M265.383 33.2383H234.539V35.9827H265.383V33.2383Z" fill="#D0CDE1"/>
<path d="M230.569 31.4087H224.461V37.5075H230.569V31.4087Z" fill="#6C63FF"/>
<path d="M265.383 42.3862H234.539V45.1307H265.383V42.3862Z" fill="#D0CDE1"/>
<path d="M230.569 40.5566H224.461V46.6554H230.569V40.5566Z" fill="#6C63FF"/>
<path d="M265.383 51.5347H234.539V54.2791H265.383V51.5347Z" fill="#D0CDE1"/>
<path d="M230.569 49.7046H224.461V55.8033H230.569V49.7046Z" fill="#6C63FF"/>
<path d="M133.976 76.4501L133.545 76.0189L165.7 43.9111H221.713V44.521H165.953L133.976 76.4501Z" fill="#2F2E41"/>
<path d="M306 223.215H0V153.994C98.3353 115.733 200.335 115.733 306 153.994V223.215Z" fill="#3F3D56"/>
<path d="M125.76 184.451L128.551 193.075C128.551 193.075 126.026 201.169 127.222 210.191C128.418 219.213 127.753 219.478 127.753 219.478C127.753 219.478 115.805 218.792 117 222.374C118.196 225.956 129.879 223.857 129.879 223.857C129.879 223.857 132.123 223.254 133.186 216.885C134.249 210.516 136.922 198.25 136.922 198.25L134.409 186.67L125.76 184.451Z" fill="#FFB8B8"/>
<path d="M126.69 166.805C126.69 166.805 121.641 168.662 121.641 173.704C121.641 178.746 123.501 185.645 124.697 186.043C125.893 186.441 133.866 191.881 135.327 188.033C136.789 184.186 126.69 166.805 126.69 166.805Z" fill="#D0CDE1"/>
<path d="M168.945 226.51L179.575 226.112L187.68 224.918L185.288 232.879L165.623 233.409L168.945 226.51Z" fill="#FFB8B8"/>
<path d="M184.225 227.572C184.225 227.572 184.092 224.653 182.897 224.786C181.701 224.918 182.498 223.724 183.561 223.459C184.624 223.194 187.68 221.867 187.68 221.867L199.772 222.663C199.772 222.663 207.611 229.562 204.422 233.277C201.233 236.992 192.995 233.675 192.995 233.675L184.092 233.808C184.092 233.808 181.169 229.031 184.225 227.572Z" fill="#2F2E41"/>
<path d="M189.009 217.355L192.862 235.4L200.835 233.808L196.317 211.252L191.533 208.731L189.009 217.355Z" fill="#FFB8B8"/>
<path d="M143.167 215.1C143.167 215.1 120.844 225.184 130.278 235.4C130.278 235.4 130.278 240.176 140.244 239.248C150.209 238.319 169.476 236.594 170.406 237.125C171.336 237.655 174.26 226.643 171.735 226.112C169.21 225.582 166.154 224.918 166.154 224.918C166.154 224.918 168.812 224.52 168.812 222.265C168.812 222.265 176.386 221.734 178.644 216.958C180.903 212.181 183.029 208.599 183.029 208.599L188.212 221.867C188.212 221.867 194.191 210.854 198.709 215.763C198.709 215.763 193.659 184.053 189.806 181.134C185.953 178.215 183.295 177.287 179.707 179.94C176.12 182.594 172.798 189.36 172.798 189.36L143.167 215.1Z" fill="#2F2E41"/>
<path d="M196.45 229.96C195.521 230.66 194.633 231.413 193.792 232.216C192.729 233.277 191.268 232.747 191.135 232.216C191.002 231.685 188.61 232.614 188.344 236.462C188.079 240.309 186.484 243.759 190.736 244.953C194.988 246.147 194.855 249.597 194.855 249.597C198.22 251.208 202.081 251.446 205.618 250.26C211.598 248.27 209.472 246.147 209.472 246.147L201.499 233.012C201.499 233.012 199.373 229.032 196.45 229.96Z" fill="#2F2E41"/>
<path d="M174.393 164.151C174.393 164.151 187.149 168.53 188.477 169.459C189.806 170.387 195.785 174.766 192.862 177.021C189.939 179.277 187.547 180.736 181.834 179.011C176.12 177.287 169.742 171.979 169.742 171.979L174.393 164.151Z" fill="#FFB8B8"/>
<path d="M161.636 158.313C161.636 158.313 166.686 157.384 170.273 159.375C173.861 161.365 176.917 165.345 176.917 165.345C176.917 165.345 173.595 172.377 171.203 173.439C168.812 174.5 164.427 169.193 164.427 169.193L161.636 158.313Z" fill="#D0CDE1"/>
<path d="M138.383 154.466C138.383 154.466 138.516 159.64 137.985 160.171C137.453 160.702 144.363 176.358 151.937 169.459C159.51 162.559 153.664 159.773 153.664 159.773C153.664 159.773 150.874 154.599 151.007 154.068C151.139 153.537 138.649 154.068 138.649 154.068L138.383 154.466Z" fill="#FFB8B8"/>
<path opacity="0.1" d="M138.383 154.466C138.383 154.466 138.516 159.64 137.985 160.171C137.453 160.702 144.363 176.358 151.937 169.459C159.51 162.559 153.664 159.773 153.664 159.773C153.664 159.773 150.874 154.599 151.007 154.068C151.139 153.537 138.649 154.068 138.649 154.068L138.383 154.466Z" fill="black"/>
<path d="M140.509 164.417C140.509 164.417 145.559 167.866 147.685 167.07C149.811 166.274 152.468 162.824 152.734 162.559C153 162.294 166.553 189.493 166.553 189.493C166.553 189.493 164.56 199.444 159.245 202.363C153.93 205.282 153.996 207.604 153.332 209.594C152.667 211.584 144.097 203.291 144.097 203.291L138.649 180.205V166.141L140.509 164.417Z" fill="#D0CDE1"/>
<path d="M138.317 158.247C138.317 158.247 136.656 157.916 134.929 159.375C133.201 160.834 125.096 166.274 125.494 166.805C125.893 167.336 129.481 174.898 130.278 177.95C131.075 181.002 132.271 181.4 132.271 181.4C132.271 181.4 135.061 183.39 134.663 184.849C134.264 186.309 132.537 206.211 134.929 210.589C137.32 214.967 136.922 218.815 136.257 219.877C135.593 220.938 142.635 216.825 142.635 216.825C142.635 216.825 153.132 208.334 153.93 205.813C154.445 204.08 154.801 202.303 154.993 200.505C154.993 200.505 148.216 173.704 146.09 172.245C143.964 170.785 138.317 158.247 138.317 158.247Z" fill="#575A89"/>
<path d="M152.914 158.352C152.914 158.352 156.189 156.323 156.853 156.854C157.517 157.384 163.762 157.384 163.895 157.915C164.028 158.446 164.294 171.183 168.812 174.5C173.329 177.817 170.406 184.451 170.406 184.451L173.728 189.758C173.728 189.758 155.657 207.138 156.853 201.168C156.919 200.837 156.853 200.77 156.853 200.77C156.853 200.77 149.811 170.652 150.741 169.06C151.671 167.468 153.361 160.248 152.914 158.352Z" fill="#575A89"/>
<path d="M180.771 170.52L162.7 176.756C162.7 176.756 144.761 181.002 147.552 185.911C150.342 190.82 162.168 182.461 162.168 182.461L186.233 179.769C186.233 179.769 195.785 171.714 180.771 170.52Z" fill="#FFB8B8"/>
<path d="M145.559 159.375C150.989 159.375 155.391 154.979 155.391 149.557C155.391 144.134 150.989 139.738 145.559 139.738C140.128 139.738 135.726 144.134 135.726 149.557C135.726 154.979 140.128 159.375 145.559 159.375Z" fill="#FFB8B8"/>
<path d="M137.728 139.799L135.909 139.139C135.909 139.139 139.712 135.341 145.004 135.671L143.515 134.185C143.515 134.185 147.153 132.865 150.46 136.332C152.198 138.154 154.21 140.297 155.464 142.71H157.412L156.599 144.334L159.444 145.957L156.524 145.666C156.8 147.067 156.705 148.517 156.247 149.871L155.586 151.687C155.586 151.687 152.94 146.403 152.94 145.743V147.394C152.94 147.394 151.121 145.908 151.121 144.917L150.129 146.073L149.633 144.257L143.515 146.073L144.507 144.587L140.704 145.082L142.193 143.266C142.193 143.266 137.893 145.413 137.728 147.229C137.563 149.045 135.413 151.356 135.413 151.356L134.421 149.705C134.421 149.705 132.933 142.276 137.728 139.799Z" fill="#2F2E41"/>
<path d="M266.015 223.81L265.404 223.798C265.64 217.017 266.365 210.262 267.572 203.585C270.213 189.289 274.605 179.9 280.625 175.679L280.976 176.178C266.912 186.038 266.022 223.433 266.015 223.81Z" fill="#D0CDE1"/>
<path d="M273.649 223.664L273.039 223.652C273.052 222.977 273.433 207.059 279.709 202.66L280.06 203.159C274.037 207.381 273.652 223.502 273.649 223.664Z" fill="#D0CDE1"/>
<path d="M284.451 176.234C286.137 176.234 287.505 174.868 287.505 173.184C287.505 171.5 286.137 170.135 284.451 170.135C282.764 170.135 281.397 171.5 281.397 173.184C281.397 174.868 282.764 176.234 284.451 176.234Z" fill="#6C63FF"/>
<path d="M282.938 202.459C284.625 202.459 285.992 201.093 285.992 199.409C285.992 197.725 284.625 196.36 282.938 196.36C281.252 196.36 279.884 197.725 279.884 199.409C279.884 201.093 281.252 202.459 282.938 202.459Z" fill="#6C63FF"/>
<path d="M272.226 178.062C272.8 181.722 271.304 184.996 271.304 184.996C271.304 184.996 268.877 182.335 268.304 178.675C267.73 175.014 269.225 171.74 269.225 171.74C269.225 171.74 271.652 174.401 272.226 178.062Z" fill="#6C63FF"/>
<path d="M282.199 186.924C278.689 188.126 275.204 187.239 275.204 187.239C275.204 187.239 277.41 184.403 280.92 183.201C284.43 181.999 287.914 182.886 287.914 182.886C287.914 182.886 285.708 185.722 282.199 186.924Z" fill="#D0CDE1"/>
<path d="M282.321 210.176C280.732 210.674 279.041 210.747 277.415 210.387C278.447 209.075 279.837 208.089 281.418 207.548C282.999 207.006 284.702 206.933 286.324 207.336C285.262 208.616 283.881 209.596 282.321 210.176Z" fill="#D0CDE1"/>
<path d="M246.139 169.038C245.354 169.038 244.586 168.805 243.933 168.37C243.28 167.934 242.772 167.315 242.471 166.591C242.171 165.866 242.092 165.069 242.245 164.3C242.398 163.531 242.776 162.825 243.332 162.27C243.887 161.716 244.594 161.339 245.364 161.186C246.134 161.033 246.933 161.111 247.658 161.411C248.384 161.711 249.004 162.219 249.44 162.871C249.876 163.523 250.109 164.29 250.109 165.074C250.108 166.125 249.689 167.132 248.945 167.875C248.201 168.619 247.191 169.037 246.139 169.038ZM246.139 161.719C245.474 161.719 244.825 161.916 244.273 162.285C243.72 162.653 243.29 163.177 243.035 163.79C242.781 164.403 242.715 165.077 242.844 165.728C242.974 166.379 243.294 166.976 243.764 167.445C244.233 167.915 244.832 168.234 245.484 168.363C246.135 168.493 246.811 168.426 247.424 168.173C248.038 167.919 248.563 167.489 248.932 166.937C249.301 166.386 249.498 165.737 249.498 165.074C249.497 164.184 249.143 163.332 248.513 162.703C247.883 162.074 247.03 161.72 246.139 161.719Z" fill="#D0CDE1"/>
<path d="M227.515 189.671C228.864 189.671 229.958 188.579 229.958 187.232C229.958 185.885 228.864 184.792 227.515 184.792C226.166 184.792 225.072 185.885 225.072 187.232C225.072 188.579 226.166 189.671 227.515 189.671Z" fill="#D0CDE1"/>
<path d="M10.994 161.922C12.3433 161.922 13.4372 160.83 13.4372 159.482C13.4372 158.135 12.3433 157.043 10.994 157.043C9.64475 157.043 8.55093 158.135 8.55093 159.482C8.55093 160.83 9.64475 161.922 10.994 161.922Z" fill="#D0CDE1"/>
<path d="M26.2635 200.344H18.3233V192.416H26.2635V200.344ZM18.9341 199.734H25.6527V193.025H18.9341V199.734Z" fill="#D0CDE1"/>
<path d="M76.6527 172.29C73.6327 172.29 70.6805 173.184 68.1694 174.86C65.6584 176.535 63.7012 178.916 62.5455 181.702C61.3898 184.488 61.0874 187.554 61.6766 190.511C62.2658 193.469 63.7201 196.186 65.8555 198.318C67.991 200.45 70.7118 201.903 73.6738 202.491C76.6357 203.079 79.7059 202.777 82.4961 201.623C85.2862 200.469 87.671 198.515 89.3488 196.008C91.0266 193.5 91.9221 190.552 91.9221 187.537C91.9221 183.493 90.3134 179.615 87.4498 176.756C84.5862 173.896 80.7024 172.29 76.6527 172.29ZM74.0186 194.36L67.4506 187.801L69.2929 185.962L74.0248 190.687L84.0125 180.714L85.8548 182.554L74.0186 194.36Z" fill="#6C63FF"/>
</g>
<defs>
<clipPath id="clip0">
<rect width="306" height="251" fill="white"/>
</clipPath>
</defs>
</svg>
