<svg width="168" height="56" viewBox="0 0 168 56" fill="none" xmlns="http://www.w3.org/2000/svg">
<g clip-path="url(#clip0)">
<path d="M154.622 5.99297e-05H13.386C12.8712 5.99297e-05 12.3626 5.99298e-05 11.8491 0.00285993C11.4193 0.00565993 10.9929 0.0137939 10.559 0.0206399C9.61624 0.0317025 8.67574 0.114407 7.74562 0.268034C6.81682 0.425006 5.91711 0.720942 5.07692 1.14583C4.23776 1.57432 3.471 2.13109 2.80445 2.79596C2.1344 3.45895 1.57586 4.22528 1.15031 5.06548C0.723586 5.90401 0.427694 6.80257 0.272854 7.73013C0.116542 8.65652 0.0324285 9.59359 0.0212695 10.5329C0.00824107 10.9622 0.00686522 11.3928 0 11.8221V44.1821C0.00686522 44.6168 0.00824107 45.0379 0.0212695 45.4728C0.0324319 46.4121 0.116545 47.3491 0.272854 48.2754C0.427266 49.2035 0.723176 50.1026 1.15031 50.9414C1.57567 51.7789 2.13428 52.5422 2.80445 53.2015C3.46847 53.8693 4.23573 54.4264 5.07692 54.8516C5.9171 55.2777 6.81671 55.5754 7.74562 55.7348C8.67589 55.8872 9.6163 55.9699 10.559 55.9823C10.9929 55.9918 11.4193 55.9973 11.8491 55.9973C12.3625 56.0001 12.8712 56.0001 13.386 56.0001H154.622C155.126 56.0001 155.639 56.0001 156.143 55.9973C156.571 55.9973 157.01 55.9918 157.438 55.9823C158.379 55.9706 159.317 55.8878 160.246 55.7348C161.177 55.5742 162.08 55.2766 162.924 54.8516C163.765 54.4262 164.531 53.8691 165.195 53.2015C165.863 52.5396 166.423 51.7769 166.854 50.9414C167.278 50.102 167.571 49.203 167.723 48.2754C167.88 47.349 167.967 46.4121 167.984 45.4728C167.989 45.0379 167.989 44.6168 167.989 44.1821C168 43.6735 168 43.1677 168 42.6508V13.3506C168 12.8379 168 12.3294 167.989 11.8221C167.989 11.3928 167.989 10.9622 167.984 10.5329C167.967 9.59345 167.88 8.65659 167.723 7.73008C167.57 6.80305 167.277 5.90456 166.854 5.06543C165.987 3.38133 164.613 2.0105 162.924 1.14571C162.08 0.721854 161.177 0.425997 160.246 0.267908C159.317 0.113604 158.379 0.0308708 157.438 0.0204439C157.01 0.0136119 156.571 0.00540793 156.143 0.00267793C155.639 -0.00012207 155.126 -0.00012207 154.622 -0.00012207V5.99297e-05Z" fill="#A6A6A6"/>
<path d="M11.856 54.775C11.4283 54.775 11.0108 54.7695 10.5865 54.76C9.70729 54.7486 8.83018 54.6722 7.96231 54.5317C7.15307 54.3927 6.36914 54.1341 5.63637 53.7646C4.91031 53.3981 4.24809 52.9176 3.67508 52.3414C3.09376 51.7719 2.6098 51.1115 2.24235 50.3863C1.87085 49.6563 1.61376 48.8738 1.48002 48.0662C1.33559 47.1983 1.25744 46.3208 1.24626 45.4412C1.23736 45.1459 1.22571 44.1628 1.22571 44.1628V11.8221C1.22571 11.8221 1.23812 10.8541 1.24633 10.5697C1.25704 9.69145 1.33473 8.81529 1.47872 7.9488C1.61271 7.13893 1.87001 6.35422 2.2417 5.62186C2.6078 4.8971 3.08908 4.23618 3.66689 3.66473C4.24405 3.08785 4.90839 2.60482 5.63568 2.23327C6.36677 1.86491 7.14922 1.6082 7.95682 1.47175C8.82754 1.32975 9.70769 1.25297 10.5899 1.24207L11.8567 1.22498H156.137L157.419 1.24276C158.293 1.25311 159.165 1.32921 160.028 1.47038C160.843 1.60854 161.634 1.86704 162.373 2.23737C163.83 2.98616 165.016 4.1708 165.764 5.62527C166.13 6.35258 166.383 7.13088 166.515 7.93376C166.661 8.80736 166.743 9.69041 166.759 10.5759C166.763 10.9723 166.763 11.3982 166.763 11.8221C166.774 12.3471 166.774 12.8468 166.774 13.3506V42.6507C166.774 43.1593 166.774 43.6556 166.763 44.156C166.763 44.6113 166.763 45.0283 166.758 45.4576C166.741 46.3272 166.661 47.1945 166.518 48.0525C166.387 48.8659 166.131 49.6545 165.76 50.3905C165.39 51.1078 164.909 51.7625 164.334 52.3304C163.76 52.9097 163.097 53.3931 162.369 53.7619C161.632 54.1343 160.842 54.3938 160.028 54.5317C159.16 54.673 158.283 54.7493 157.403 54.76C156.992 54.7695 156.562 54.775 156.143 54.775L154.622 54.7778L11.856 54.775Z" fill="black"/>
<path d="M34.7738 28.4209C34.7889 27.2524 35.1001 26.1066 35.6786 25.0903C36.257 24.0739 37.0839 23.22 38.0822 22.608C37.448 21.7048 36.6114 20.9615 35.6387 20.4371C34.666 19.9127 33.5841 19.6217 32.4789 19.5872C30.1214 19.3405 27.8359 20.994 26.6345 20.994C25.4099 20.994 23.5602 19.6117 21.5684 19.6526C20.2801 19.6941 19.0245 20.0677 17.924 20.737C16.8234 21.4063 15.9156 22.3484 15.2887 23.4716C12.5735 28.1594 14.5988 35.0489 17.1998 38.8381C18.5011 40.6936 20.0219 42.7663 22.0119 42.6928C23.9593 42.6122 24.6866 41.4545 27.0372 41.4545C29.3659 41.4545 30.0483 42.6928 32.0787 42.646C34.1683 42.6122 35.4848 40.7823 36.7404 38.9092C37.6754 37.5871 38.3949 36.1259 38.8722 34.5797C37.6582 34.0677 36.6222 33.2106 35.8934 32.1154C35.1646 31.0202 34.7752 29.7353 34.7738 28.4209Z" fill="white"/>
<path d="M30.9388 17.0952C32.0781 15.7314 32.6394 13.9783 32.5035 12.2084C30.7629 12.3907 29.155 13.2203 28.0003 14.5318C27.4357 15.1726 27.0033 15.918 26.7278 16.7254C26.4523 17.5329 26.3391 18.3866 26.3946 19.2378C27.2652 19.2467 28.1265 19.0585 28.9137 18.6874C29.7008 18.3163 30.3932 17.7719 30.9388 17.0952Z" fill="white"/>
<path d="M59.3896 37.9955H52.7442L51.1483 42.6945H48.3336L54.628 25.3093H57.5524L63.8468 42.6945H60.9841L59.3896 37.9955ZM53.4325 35.8271H58.7L56.1033 28.201H56.0306L53.4325 35.8271Z" fill="white"/>
<path d="M77.4405 36.3576C77.4405 40.2965 75.3264 42.8272 72.136 42.8272C71.3278 42.8693 70.5241 42.6837 69.8168 42.2915C69.1095 41.8993 68.5272 41.3164 68.1367 40.6096H68.0763V46.8877H65.4673V30.0194H67.9928V32.1276H68.0407C68.4492 31.4241 69.0413 30.8442 69.754 30.4497C70.4667 30.0551 71.2733 29.8605 72.088 29.8867C75.314 29.8868 77.4405 32.4297 77.4405 36.3576ZM74.7588 36.3576C74.7588 33.7914 73.4289 32.1043 71.3997 32.1043C69.4063 32.1043 68.0654 33.827 68.0654 36.3576C68.0654 38.9116 69.4063 40.6219 71.3997 40.6219C73.4289 40.6219 74.7588 38.9471 74.7588 36.3576Z" fill="white"/>
<path d="M91.4305 36.3576C91.4305 40.2965 89.3164 42.8272 86.126 42.8272C85.3178 42.8693 84.5141 42.6837 83.8068 42.2915C83.0995 41.8993 82.5172 41.3164 82.1267 40.6096H82.0663V46.8877H79.4573V30.0193H81.9827V32.1275H82.0307C82.4392 31.4241 83.0312 30.8442 83.7439 30.4497C84.4566 30.0551 85.2632 29.8605 86.078 29.8867C89.304 29.8867 91.4305 32.4297 91.4305 36.3576ZM88.7487 36.3576C88.7487 33.7914 87.4188 32.1043 85.3897 32.1043C83.3963 32.1043 82.0554 33.827 82.0554 36.3576C82.0554 38.9115 83.3963 40.6219 85.3897 40.6219C87.4189 40.6219 88.7488 38.9471 88.7488 36.3576H88.7487Z" fill="white"/>
<path d="M100.677 37.8505C100.87 39.5746 102.55 40.7065 104.845 40.7065C107.044 40.7065 108.626 39.5745 108.626 38.02C108.626 36.6706 107.672 35.8626 105.412 35.3089L103.153 34.7661C99.9514 33.995 98.4652 32.502 98.4652 30.0794C98.4652 27.0798 101.087 25.0194 104.809 25.0194C108.493 25.0194 111.018 27.0798 111.103 30.0794H108.47C108.312 28.3444 106.874 27.2972 104.772 27.2972C102.67 27.2972 101.232 28.3567 101.232 29.8989C101.232 31.128 102.15 31.8513 104.398 32.4049L106.318 32.8752C109.895 33.7188 111.382 35.1516 111.382 37.6946C111.382 40.9471 108.783 42.9842 104.651 42.9842C100.785 42.9842 98.1745 40.9949 98.0059 37.8504L100.677 37.8505Z" fill="white"/>
<path d="M117.012 27.0197V30.0193H119.429V32.0796H117.012V39.0673C117.012 40.1529 117.496 40.6587 118.559 40.6587C118.846 40.6537 119.132 40.6336 119.417 40.5985V42.6466C118.939 42.7356 118.454 42.7759 117.968 42.7669C115.395 42.7669 114.391 41.803 114.391 39.3448V32.0796H112.543V30.0193H114.391V27.0197H117.012Z" fill="white"/>
<path d="M120.829 36.3575C120.829 32.3695 123.185 29.8634 126.858 29.8634C130.543 29.8634 132.888 32.3694 132.888 36.3575C132.888 40.3566 130.555 42.8517 126.858 42.8517C123.161 42.8517 120.829 40.3566 120.829 36.3575ZM130.229 36.3575C130.229 33.6218 128.972 32.0072 126.858 32.0072C124.744 32.0072 123.488 33.6341 123.488 36.3575C123.488 39.1042 124.744 40.7066 126.858 40.7066C128.972 40.7066 130.229 39.1042 130.229 36.3575H130.229Z" fill="white"/>
<path d="M135.039 30.0192H137.527V32.1766H137.587C137.756 31.5028 138.152 30.9074 138.708 30.4903C139.265 30.0733 139.949 29.8601 140.645 29.8866C140.945 29.8856 141.245 29.9181 141.539 29.9837V32.4173C141.159 32.3016 140.763 32.2485 140.366 32.2601C139.987 32.2447 139.609 32.3114 139.259 32.4554C138.908 32.5994 138.593 32.8175 138.334 33.0945C138.076 33.3716 137.881 33.7011 137.762 34.0604C137.644 34.4197 137.605 34.8004 137.648 35.1763V42.6944H135.039L135.039 30.0192Z" fill="white"/>
<path d="M153.568 38.9716C153.217 41.2726 150.97 42.8517 148.095 42.8517C144.397 42.8517 142.102 40.3812 142.102 36.4177C142.102 32.4419 144.41 29.8634 147.985 29.8634C151.502 29.8634 153.713 32.2724 153.713 36.1155V37.007H144.736V37.1642C144.694 37.6307 144.753 38.1006 144.908 38.5428C145.062 38.9849 145.31 39.3892 145.633 39.7288C145.956 40.0684 146.349 40.3354 146.783 40.5123C147.218 40.6891 147.686 40.7716 148.155 40.7544C148.772 40.812 149.391 40.6696 149.919 40.3484C150.448 40.0272 150.859 39.5443 151.091 38.9716L153.568 38.9716ZM144.748 35.1886H151.103C151.126 34.7692 151.063 34.3494 150.916 33.9557C150.769 33.562 150.542 33.2029 150.249 32.9008C149.956 32.5987 149.604 32.3603 149.214 32.2004C148.825 32.0405 148.406 31.9626 147.985 31.9716C147.56 31.9691 147.139 32.0505 146.746 32.2111C146.353 32.3718 145.996 32.6085 145.695 32.9075C145.394 33.2066 145.155 33.5622 144.993 33.9537C144.83 34.3452 144.747 34.7649 144.748 35.1886V35.1886Z" fill="white"/>
<path d="M53.1053 12.2233C53.6523 12.1842 54.2012 12.2666 54.7124 12.4646C55.2236 12.6626 55.6843 12.9713 56.0614 13.3684C56.4385 13.7654 56.7225 14.241 56.8929 14.7608C57.0633 15.2806 57.116 15.8316 57.047 16.3741C57.047 19.0429 55.6006 20.5769 53.1053 20.5769H50.0795V12.2233H53.1053ZM51.3806 19.3955H52.96C53.3508 19.4188 53.742 19.3549 54.105 19.2085C54.4679 19.062 54.7936 18.8367 55.0582 18.5489C55.3229 18.2611 55.5198 17.9181 55.6347 17.5448C55.7497 17.1716 55.7797 16.7774 55.7226 16.3911C55.7755 16.0064 55.7425 15.6147 55.6258 15.2442C55.5091 14.8736 55.3117 14.5334 55.0476 14.2479C54.7836 13.9624 54.4595 13.7387 54.0986 13.5928C53.7377 13.4468 53.3488 13.3823 52.96 13.4038H51.3806V19.3955Z" fill="white"/>
<path d="M58.5169 17.4221C58.4772 17.0078 58.5247 16.5898 58.6564 16.1949C58.7882 15.8 59.0012 15.4369 59.2819 15.1289C59.5626 14.8209 59.9048 14.5749 60.2865 14.4065C60.6681 14.2381 61.0809 14.1511 61.4982 14.1511C61.9156 14.1511 62.3283 14.2381 62.71 14.4065C63.0916 14.5749 63.4338 14.8209 63.7145 15.1289C63.9952 15.4369 64.2082 15.8 64.34 16.1949C64.4717 16.5898 64.5192 17.0078 64.4795 17.4221C64.52 17.8368 64.473 18.2553 64.3416 18.6509C64.2102 19.0464 63.9973 19.4102 63.7165 19.7187C63.4358 20.0273 63.0934 20.2739 62.7113 20.4426C62.3293 20.6114 61.916 20.6986 61.4982 20.6986C61.0804 20.6986 60.6671 20.6114 60.2851 20.4426C59.9031 20.2739 59.5606 20.0273 59.2799 19.7187C58.9991 19.4102 58.7862 19.0464 58.6548 18.6509C58.5234 18.2553 58.4764 17.8368 58.5169 17.4221ZM63.1962 17.4221C63.1962 16.0556 62.5806 15.2564 61.5003 15.2564C60.4158 15.2564 59.8057 16.0556 59.8057 17.4221C59.8057 18.7995 60.4158 19.5925 61.5003 19.5925C62.5806 19.5925 63.1962 18.794 63.1962 17.4221H63.1962Z" fill="white"/>
<path d="M72.4053 20.5768H71.111L69.8044 15.9338H69.7057L68.4046 20.5768H67.1227L65.3801 14.2727H66.6456L67.7781 19.0831H67.8713L69.171 14.2727H70.3679L71.6677 19.0831H71.7664L72.8933 14.2727H74.141L72.4053 20.5768Z" fill="white"/>
<path d="M75.6066 14.2727H76.8076V15.2741H76.9008C77.059 14.9144 77.3257 14.6129 77.6639 14.4116C78.0021 14.2103 78.3948 14.1192 78.7874 14.151C79.095 14.1279 79.4038 14.1742 79.6911 14.2863C79.9783 14.3984 80.2366 14.5736 80.4467 14.7988C80.6568 15.0239 80.8135 15.2934 80.905 15.5871C80.9966 15.8809 81.0207 16.1914 80.9755 16.4957V20.5767H79.7279V16.8081C79.7279 15.795 79.2864 15.2912 78.3637 15.2912C78.1549 15.2815 77.9464 15.317 77.7526 15.3951C77.5587 15.4733 77.3842 15.5923 77.2408 15.7441C77.0974 15.8958 76.9886 16.0767 76.9219 16.2742C76.8552 16.4718 76.8321 16.6815 76.8542 16.8888V20.5768H75.6066L75.6066 14.2727Z" fill="white"/>
<path d="M82.9635 11.8118H84.2111V20.5768H82.9635V11.8118Z" fill="white"/>
<path d="M85.9456 17.422C85.9059 17.0077 85.9534 16.5897 86.0852 16.1948C86.217 15.7999 86.4301 15.4368 86.7108 15.1288C86.9915 14.8208 87.3337 14.5748 87.7154 14.4064C88.0971 14.238 88.5099 14.151 88.9272 14.151C89.3446 14.151 89.7574 14.238 90.139 14.4064C90.5207 14.5748 90.8629 14.8208 91.1436 15.1288C91.4244 15.4368 91.6375 15.7999 91.7692 16.1948C91.901 16.5897 91.9486 17.0077 91.9089 17.422C91.9493 17.8368 91.9023 18.2554 91.7709 18.6509C91.6394 19.0464 91.4265 19.4102 91.1457 19.7187C90.8649 20.0273 90.5224 20.2739 90.1404 20.4426C89.7583 20.6114 89.3451 20.6985 88.9272 20.6985C88.5094 20.6985 88.0961 20.6114 87.7141 20.4426C87.332 20.2739 86.9896 20.0273 86.7088 19.7187C86.428 19.4102 86.215 19.0464 86.0836 18.6509C85.9521 18.2554 85.9051 17.8368 85.9456 17.422ZM90.6249 17.422C90.6249 16.0555 90.0093 15.2564 88.9289 15.2564C87.8445 15.2564 87.2344 16.0556 87.2344 17.4221C87.2344 18.7995 87.8445 19.5925 88.9289 19.5925C90.0093 19.5925 90.6249 18.794 90.6249 17.422H90.6249Z" fill="white"/>
<path d="M93.222 18.794C93.222 17.6592 94.0693 17.005 95.5733 16.912L97.2858 16.8136V16.2695C97.2858 15.6036 96.8443 15.2277 95.9915 15.2277C95.295 15.2277 94.8124 15.4826 94.674 15.9283H93.4661C93.5936 14.8455 94.615 14.151 96.0491 14.151C97.634 14.151 98.5279 14.9378 98.5279 16.2695V20.5768H97.3269V19.6908H97.2282C97.0278 20.0086 96.7465 20.2677 96.4129 20.4416C96.0793 20.6155 95.7053 20.698 95.3293 20.6806C95.0639 20.7082 94.7957 20.6799 94.5419 20.5978C94.2881 20.5156 94.0544 20.3813 93.8559 20.2035C93.6574 20.0258 93.4984 19.8085 93.3892 19.5657C93.28 19.3229 93.2231 19.06 93.222 18.794ZM97.2858 18.2553V17.7282L95.742 17.8267C94.8714 17.8848 94.4765 18.1801 94.4765 18.7358C94.4765 19.3032 94.9701 19.6334 95.6488 19.6334C95.8477 19.6535 96.0485 19.6335 96.2395 19.5745C96.4304 19.5156 96.6075 19.419 96.7603 19.2904C96.913 19.1618 97.0382 19.0039 97.1285 18.8261C97.2188 18.6483 97.2723 18.4541 97.2858 18.2553Z" fill="white"/>
<path d="M100.168 17.422C100.168 15.4301 101.195 14.1681 102.792 14.1681C103.187 14.15 103.579 14.2443 103.922 14.4402C104.266 14.6361 104.546 14.9253 104.73 15.2741H104.824V11.8118H106.071V20.5768H104.876V19.5808H104.777C104.578 19.9273 104.288 20.2129 103.938 20.4068C103.588 20.6007 103.192 20.6954 102.792 20.6807C101.184 20.6808 100.168 19.4188 100.168 17.422ZM101.456 17.422C101.456 18.7592 102.088 19.5637 103.146 19.5637C104.197 19.5637 104.847 18.7475 104.847 17.4275C104.847 16.1136 104.19 15.2858 103.146 15.2858C102.095 15.2858 101.456 16.0959 101.456 17.422H101.456Z" fill="white"/>
<path d="M111.233 17.4221C111.194 17.0078 111.241 16.5898 111.373 16.1949C111.505 15.8 111.718 15.4369 111.998 15.1289C112.279 14.8209 112.621 14.5749 113.003 14.4065C113.385 14.2381 113.797 14.1511 114.215 14.1511C114.632 14.1511 115.045 14.2381 115.426 14.4065C115.808 14.5749 116.15 14.8209 116.431 15.1289C116.712 15.4369 116.925 15.8 117.056 16.1949C117.188 16.5898 117.236 17.0078 117.196 17.4221C117.236 17.8368 117.189 18.2553 117.058 18.6509C116.927 19.0464 116.714 19.4102 116.433 19.7187C116.152 20.0273 115.81 20.2739 115.428 20.4426C115.046 20.6114 114.632 20.6986 114.215 20.6986C113.797 20.6986 113.384 20.6114 113.002 20.4426C112.619 20.2739 112.277 20.0273 111.996 19.7187C111.716 19.4102 111.503 19.0464 111.371 18.6509C111.24 18.2553 111.193 17.8368 111.233 17.4221ZM115.913 17.4221C115.913 16.0556 115.297 15.2564 114.217 15.2564C113.132 15.2564 112.522 16.0556 112.522 17.4221C112.522 18.7995 113.132 19.5925 114.217 19.5925C115.297 19.5925 115.913 18.794 115.913 17.4221Z" fill="white"/>
<path d="M118.87 14.2727H120.071V15.2741H120.164C120.322 14.9144 120.589 14.6129 120.927 14.4116C121.265 14.2103 121.658 14.1192 122.051 14.151C122.358 14.1279 122.667 14.1742 122.954 14.2863C123.241 14.3984 123.5 14.5736 123.71 14.7988C123.92 15.0239 124.077 15.2934 124.168 15.5871C124.26 15.8809 124.284 16.1914 124.239 16.4957V20.5767H122.991V16.8081C122.991 15.795 122.55 15.2912 121.627 15.2912C121.418 15.2815 121.21 15.317 121.016 15.3951C120.822 15.4733 120.647 15.5923 120.504 15.7441C120.361 15.8958 120.252 16.0767 120.185 16.2742C120.118 16.4718 120.095 16.6815 120.117 16.8888V20.5768H118.87V14.2727Z" fill="white"/>
<path d="M131.288 12.7032V14.3015H132.658V15.3494H131.288V18.591C131.288 19.2514 131.561 19.5405 132.182 19.5405C132.341 19.54 132.5 19.5305 132.658 19.5118V20.5482C132.434 20.5881 132.207 20.6094 131.979 20.6117C130.592 20.6117 130.039 20.125 130.039 18.9096V15.3494H129.036V14.3014H130.039V12.7032H131.288Z" fill="white"/>
<path d="M134.363 11.8118H135.599V15.2858H135.698C135.864 14.9227 136.138 14.6195 136.483 14.4174C136.828 14.2153 137.227 14.1242 137.626 14.1565C137.932 14.1399 138.238 14.1908 138.522 14.3057C138.806 14.4206 139.061 14.5965 139.269 14.821C139.477 15.0454 139.632 15.3129 139.725 15.6043C139.817 15.8957 139.844 16.2038 139.803 16.5067V20.5768H138.554V16.8136C138.554 15.8067 138.084 15.2967 137.202 15.2967C136.988 15.2792 136.772 15.3086 136.57 15.3829C136.368 15.4571 136.185 15.5745 136.034 15.7267C135.882 15.879 135.766 16.0624 135.693 16.2642C135.619 16.466 135.591 16.6812 135.61 16.895V20.5768H134.363L134.363 11.8118Z" fill="white"/>
<path d="M147.078 18.8746C146.908 19.4508 146.541 19.9491 146.04 20.2826C145.539 20.616 144.937 20.7632 144.338 20.6984C143.922 20.7094 143.508 20.6298 143.125 20.4653C142.743 20.3008 142.401 20.0552 142.123 19.7456C141.845 19.436 141.638 19.0698 141.516 18.6725C141.395 18.2751 141.361 17.8561 141.418 17.4445C141.362 17.0317 141.397 16.6118 141.518 16.2133C141.639 15.8147 141.845 15.4468 142.122 15.1345C142.398 14.8222 142.739 14.5728 143.12 14.4031C143.501 14.2334 143.915 14.1474 144.333 14.151C146.092 14.151 147.153 15.3494 147.153 17.329V17.7631H142.689V17.8328C142.669 18.0642 142.699 18.297 142.774 18.5165C142.85 18.7359 142.972 18.9371 143.13 19.1072C143.289 19.2772 143.481 19.4123 143.695 19.5039C143.909 19.5954 144.14 19.6414 144.372 19.6388C144.671 19.6746 144.973 19.621 145.241 19.4849C145.509 19.3488 145.73 19.1363 145.877 18.8746L147.078 18.8746ZM142.689 16.843H145.882C145.898 16.6314 145.869 16.4189 145.797 16.2191C145.726 16.0193 145.613 15.8366 145.467 15.6828C145.32 15.529 145.143 15.4075 144.946 15.326C144.75 15.2446 144.539 15.205 144.326 15.2099C144.11 15.2072 143.896 15.2476 143.696 15.3287C143.496 15.4098 143.315 15.53 143.162 15.6822C143.009 15.8344 142.889 16.0155 142.808 16.2149C142.727 16.4142 142.686 16.6278 142.689 16.843H142.689Z" fill="white"/>
</g>
<defs>
<clipPath id="clip0">
<rect width="168" height="56" fill="white"/>
</clipPath>
</defs>
</svg>
