<svg width="1440" height="695" viewBox="0 0 1440 695" fill="none" xmlns="http://www.w3.org/2000/svg">
<path d="M0 0C0 0 438.685 18.7703 720 18.7703C1001.31 18.7703 1440 0 1440 0V694.5C1440 694.5 1001.31 675.73 720 675.73C438.685 675.73 0 694.5 0 694.5L0 0Z" fill="#7854F7"/>
<circle cx="311.739" cy="478.928" r="2.12567" transform="rotate(-180 311.739 478.928)" fill="#70C217"/>
<circle cx="280.563" cy="478.928" r="2.12567" transform="rotate(-180 280.563 478.928)" fill="#70C217"/>
<circle cx="249.386" cy="478.928" r="2.12567" transform="rotate(-180 249.386 478.928)" fill="#70C217"/>
<circle cx="218.21" cy="478.928" r="2.12567" transform="rotate(-180 218.21 478.928)" fill="#70C217"/>
<circle cx="187.034" cy="478.928" r="2.12567" transform="rotate(-180 187.034 478.928)" fill="#70C217"/>
<circle cx="311.739" cy="447.751" r="2.12567" transform="rotate(-180 311.739 447.751)" fill="#70C217"/>
<circle cx="280.563" cy="447.751" r="2.12567" transform="rotate(-180 280.563 447.751)" fill="#70C217"/>
<circle cx="249.386" cy="447.751" r="2.12567" transform="rotate(-180 249.386 447.751)" fill="#70C217"/>
<circle cx="218.21" cy="447.751" r="2.12567" transform="rotate(-180 218.21 447.751)" fill="#70C217"/>
<circle cx="187.034" cy="447.751" r="2.12567" transform="rotate(-180 187.034 447.751)" fill="#70C217"/>
<circle cx="311.739" cy="416.575" r="2.12567" transform="rotate(-180 311.739 416.575)" fill="#70C217"/>
<circle cx="280.563" cy="416.575" r="2.12567" transform="rotate(-180 280.563 416.575)" fill="#70C217"/>
<circle cx="249.386" cy="416.575" r="2.12567" transform="rotate(-180 249.386 416.575)" fill="#70C217"/>
<circle cx="218.21" cy="416.575" r="2.12567" transform="rotate(-180 218.21 416.575)" fill="#70C217"/>
<circle cx="187.034" cy="416.575" r="2.12567" transform="rotate(-180 187.034 416.575)" fill="#70C217"/>
<circle cx="311.739" cy="385.398" r="2.12567" transform="rotate(-180 311.739 385.398)" fill="#70C217"/>
<circle cx="280.563" cy="385.398" r="2.12567" transform="rotate(-180 280.563 385.398)" fill="#70C217"/>
<circle cx="249.386" cy="385.398" r="2.12567" transform="rotate(-180 249.386 385.398)" fill="#70C217"/>
<circle cx="218.21" cy="385.398" r="2.12567" transform="rotate(-180 218.21 385.398)" fill="#70C217"/>
<circle cx="187.034" cy="385.398" r="2.12567" transform="rotate(-180 187.034 385.398)" fill="#70C217"/>
<circle cx="311.739" cy="354.221" r="2.12567" transform="rotate(-180 311.739 354.221)" fill="#70C217"/>
<circle cx="280.563" cy="354.222" r="2.12567" transform="rotate(-180 280.563 354.222)" fill="#70C217"/>
<circle cx="249.386" cy="354.222" r="2.12567" transform="rotate(-180 249.386 354.222)" fill="#70C217"/>
<circle cx="218.21" cy="354.222" r="2.12567" transform="rotate(-180 218.21 354.222)" fill="#70C217"/>
<circle cx="187.034" cy="354.222" r="2.12567" transform="rotate(-180 187.034 354.222)" fill="#70C217"/>
<circle cx="311.739" cy="323.045" r="2.12567" transform="rotate(-180 311.739 323.045)" fill="#70C217"/>
<circle cx="280.563" cy="323.045" r="2.12567" transform="rotate(-180 280.563 323.045)" fill="#70C217"/>
<circle cx="249.386" cy="323.045" r="2.12567" transform="rotate(-180 249.386 323.045)" fill="#70C217"/>
<circle cx="218.21" cy="323.045" r="2.12567" transform="rotate(-180 218.21 323.045)" fill="#70C217"/>
<circle cx="187.034" cy="323.045" r="2.12567" transform="rotate(-180 187.034 323.045)" fill="#70C217"/>
<circle cx="311.739" cy="291.869" r="2.12567" transform="rotate(-180 311.739 291.869)" fill="#70C217"/>
<circle cx="280.563" cy="291.869" r="2.12567" transform="rotate(-180 280.563 291.869)" fill="#70C217"/>
<circle cx="249.386" cy="291.869" r="2.12567" transform="rotate(-180 249.386 291.869)" fill="#70C217"/>
<circle cx="218.21" cy="291.869" r="2.12567" transform="rotate(-180 218.21 291.869)" fill="#70C217"/>
<circle cx="187.034" cy="291.869" r="2.12567" transform="rotate(-180 187.034 291.869)" fill="#70C217"/>
<circle cx="311.739" cy="260.693" r="2.12567" transform="rotate(-180 311.739 260.693)" fill="#70C217"/>
<circle cx="280.563" cy="260.693" r="2.12567" transform="rotate(-180 280.563 260.693)" fill="#70C217"/>
<circle cx="249.386" cy="260.693" r="2.12567" transform="rotate(-180 249.386 260.693)" fill="#70C217"/>
<circle cx="218.21" cy="260.693" r="2.12567" transform="rotate(-180 218.21 260.693)" fill="#70C217"/>
<circle cx="187.034" cy="260.693" r="2.12567" transform="rotate(-180 187.034 260.693)" fill="#70C217"/>
<circle cx="311.739" cy="229.516" r="2.12567" transform="rotate(-180 311.739 229.516)" fill="#70C217"/>
<circle cx="280.563" cy="229.516" r="2.12567" transform="rotate(-180 280.563 229.516)" fill="#70C217"/>
<circle cx="249.386" cy="229.516" r="2.12567" transform="rotate(-180 249.386 229.516)" fill="#70C217"/>
<circle cx="218.21" cy="229.516" r="2.12567" transform="rotate(-180 218.21 229.516)" fill="#70C217"/>
<circle cx="187.034" cy="229.516" r="2.12567" transform="rotate(-180 187.034 229.516)" fill="#70C217"/>
<circle cx="311.739" cy="198.34" r="2.12567" transform="rotate(-180 311.739 198.34)" fill="#70C217"/>
<circle cx="280.563" cy="198.34" r="2.12567" transform="rotate(-180 280.563 198.34)" fill="#70C217"/>
<circle cx="249.386" cy="198.34" r="2.12567" transform="rotate(-180 249.386 198.34)" fill="#70C217"/>
<circle cx="218.21" cy="198.34" r="2.12567" transform="rotate(-180 218.21 198.34)" fill="#70C217"/>
<circle cx="187.034" cy="198.34" r="2.12567" transform="rotate(-180 187.034 198.34)" fill="#70C217"/>
<circle cx="811.417" cy="549.874" r="2.12567" transform="rotate(-90 811.417 549.874)" fill="#70C217"/>
<circle cx="811.417" cy="518.698" r="2.12567" transform="rotate(-90 811.417 518.698)" fill="#70C217"/>
<circle cx="811.417" cy="487.521" r="2.12567" transform="rotate(-90 811.417 487.521)" fill="#70C217"/>
<circle cx="811.417" cy="456.345" r="2.12567" transform="rotate(-90 811.417 456.345)" fill="#70C217"/>
<circle cx="811.417" cy="425.169" r="2.12567" transform="rotate(-90 811.417 425.169)" fill="#70C217"/>
<circle cx="842.593" cy="549.874" r="2.12567" transform="rotate(-90 842.593 549.874)" fill="#70C217"/>
<circle cx="842.593" cy="518.698" r="2.12567" transform="rotate(-90 842.593 518.698)" fill="#70C217"/>
<circle cx="842.593" cy="487.521" r="2.12567" transform="rotate(-90 842.593 487.521)" fill="#70C217"/>
<circle cx="842.593" cy="456.345" r="2.12567" transform="rotate(-90 842.593 456.345)" fill="#70C217"/>
<circle cx="842.593" cy="425.169" r="2.12567" transform="rotate(-90 842.593 425.169)" fill="#70C217"/>
<circle cx="873.77" cy="549.874" r="2.12567" transform="rotate(-90 873.77 549.874)" fill="#70C217"/>
<circle cx="873.77" cy="518.698" r="2.12567" transform="rotate(-90 873.77 518.698)" fill="#70C217"/>
<circle cx="873.77" cy="487.521" r="2.12567" transform="rotate(-90 873.77 487.521)" fill="#70C217"/>
<circle cx="873.77" cy="456.345" r="2.12567" transform="rotate(-90 873.77 456.345)" fill="#70C217"/>
<circle cx="873.77" cy="425.169" r="2.12567" transform="rotate(-90 873.77 425.169)" fill="#70C217"/>
<circle cx="904.946" cy="549.874" r="2.12567" transform="rotate(-90 904.946 549.874)" fill="#70C217"/>
<circle cx="904.946" cy="518.698" r="2.12567" transform="rotate(-90 904.946 518.698)" fill="#70C217"/>
<circle cx="904.946" cy="487.521" r="2.12567" transform="rotate(-90 904.946 487.521)" fill="#70C217"/>
<circle cx="904.946" cy="456.345" r="2.12567" transform="rotate(-90 904.946 456.345)" fill="#70C217"/>
<circle cx="904.946" cy="425.169" r="2.12567" transform="rotate(-90 904.946 425.169)" fill="#70C217"/>
<circle cx="936.122" cy="549.874" r="2.12567" transform="rotate(-90 936.122 549.874)" fill="#70C217"/>
<circle cx="936.122" cy="518.698" r="2.12567" transform="rotate(-90 936.122 518.698)" fill="#70C217"/>
<circle cx="936.122" cy="487.521" r="2.12567" transform="rotate(-90 936.122 487.521)" fill="#70C217"/>
<circle cx="936.122" cy="456.345" r="2.12567" transform="rotate(-90 936.122 456.345)" fill="#70C217"/>
<circle cx="936.122" cy="425.169" r="2.12567" transform="rotate(-90 936.122 425.169)" fill="#70C217"/>
<circle cx="967.299" cy="549.874" r="2.12567" transform="rotate(-90 967.299 549.874)" fill="#70C217"/>
<circle cx="967.299" cy="518.698" r="2.12567" transform="rotate(-90 967.299 518.698)" fill="#70C217"/>
<circle cx="967.299" cy="487.521" r="2.12567" transform="rotate(-90 967.299 487.521)" fill="#70C217"/>
<circle cx="967.299" cy="456.345" r="2.12567" transform="rotate(-90 967.299 456.345)" fill="#70C217"/>
<circle cx="967.299" cy="425.169" r="2.12567" transform="rotate(-90 967.299 425.169)" fill="#70C217"/>
<circle cx="998.475" cy="549.874" r="2.12567" transform="rotate(-90 998.475 549.874)" fill="#70C217"/>
<circle cx="998.475" cy="518.698" r="2.12567" transform="rotate(-90 998.475 518.698)" fill="#70C217"/>
<circle cx="998.475" cy="487.521" r="2.12567" transform="rotate(-90 998.475 487.521)" fill="#70C217"/>
<circle cx="998.475" cy="456.345" r="2.12567" transform="rotate(-90 998.475 456.345)" fill="#70C217"/>
<circle cx="998.475" cy="425.169" r="2.12567" transform="rotate(-90 998.475 425.169)" fill="#70C217"/>
<circle cx="1029.65" cy="549.874" r="2.12567" transform="rotate(-90 1029.65 549.874)" fill="#70C217"/>
<circle cx="1029.65" cy="518.698" r="2.12567" transform="rotate(-90 1029.65 518.698)" fill="#70C217"/>
<circle cx="1029.65" cy="487.521" r="2.12567" transform="rotate(-90 1029.65 487.521)" fill="#70C217"/>
<circle cx="1029.65" cy="456.345" r="2.12567" transform="rotate(-90 1029.65 456.345)" fill="#70C217"/>
<circle cx="1029.65" cy="425.169" r="2.12567" transform="rotate(-90 1029.65 425.169)" fill="#70C217"/>
<circle cx="1060.83" cy="549.874" r="2.12567" transform="rotate(-90 1060.83 549.874)" fill="#70C217"/>
<circle cx="1060.83" cy="518.698" r="2.12567" transform="rotate(-90 1060.83 518.698)" fill="#70C217"/>
<circle cx="1060.83" cy="487.521" r="2.12567" transform="rotate(-90 1060.83 487.521)" fill="#70C217"/>
<circle cx="1060.83" cy="456.345" r="2.12567" transform="rotate(-90 1060.83 456.345)" fill="#70C217"/>
<circle cx="1060.83" cy="425.169" r="2.12567" transform="rotate(-90 1060.83 425.169)" fill="#70C217"/>
<circle cx="1092" cy="549.874" r="2.12567" transform="rotate(-90 1092 549.874)" fill="#70C217"/>
<circle cx="1092" cy="518.698" r="2.12567" transform="rotate(-90 1092 518.698)" fill="#70C217"/>
<circle cx="1092" cy="487.521" r="2.12567" transform="rotate(-90 1092 487.521)" fill="#70C217"/>
<circle cx="1092" cy="456.345" r="2.12567" transform="rotate(-90 1092 456.345)" fill="#70C217"/>
<circle cx="1092" cy="425.169" r="2.12567" transform="rotate(-90 1092 425.169)" fill="#70C217"/>
<circle cx="298.021" cy="194.102" r="118.455" stroke="#FFBA49" stroke-width="5"/>
<circle cx="982.429" cy="371.765" r="76.5282" stroke="#FFBA49" stroke-width="5"/>
<circle cx="184.606" cy="65.6062" r="17.1062" stroke="#FFBA49" stroke-width="5"/>
<circle cx="799.337" cy="299.071" r="17.1062" stroke="#FFBA49" stroke-width="5"/>
</svg>
