<svg width="375" height="888" viewBox="0 0 375 888" fill="none" xmlns="http://www.w3.org/2000/svg">
<rect width="375" height="888" fill="#7854F7"/>
<circle cx="120.537" cy="108.369" r="1.06283" transform="rotate(-90 120.537 108.369)" fill="#70C217"/>
<circle cx="120.537" cy="92.7814" r="1.06283" transform="rotate(-90 120.537 92.7814)" fill="#70C217"/>
<circle cx="120.537" cy="77.1928" r="1.06283" transform="rotate(-90 120.537 77.1928)" fill="#70C217"/>
<circle cx="120.537" cy="61.6051" r="1.06283" transform="rotate(-90 120.537 61.6051)" fill="#70C217"/>
<circle cx="120.537" cy="46.0168" r="1.06283" transform="rotate(-90 120.537 46.0168)" fill="#70C217"/>
<circle cx="136.125" cy="108.37" r="1.06283" transform="rotate(-90 136.125 108.37)" fill="#70C217"/>
<circle cx="136.125" cy="92.7814" r="1.06283" transform="rotate(-90 136.125 92.7814)" fill="#70C217"/>
<circle cx="136.125" cy="77.1928" r="1.06283" transform="rotate(-90 136.125 77.1928)" fill="#70C217"/>
<circle cx="136.125" cy="61.6051" r="1.06283" transform="rotate(-90 136.125 61.6051)" fill="#70C217"/>
<circle cx="136.125" cy="46.0168" r="1.06283" transform="rotate(-90 136.125 46.0168)" fill="#70C217"/>
<circle cx="151.713" cy="108.37" r="1.06283" transform="rotate(-90 151.713 108.37)" fill="#70C217"/>
<circle cx="151.713" cy="92.7814" r="1.06283" transform="rotate(-90 151.713 92.7814)" fill="#70C217"/>
<circle cx="151.713" cy="77.1928" r="1.06283" transform="rotate(-90 151.713 77.1928)" fill="#70C217"/>
<circle cx="151.713" cy="61.6051" r="1.06283" transform="rotate(-90 151.713 61.6051)" fill="#70C217"/>
<circle cx="151.713" cy="46.0168" r="1.06283" transform="rotate(-90 151.713 46.0168)" fill="#70C217"/>
<circle cx="167.301" cy="108.37" r="1.06283" transform="rotate(-90 167.301 108.37)" fill="#70C217"/>
<circle cx="167.301" cy="92.7814" r="1.06283" transform="rotate(-90 167.301 92.7814)" fill="#70C217"/>
<circle cx="167.301" cy="77.1928" r="1.06283" transform="rotate(-90 167.301 77.1928)" fill="#70C217"/>
<circle cx="167.301" cy="61.6051" r="1.06283" transform="rotate(-90 167.301 61.6051)" fill="#70C217"/>
<circle cx="167.301" cy="46.0168" r="1.06283" transform="rotate(-90 167.301 46.0168)" fill="#70C217"/>
<circle cx="182.89" cy="108.37" r="1.06283" transform="rotate(-90 182.89 108.37)" fill="#70C217"/>
<circle cx="182.889" cy="92.7814" r="1.06283" transform="rotate(-90 182.889 92.7814)" fill="#70C217"/>
<circle cx="182.889" cy="77.1928" r="1.06283" transform="rotate(-90 182.889 77.1928)" fill="#70C217"/>
<circle cx="182.889" cy="61.6051" r="1.06283" transform="rotate(-90 182.889 61.6051)" fill="#70C217"/>
<circle cx="182.889" cy="46.0168" r="1.06283" transform="rotate(-90 182.889 46.0168)" fill="#70C217"/>
<circle cx="198.478" cy="108.37" r="1.06283" transform="rotate(-90 198.478 108.37)" fill="#70C217"/>
<circle cx="198.478" cy="92.7814" r="1.06283" transform="rotate(-90 198.478 92.7814)" fill="#70C217"/>
<circle cx="198.478" cy="77.1928" r="1.06283" transform="rotate(-90 198.478 77.1928)" fill="#70C217"/>
<circle cx="198.478" cy="61.6051" r="1.06283" transform="rotate(-90 198.478 61.6051)" fill="#70C217"/>
<circle cx="198.478" cy="46.0168" r="1.06283" transform="rotate(-90 198.478 46.0168)" fill="#70C217"/>
<circle cx="214.066" cy="108.37" r="1.06283" transform="rotate(-90 214.066 108.37)" fill="#70C217"/>
<circle cx="214.066" cy="92.7814" r="1.06283" transform="rotate(-90 214.066 92.7814)" fill="#70C217"/>
<circle cx="214.066" cy="77.1928" r="1.06283" transform="rotate(-90 214.066 77.1928)" fill="#70C217"/>
<circle cx="214.066" cy="61.6051" r="1.06283" transform="rotate(-90 214.066 61.6051)" fill="#70C217"/>
<circle cx="214.066" cy="46.0168" r="1.06283" transform="rotate(-90 214.066 46.0168)" fill="#70C217"/>
<circle cx="229.654" cy="108.37" r="1.06283" transform="rotate(-90 229.654 108.37)" fill="#70C217"/>
<circle cx="229.654" cy="92.7814" r="1.06283" transform="rotate(-90 229.654 92.7814)" fill="#70C217"/>
<circle cx="229.654" cy="77.1928" r="1.06283" transform="rotate(-90 229.654 77.1928)" fill="#70C217"/>
<circle cx="229.654" cy="61.6051" r="1.06283" transform="rotate(-90 229.654 61.6051)" fill="#70C217"/>
<circle cx="229.654" cy="46.0168" r="1.06283" transform="rotate(-90 229.654 46.0168)" fill="#70C217"/>
<circle cx="245.243" cy="108.37" r="1.06283" transform="rotate(-90 245.243 108.37)" fill="#70C217"/>
<circle cx="245.243" cy="92.7814" r="1.06283" transform="rotate(-90 245.243 92.7814)" fill="#70C217"/>
<circle cx="245.243" cy="77.1928" r="1.06283" transform="rotate(-90 245.243 77.1928)" fill="#70C217"/>
<circle cx="245.243" cy="61.6051" r="1.06283" transform="rotate(-90 245.243 61.6051)" fill="#70C217"/>
<circle cx="245.243" cy="46.0168" r="1.06283" transform="rotate(-90 245.243 46.0168)" fill="#70C217"/>
<circle cx="260.831" cy="108.37" r="1.06283" transform="rotate(-90 260.831 108.37)" fill="#70C217"/>
<circle cx="260.831" cy="92.7814" r="1.06283" transform="rotate(-90 260.831 92.7814)" fill="#70C217"/>
<circle cx="260.831" cy="77.1928" r="1.06283" transform="rotate(-90 260.831 77.1928)" fill="#70C217"/>
<circle cx="260.831" cy="61.6051" r="1.06283" transform="rotate(-90 260.831 61.6051)" fill="#70C217"/>
<circle cx="260.831" cy="46.0168" r="1.06283" transform="rotate(-90 260.831 46.0168)" fill="#70C217"/>
<circle cx="85.0628" cy="358.208" r="1.06283" fill="#70C217"/>
<circle cx="100.651" cy="358.208" r="1.06283" fill="#70C217"/>
<circle cx="116.239" cy="358.208" r="1.06283" fill="#70C217"/>
<circle cx="131.827" cy="358.208" r="1.06283" fill="#70C217"/>
<circle cx="147.416" cy="358.208" r="1.06283" fill="#70C217"/>
<circle cx="85.0628" cy="373.796" r="1.06283" fill="#70C217"/>
<circle cx="100.651" cy="373.796" r="1.06283" fill="#70C217"/>
<circle cx="116.239" cy="373.796" r="1.06283" fill="#70C217"/>
<circle cx="131.827" cy="373.796" r="1.06283" fill="#70C217"/>
<circle cx="147.416" cy="373.796" r="1.06283" fill="#70C217"/>
<circle cx="85.0628" cy="389.385" r="1.06283" fill="#70C217"/>
<circle cx="100.651" cy="389.385" r="1.06283" fill="#70C217"/>
<circle cx="116.239" cy="389.385" r="1.06283" fill="#70C217"/>
<circle cx="131.827" cy="389.385" r="1.06283" fill="#70C217"/>
<circle cx="147.416" cy="389.385" r="1.06283" fill="#70C217"/>
<circle cx="85.0628" cy="404.973" r="1.06283" fill="#70C217"/>
<circle cx="100.651" cy="404.973" r="1.06283" fill="#70C217"/>
<circle cx="116.239" cy="404.973" r="1.06283" fill="#70C217"/>
<circle cx="131.827" cy="404.973" r="1.06283" fill="#70C217"/>
<circle cx="147.416" cy="404.973" r="1.06283" fill="#70C217"/>
<circle cx="85.0628" cy="420.561" r="1.06283" fill="#70C217"/>
<circle cx="100.651" cy="420.561" r="1.06283" fill="#70C217"/>
<circle cx="116.239" cy="420.561" r="1.06283" fill="#70C217"/>
<circle cx="131.827" cy="420.561" r="1.06283" fill="#70C217"/>
<circle cx="147.416" cy="420.561" r="1.06283" fill="#70C217"/>
<circle cx="85.0628" cy="436.149" r="1.06283" fill="#70C217"/>
<circle cx="100.651" cy="436.149" r="1.06283" fill="#70C217"/>
<circle cx="116.239" cy="436.149" r="1.06283" fill="#70C217"/>
<circle cx="131.827" cy="436.149" r="1.06283" fill="#70C217"/>
<circle cx="147.416" cy="436.149" r="1.06283" fill="#70C217"/>
<circle cx="85.0628" cy="451.738" r="1.06283" fill="#70C217"/>
<circle cx="100.651" cy="451.738" r="1.06283" fill="#70C217"/>
<circle cx="116.239" cy="451.738" r="1.06283" fill="#70C217"/>
<circle cx="131.827" cy="451.738" r="1.06283" fill="#70C217"/>
<circle cx="147.416" cy="451.738" r="1.06283" fill="#70C217"/>
<circle cx="85.0628" cy="467.326" r="1.06283" fill="#70C217"/>
<circle cx="100.651" cy="467.326" r="1.06283" fill="#70C217"/>
<circle cx="116.239" cy="467.326" r="1.06283" fill="#70C217"/>
<circle cx="131.827" cy="467.326" r="1.06283" fill="#70C217"/>
<circle cx="147.416" cy="467.326" r="1.06283" fill="#70C217"/>
<circle cx="85.0628" cy="482.914" r="1.06283" fill="#70C217"/>
<circle cx="100.651" cy="482.914" r="1.06283" fill="#70C217"/>
<circle cx="116.239" cy="482.914" r="1.06283" fill="#70C217"/>
<circle cx="131.827" cy="482.914" r="1.06283" fill="#70C217"/>
<circle cx="147.416" cy="482.914" r="1.06283" fill="#70C217"/>
<circle cx="85.0628" cy="498.502" r="1.06283" fill="#70C217"/>
<circle cx="100.651" cy="498.502" r="1.06283" fill="#70C217"/>
<circle cx="116.239" cy="498.502" r="1.06283" fill="#70C217"/>
<circle cx="131.827" cy="498.502" r="1.06283" fill="#70C217"/>
<circle cx="147.416" cy="498.502" r="1.06283" fill="#70C217"/>
<circle cx="262.949" cy="101.51" r="57.9777" transform="rotate(90 262.949 101.51)" stroke="#FFBA49" stroke-width="5"/>
<circle cx="174.117" cy="443.714" r="37.0141" transform="rotate(90 174.117 443.714)" stroke="#FFBA49" stroke-width="5"/>
<circle cx="327.197" cy="44.8031" r="7.30311" transform="rotate(90 327.197 44.8031)" stroke="#FFBA49" stroke-width="5"/>
<circle cx="210.464" cy="352.168" r="7.30311" transform="rotate(90 210.464 352.168)" stroke="#FFBA49" stroke-width="5"/>
</svg>
