<svg width="468" height="470" viewBox="0 0 468 470" fill="none" xmlns="http://www.w3.org/2000/svg">
<g filter="url(#filter0_d)">
<rect x="54" y="24" width="380" height="381.767" rx="20" fill="white"/>
</g>
<g clip-path="url(#clip0)">
<path d="M101.866 141.205C111.445 141.205 119.211 133.419 119.211 123.815C119.211 114.211 111.445 106.425 101.866 106.425C92.2859 106.425 84.52 114.211 84.52 123.815C84.52 133.419 92.2859 141.205 101.866 141.205Z" fill="#7854F7"/>
<path opacity="0.1" d="M99.7462 159.215C107.029 175.707 97.7389 194.697 86.8033 208.997C83.1432 213.793 79.1025 218.82 78.595 224.835C77.9832 232.192 82.9529 238.955 88.8479 243.376C99.6007 251.433 114.286 253.925 127.083 249.859C138.142 246.346 147.44 238.413 158.596 235.215C177.251 229.858 197.025 238.738 213.001 249.803C224.31 257.624 236.421 267.155 250.054 265.479C259.646 264.301 267.788 257.549 273.313 249.601C275.981 245.763 278.302 241.461 282.186 238.873C284.495 237.332 287.207 236.516 289.92 235.933C314.69 230.625 340.979 243.578 365.421 236.917C381.931 232.428 395.094 219.336 403.279 204.273C411.465 189.21 415.286 172.202 418.468 155.351C420.729 143.381 422.606 130.451 417.409 119.442C411.909 107.787 399.179 100.721 386.385 99.3968C373.592 98.0727 360.761 101.727 348.974 106.882C334.248 113.338 319.813 122.375 303.74 122.405C292.793 122.427 282.353 118.215 271.888 115.002C254.389 109.635 236.193 106.968 218.061 104.506C200.7 102.15 183.168 99.9579 165.703 101.349C153.346 102.333 142.433 107.069 130.441 109.261C122.625 110.689 114.771 109.635 107.1 112.029C97.6531 114.991 87.9375 121.855 87.4152 132.665C86.9227 142.955 95.8846 150.466 99.7462 159.215Z" fill="#7854F7"/>
<path d="M290.942 173.9C289.349 169.737 285.241 159.952 282.536 161.893C279.118 164.347 285.954 175.187 285.954 175.187C286.148 177.177 282.305 181.318 280.245 183.382C280.245 183.218 280.245 183.124 280.245 183.124C280.226 183.203 280.195 183.278 280.156 183.349L279.984 183.255C279.938 183.42 279.855 183.572 279.741 183.7C279.741 183.42 279.723 183.255 279.723 183.255C279.327 184.935 272.425 187.063 272.425 187.063C272.425 187.063 272.238 187.063 271.917 187.063C270 187.063 265.008 186.629 262.694 182.919C261.498 180.908 259.967 179.118 258.169 177.626C257.553 177.142 256.804 176.857 256.023 176.81C249.632 176.399 244.457 173.156 243.424 172.464L243.233 172.333L243.192 172.453C242.95 172.105 242.715 171.734 242.495 171.353L242.383 171.147C243.93 170.369 245.232 169.176 246.144 167.701C247.056 166.226 247.543 164.526 247.55 162.791C247.55 162.727 247.55 162.66 247.55 162.596C248.112 161.622 248.408 160.516 248.408 159.391V158.269L249.867 156.967C250.535 156.372 251.225 155.744 251.565 154.925C251.701 154.593 251.762 154.235 251.744 153.877C251.777 153.57 251.731 153.26 251.611 152.976C251.49 152.692 251.3 152.444 251.057 152.254C249.938 151.48 248.073 152.254 247.263 151.177C246.89 150.69 246.957 150.028 246.774 149.456C246.401 148.293 245.058 147.664 243.815 147.646C242.573 147.627 241.383 148.079 240.189 148.42C237.681 149.134 235.063 149.38 232.466 149.146C231.763 149.02 231.042 149.046 230.35 149.22C229.928 149.395 229.552 149.668 229.254 150.016C228.956 150.363 228.743 150.776 228.634 151.222C228.542 151.556 228.487 151.9 228.47 152.246C227.429 153.423 226.853 154.941 226.851 156.514V159.391C226.853 160.926 227.402 162.411 228.399 163.576C228.517 164.93 228.927 166.241 229.602 167.42C230.276 168.598 231.199 169.615 232.305 170.399C232.305 170.474 232.305 170.55 232.305 170.627L232.354 170.657C232.293 171.549 232.156 172.434 231.943 173.302V173.111C231.943 173.111 226.72 175.898 221.123 175.965H220.508C219.404 175.928 218.33 176.331 217.523 177.087C215.866 178.651 212.964 181.123 211.18 181.123C210.807 181.123 201.39 182.967 199.83 183.274L196.917 180.412L196.827 180.581L196.655 180.412C196.337 180.437 196.02 180.483 195.708 180.551C194.215 178.778 191.231 174.656 190.54 169.124C190.54 169.124 196.984 161.766 194.615 154.91C192.592 149.067 187.022 161.59 185.44 165.364C185.163 166.023 185.129 166.759 185.343 167.44L190.578 184.355C190.079 185.666 189.936 187.085 190.163 188.469H190.104L193.917 193.373C193.917 193.373 196.786 194.6 201.274 194.578C204.564 194.583 207.824 193.956 210.878 192.73H211.762L211.594 192.793H216.135L219.023 201.55C218.926 202.347 217.53 213.467 216.411 215.955C216.079 216.786 215.929 217.679 215.971 218.573C216.03 220.291 216.309 221.995 216.803 223.641L219.333 223.548L219.236 223.746C217.094 228.149 213.516 235.993 211.4 243.324L207.718 250.805L210.479 284.357H210.591L210.803 284.391C211.102 284.436 211.55 284.503 212.139 284.578L211.923 284.952L205.837 295.051C205.837 295.051 201.498 303.958 211.098 302.278C211.098 302.278 214.646 301.246 216.094 295.171L222.407 289.235C222.407 289.235 222.702 285.292 220.914 283.718C220.803 281.896 220.519 276.577 220.956 275.298C221.482 273.749 218.717 255.941 218.717 255.941C218.717 255.941 228.709 235.162 234.76 234.646C235.204 234.615 235.649 234.673 236.07 234.818C241.043 236.441 247.069 248.497 248.841 252.249L248.923 252.421V252.455L248.99 252.6V252.642L249.05 252.769V252.802L249.102 252.918V252.945L249.147 253.038V253.075L249.181 253.147V253.176L249.203 253.229V253.259V253.292L249.222 253.337L250.009 276.697L250.087 276.738H250.125L250.057 277.22L249.714 279.633C249.714 279.633 254.053 288.797 253.788 289.957C253.524 291.116 256.68 295.766 261.15 294.475C265.62 293.185 262.959 285.91 262.959 285.91L258.654 277.015L258.463 276.618C258.892 276.354 259.297 276.053 259.672 275.717C259.672 275.717 258.359 266.167 259.672 264.102C260.986 262.038 261.381 252.615 261.381 252.615C261.381 252.615 260.46 246.163 258.881 243.324L252.27 219.665C254.251 221.513 255.792 222.235 257.079 222.186H257.292C257.858 222.197 258.416 222.058 258.911 221.782C259.177 221.632 259.427 221.455 259.657 221.255C259.701 221.217 259.743 221.176 259.78 221.132V221.132C261.62 219.583 257.676 213.516 255.441 209.91C253.289 206.431 256.255 196.979 256.479 196.276C256.678 196.129 256.892 196.004 257.117 195.902C257.579 195.703 258.076 195.595 258.579 195.584C260.721 195.659 263.355 196.893 266.616 197.514C268.882 197.9 271.179 198.079 273.477 198.049H273.611C274.525 198.049 275.354 198.03 276.025 198.004C276.638 197.98 277.237 197.817 277.779 197.529V197.529C278.243 197.258 278.663 196.917 279.025 196.519L284.748 190.037L284.599 190.108C284.877 189.373 284.877 188.561 284.599 187.826L290.647 177.353C290.953 176.837 291.138 176.258 291.189 175.66C291.24 175.062 291.155 174.461 290.942 173.9V173.9Z" fill="url(#paint0_linear)"/>
<path d="M222.992 288.348L216.9 294.202C215.504 300.187 212.076 301.201 212.076 301.201C202.811 302.854 206.998 294.094 206.998 294.094L212.874 284.125L213.598 282.895C213.598 282.895 217.788 281.623 220.579 282.386C220.931 282.483 221.256 282.66 221.53 282.902C223.28 284.425 222.992 288.348 222.992 288.348Z" fill="#444176"/>
<path d="M260.56 293.566C256.243 294.838 253.199 290.26 253.471 289.112C253.744 287.963 249.528 278.945 249.528 278.945L249.856 276.566L250.162 274.363L257.251 274.871L257.919 276.278L262.075 285.049C262.075 285.049 264.877 292.295 260.56 293.566Z" fill="#444176"/>
<path opacity="0.1" d="M221.597 283.897C220.929 285.046 215.516 284.466 212.878 284.107L213.602 282.876C213.602 282.876 217.792 281.604 220.582 282.367C220.935 282.464 221.26 282.641 221.534 282.884C221.571 283.504 221.597 283.897 221.597 283.897Z" fill="black"/>
<path opacity="0.1" d="M257.926 276.27C254.296 278.694 250.431 276.861 249.849 276.558L250.155 274.355L257.244 274.864L257.926 276.27Z" fill="black"/>
<path d="M258.911 263.538C257.642 265.573 258.911 274.991 258.911 274.991C254.721 278.81 249.774 276.009 249.774 276.009L249.027 252.978C249.027 252.978 240.778 234.018 234.939 234.526C229.1 235.035 219.455 255.522 219.455 255.522C219.455 255.522 222.119 273.08 221.612 274.598C221.105 276.117 221.612 283.505 221.612 283.505C220.724 285.031 211.46 283.505 211.46 283.505L208.796 250.42L212.333 243.036C214.366 235.809 217.821 228.074 219.888 223.735C220.914 221.577 221.601 220.26 221.601 220.26L228.354 218.85L250.274 214.294L258.15 243.036C259.672 245.834 260.56 252.196 260.56 252.196C260.56 252.196 260.179 261.503 258.911 263.538Z" fill="#565387"/>
<g opacity="0.1">
<path opacity="0.1" d="M251.803 276.009L251.057 252.978C251.057 252.978 242.808 234.018 236.969 234.526C236.708 234.552 236.451 234.61 236.204 234.698C241.897 236.595 249.027 252.978 249.027 252.978L249.774 276.009C251.33 276.804 253.085 277.125 254.822 276.932C253.769 276.806 252.747 276.493 251.803 276.009V276.009Z" fill="black"/>
<path opacity="0.1" d="M213.475 283.516L210.811 250.431L214.363 243.036C216.396 235.809 219.851 228.074 221.918 223.735C222.944 221.577 223.63 220.26 223.63 220.26L230.384 218.85L250.393 214.679L250.285 214.279L228.354 218.85L221.601 220.26C221.601 220.26 220.914 221.577 219.888 223.735C217.814 228.074 214.366 235.824 212.333 243.036L208.781 250.416L211.445 283.501C211.445 283.501 216.504 284.335 219.504 284.152C217.485 284.042 215.472 283.83 213.475 283.516V283.516Z" fill="black"/>
</g>
<path d="M198.04 181.022C198.04 181.022 190.805 181.396 191.82 189.038L193.85 189.292L196.894 185.986L198.416 183.188V182.552L198.04 181.022Z" fill="#CED2DF"/>
<path opacity="0.1" d="M198.04 181.022C198.04 181.022 190.805 181.396 191.82 189.038L193.85 189.292L196.894 185.986L198.416 183.188V182.552L198.04 181.022Z" fill="black"/>
<path d="M278.521 183.82C278.521 183.82 284.491 186.999 282.965 190.691L281.062 191.439L278.525 190.041L278.152 186.734L278.406 184.445L278.521 183.82Z" fill="#CED2DF"/>
<path opacity="0.1" d="M278.521 183.82C278.521 183.82 284.491 186.999 282.965 190.691L281.062 191.439L278.525 190.041L278.152 186.734L278.406 184.445L278.521 183.82Z" fill="black"/>
<path d="M240.193 150.99H235.115C230.769 150.99 227.246 154.522 227.246 158.878C227.246 163.235 230.769 166.767 235.115 166.767H240.193C244.539 166.767 248.062 163.235 248.062 158.878C248.062 154.522 244.539 150.99 240.193 150.99Z" fill="#88455E"/>
<path d="M197.991 182.103L193.547 189.21L193.174 187.946L187.137 168.226C186.931 167.554 186.964 166.83 187.231 166.18C188.757 162.462 194.137 150.096 196.088 155.875C198.371 162.608 192.152 169.872 192.152 169.872C192.861 175.767 196.163 180.038 197.461 181.52C197.789 181.905 197.991 182.103 197.991 182.103Z" fill="#EC8C9C"/>
<path d="M277.57 185.155C277.57 185.155 284.551 178.538 284.286 175.868C284.286 175.868 277.686 165.181 280.988 162.776C283.6 160.861 287.566 170.511 289.103 174.615C289.306 175.161 289.388 175.746 289.342 176.327C289.296 176.909 289.124 177.473 288.838 177.981L280.495 192.79L277.57 185.155Z" fill="#EC8C9C"/>
<path d="M232.384 166.707C232.384 166.707 233.652 174.85 229.973 177.906C226.295 180.962 240.51 180.944 240.51 180.944L245.588 176.234C245.588 176.234 239.749 170.762 241.525 166.692L232.384 166.707Z" fill="#EC8C9C"/>
<path opacity="0.1" d="M232.13 175.995C232.13 175.995 237.589 180.068 243.043 175.486L251.927 193.938L251.42 216.46C251.42 216.46 233.014 226.002 225.399 220.152C217.784 214.301 224.131 211.245 224.131 211.245L222.355 193.942L224.258 182.743C224.258 182.743 227.683 177.398 227.94 177.398C228.198 177.398 232.13 175.995 232.13 175.995Z" fill="black"/>
<path d="M232.13 175.741C232.13 175.741 237.588 179.821 243.047 175.232L251.93 193.684L251.423 216.205C251.423 216.205 233.018 225.747 225.403 219.897C217.788 214.047 224.134 210.991 224.134 210.991L222.358 193.688L224.261 182.488C224.261 182.488 227.686 177.143 227.944 177.143C228.201 177.143 232.13 175.741 232.13 175.741Z" fill="#EBF1F6"/>
<path opacity="0.1" d="M232.13 173.837C232.13 173.837 226.955 176.792 221.336 176.646C220.809 176.629 220.284 176.718 219.792 176.907C219.299 177.096 218.849 177.381 218.467 177.746C216.867 179.287 214.065 181.725 212.33 181.725C211.957 181.725 201.159 183.887 201.159 183.887L198.305 181.026C198.305 181.026 194.051 189.36 192.022 188.978L195.704 193.815C195.704 193.815 202.685 196.867 211.822 193.179H217.154L219.945 201.831C219.945 201.831 218.549 213.538 217.408 216.082C216.266 218.625 217.781 223.589 217.781 223.589L227.806 223.215C227.806 223.215 228.313 218.251 229.074 217.604C229.836 216.957 226.411 195.083 226.411 195.083C226.411 195.083 224.127 182.739 232.503 178.288L232.13 173.837Z" fill="black"/>
<path opacity="0.1" d="M228.351 218.865C227.981 220.374 227.718 221.908 227.563 223.454L219.889 223.746C220.915 221.588 221.601 220.271 221.601 220.271L228.351 218.865Z" fill="black"/>
<path opacity="0.1" d="M197.991 182.103L193.547 189.21L193.174 187.946C194.805 186.322 196.715 182.93 197.476 181.516C197.79 181.905 197.991 182.103 197.991 182.103Z" fill="black"/>
<path d="M232.13 173.837C232.13 173.837 226.698 176.792 221.083 176.646C220.556 176.629 220.03 176.718 219.538 176.907C219.045 177.096 218.595 177.381 218.213 177.746C216.613 179.287 213.811 181.725 212.076 181.725C211.703 181.725 200.905 183.887 200.905 183.887L198.04 181.022C198.04 181.022 193.787 189.356 191.757 188.974L195.439 193.811C195.439 193.811 202.42 196.863 211.557 193.175H216.889L219.68 201.823C219.68 201.823 218.284 213.531 217.143 216.074C216.001 218.618 217.516 223.582 217.516 223.582L227.541 223.208C227.541 223.208 228.048 218.244 228.81 217.597C229.571 216.95 226.146 195.075 226.146 195.075C226.146 195.075 223.862 182.732 232.238 178.28L232.13 173.837Z" fill="#CED2DF"/>
<path opacity="0.1" d="M243.047 173.066C243.047 173.066 248.226 177.024 255.139 177.48C255.896 177.527 256.619 177.808 257.21 178.284C258.954 179.767 260.431 181.538 261.579 183.521C264.37 188.103 271.224 187.594 271.224 187.594C271.224 187.594 277.887 185.496 278.268 183.854C278.268 183.854 278.458 192.831 282.648 190.661L277.137 197.028C276.79 197.43 276.364 197.757 275.886 197.987C275.408 198.218 274.888 198.349 274.358 198.371C272.287 198.453 268.69 198.479 265.653 197.888C261.083 196.998 257.784 194.836 255.374 196.743C255.374 196.743 252.203 206.667 254.359 210.232C256.516 213.796 260.329 219.774 258.549 221.304C256.77 222.834 254.613 222.703 251.061 219.014C247.509 215.326 247.125 209.091 247.125 209.091L248.013 193.059C248.013 193.059 244.588 180.97 241.297 178.553L243.047 173.066Z" fill="black"/>
<path opacity="0.1" d="M283.152 190.501L277.626 196.893C277.259 197.317 276.804 197.657 276.294 197.888V197.888C275.84 198.093 275.351 198.209 274.854 198.228C272.783 198.314 269.186 198.341 266.149 197.746C261.874 196.912 258.71 194.967 256.344 196.28C256.177 196.372 256.017 196.479 255.867 196.598C255.867 196.598 252.695 206.521 254.852 210.086C257.008 213.651 260.821 219.628 259.042 221.158C258.744 221.42 258.41 221.638 258.049 221.805C256.452 222.527 254.471 221.902 251.554 218.869C248.002 215.177 247.617 208.945 247.617 208.945L248.505 192.913C248.505 192.913 245.08 180.824 241.79 178.408L243.241 173.19C244.241 173.87 249.233 177.068 255.404 177.476C256.16 177.524 256.884 177.805 257.475 178.28C259.218 179.764 260.696 181.535 261.844 183.517C264.635 188.099 271.488 187.59 271.488 187.59C273.132 187.065 274.736 186.425 276.29 185.675V185.675C277.264 185.197 278.122 184.673 278.529 184.179C278.643 184.05 278.726 183.897 278.771 183.73C278.771 183.73 278.965 192.663 283.152 190.501Z" fill="black"/>
<path d="M282.898 190.628L277.376 197.028C277.072 197.379 276.708 197.673 276.301 197.896V197.896C275.78 198.179 275.2 198.339 274.608 198.363C272.537 198.449 268.94 198.475 265.903 197.881C261.78 197.076 258.687 195.236 256.355 196.287C256.089 196.403 255.838 196.553 255.609 196.732C255.609 196.732 252.438 206.656 254.594 210.221C256.751 213.785 260.564 219.763 258.784 221.292C258.554 221.491 258.304 221.665 258.038 221.812C256.396 222.721 254.367 222.186 251.289 219.003C247.737 215.311 247.353 209.08 247.353 209.08L248.24 193.048C248.24 193.048 244.815 180.959 241.525 178.542L243.047 173.07L243.23 173.197C244.23 173.878 249.222 177.076 255.393 177.484C256.149 177.531 256.873 177.812 257.464 178.288C259.207 179.771 260.685 181.542 261.833 183.525C264.623 188.107 271.477 187.598 271.477 187.598C273.12 187.072 274.725 186.432 276.279 185.683V185.683C277.432 185.092 278.372 184.445 278.518 183.854C278.518 183.854 278.518 183.97 278.518 184.175C278.63 185.72 279.189 192.539 282.898 190.628Z" fill="#CED2DF"/>
<path opacity="0.1" d="M241.637 166.898H232.309C232.514 168.385 232.573 169.888 232.484 171.387C233.908 172.391 235.578 172.988 237.315 173.113C239.051 173.238 240.789 172.887 242.342 172.097C241.446 170.437 240.902 168.551 241.637 166.898Z" fill="black"/>
<path d="M237.969 172.939C243.086 172.939 247.233 168.781 247.233 163.651C247.233 158.522 243.086 154.364 237.969 154.364C232.853 154.364 228.705 158.522 228.705 163.651C228.705 168.781 232.853 172.939 237.969 172.939Z" fill="#EC8C9C"/>
<path opacity="0.1" d="M236.044 161.998C237.077 161.875 238.111 161.508 239.129 161.714C240.055 161.901 240.842 162.54 241.767 162.735C243.551 163.109 245.207 161.792 246.554 160.565L249.464 157.91C250.11 157.322 250.774 156.705 251.106 155.897C251.438 155.089 251.322 154.027 250.614 153.518C249.55 152.77 247.718 153.518 246.95 152.456C246.603 151.977 246.655 151.334 246.476 150.762C246.103 149.617 244.819 148.992 243.618 148.977C242.416 148.962 241.267 149.404 240.118 149.725C237.697 150.429 235.166 150.672 232.656 150.44C231.979 150.315 231.282 150.34 230.615 150.511C230.205 150.687 229.841 150.957 229.553 151.299C229.265 151.641 229.062 152.047 228.959 152.482C228.384 154.517 229.365 157.797 230.35 159.619C231.335 161.441 234.078 162.241 236.044 161.998Z" fill="black"/>
<path d="M236.044 161.744C237.077 161.62 238.111 161.254 239.129 161.459C240.055 161.646 240.842 162.286 241.767 162.48C243.551 162.855 245.207 161.538 246.554 160.311L249.464 157.655C250.11 157.068 250.774 156.451 251.106 155.643C251.438 154.835 251.322 153.773 250.614 153.264C249.55 152.516 247.718 153.264 246.95 152.202C246.603 151.723 246.655 151.079 246.476 150.507C246.103 149.363 244.819 148.738 243.618 148.723C242.416 148.708 241.267 149.149 240.118 149.471C237.697 150.175 235.166 150.417 232.656 150.185C231.979 150.061 231.282 150.085 230.615 150.257C230.205 150.432 229.841 150.702 229.553 151.045C229.265 151.387 229.062 151.792 228.959 152.228C228.384 154.263 229.365 157.543 230.35 159.365C231.335 161.186 234.078 161.968 236.044 161.744Z" fill="#88455E"/>
<path opacity="0.1" d="M219.885 201.89C219.885 201.89 221.914 202.145 222.929 203.417C223.944 204.688 225.72 205.07 225.72 205.07" fill="black"/>
<path opacity="0.1" d="M201.606 185.092C201.606 185.092 203.263 188.799 202.241 189.173C201.218 189.547 201.606 192.225 201.606 192.225" fill="black"/>
<g opacity="0.1">
<path opacity="0.1" d="M202.178 183.82C202.178 183.82 212.964 181.658 213.337 181.658C215.076 181.658 217.874 179.219 219.475 177.678C219.961 177.211 220.56 176.877 221.213 176.709H221.075C220.548 176.693 220.023 176.782 219.531 176.97C219.038 177.159 218.588 177.444 218.206 177.809C216.606 179.35 213.804 181.789 212.069 181.789C211.766 181.789 204.864 183.162 202.062 183.719L202.178 183.82Z" fill="black"/>
<path opacity="0.1" d="M232.145 174.372V173.896C229.551 175.223 226.758 176.119 223.877 176.549C226.736 176.293 229.531 175.558 232.145 174.372V174.372Z" fill="black"/>
<path opacity="0.1" d="M218.807 223.518C218.807 223.518 217.285 218.554 218.434 216.011C219.583 213.467 220.971 201.76 220.971 201.76L218.188 193.108H212.841L212.517 193.235H216.901L219.68 201.89C219.68 201.89 218.285 213.598 217.143 216.142C216.001 218.685 217.516 223.649 217.516 223.649L227.541 223.275V223.196L218.807 223.518Z" fill="black"/>
</g>
<g opacity="0.1">
<path opacity="0.1" d="M258.911 219.258C258.681 219.456 258.431 219.63 258.165 219.778C256.523 220.686 254.494 220.152 251.415 216.968C248.595 214.04 247.774 209.487 247.554 207.763L247.479 209.08C247.479 209.08 247.852 215.315 251.415 219.003C254.494 222.198 256.523 222.721 258.165 221.812C258.431 221.665 258.681 221.491 258.911 221.292C259.445 220.832 259.474 219.968 259.195 218.891C259.125 219.031 259.029 219.155 258.911 219.258V219.258Z" fill="black"/>
<path opacity="0.1" d="M281.103 190.819L277.51 194.982C277.207 195.333 276.843 195.627 276.436 195.85V195.85C275.914 196.133 275.335 196.293 274.742 196.317C272.671 196.403 269.075 196.429 266.037 195.835C261.915 195.03 258.822 193.19 256.49 194.241C256.223 194.357 255.973 194.507 255.744 194.686C255.744 194.686 253.695 201.097 254.009 205.463C254.251 201.382 255.744 196.721 255.744 196.721C255.973 196.542 256.223 196.392 256.49 196.276C258.825 195.225 261.915 197.065 266.037 197.869C269.075 198.46 272.668 198.434 274.742 198.352C275.335 198.328 275.914 198.168 276.436 197.884C276.842 197.665 277.206 197.375 277.51 197.028L283.036 190.635C282.75 190.814 282.427 190.923 282.091 190.955C281.756 190.987 281.418 190.94 281.103 190.819V190.819Z" fill="black"/>
</g>
<path d="M118.845 236.636C118.89 236.679 118.946 236.707 119.008 236.715C119.069 236.723 119.131 236.711 119.185 236.681C119.07 236.683 118.956 236.668 118.845 236.636V236.636Z" fill="url(#paint1_linear)"/>
<path d="M156.868 174.674C156.196 174.48 155.238 174.162 154.085 173.758C155.283 172.213 156.159 170.442 156.663 168.551L156.566 168.589C156.599 168.473 156.633 168.361 156.663 168.241C154.45 169.142 152.003 167.616 150.443 165.656C148.884 163.696 147.831 161.265 146.123 159.462C145.411 158.745 144.645 158.083 143.832 157.483C143.328 157.109 142.787 156.686 142.172 156.668C141.175 156.638 140.396 157.618 139.437 157.906C138.806 158.048 138.149 158.024 137.53 157.835C135.056 157.266 132.68 156.215 130.154 155.938C128.803 155.771 127.431 155.926 126.151 156.391C124.882 156.873 124.304 157.835 123.278 158.605C122.158 159.432 119.972 159.413 118.67 159.559C117.09 159.74 115.499 159.806 113.909 159.757C112.996 159.678 112.076 159.712 111.17 159.858C109.279 160.274 107.76 161.781 106.343 163.225C105.956 163.551 105.677 163.989 105.544 164.478C105.526 164.616 105.526 164.755 105.544 164.893C105.53 165.27 105.595 165.646 105.734 165.997C106.171 167.295 106.788 168.525 107.566 169.651C108.145 170.481 108.82 171.263 109.148 172.247C109.304 172.731 109.386 173.235 109.391 173.743C109.375 174.283 109.319 174.82 109.223 175.351C108.973 176.82 108.561 178.257 107.995 179.634C107.644 180.342 107.403 181.098 107.279 181.879C107.268 182.038 107.268 182.198 107.279 182.357C107.186 184.826 109.671 186.603 110.152 189.057C110.191 189.26 110.215 189.467 110.223 189.674C110.171 191.204 109.301 192.7 108.018 193.295C108.13 193.34 108.245 193.377 108.361 193.414C108.251 193.484 108.136 193.546 108.018 193.601C108.253 193.691 108.492 193.77 108.734 193.833C107.275 195.107 106.05 196.626 105.111 198.322C100.795 206.379 71.5583 222.16 71.5583 222.16L71.9911 222.407L71.6403 222.635C69.1107 224.322 63.1747 229.241 68.5399 235.461C68.5399 235.461 72.7298 228.833 75.6661 226.009C75.7967 225.882 75.9273 225.766 76.0392 225.658C76.1037 225.757 76.147 225.869 76.1662 225.986C76.1855 226.103 76.1804 226.223 76.1511 226.338L95.3734 215.51C95.3734 215.51 102.205 210.714 104.111 209.633C105.453 208.795 106.914 208.165 108.443 207.763L108.219 207.856C108.938 207.658 109.679 207.553 110.424 207.542C113.827 207.595 117.513 210.093 118.726 219.987C120.353 233.236 119.599 235.626 119.077 235.951C119.012 235.947 118.948 235.935 118.886 235.918C118.902 235.932 118.92 235.944 118.938 235.955C118.868 235.95 118.798 235.938 118.73 235.918C118.767 235.952 118.813 235.977 118.863 235.988C118.912 236 118.964 235.999 119.013 235.985C119.048 235.996 119.086 235.999 119.122 235.995C119.159 235.99 119.194 235.978 119.226 235.959C119.311 235.964 119.397 235.964 119.483 235.959C119.483 236.081 119.474 236.206 119.457 236.333C119.431 236.333 119.304 236.404 119.457 236.411C119.416 237.16 119.42 237.971 119.457 238.82C117.767 238.914 116.077 239.015 114.607 239.105L114.737 238.405L114.797 238.091C116.095 237.986 117.327 237.605 117.472 236.55C117.789 234.231 114.614 232.993 111.913 232.839C109.212 232.686 93.0116 233.767 93.0116 233.767C93.0116 233.767 90.5827 236.92 98.2873 237.882C98.5161 238.001 98.7537 238.126 98.9999 238.256C102.018 239.98 106.111 243.156 108.074 244.719L108.346 244.936L107.466 245.654C112.23 246.735 116.838 264.989 119.379 273.334C121.92 281.679 127.479 281.376 132.087 280.138C136.403 278.978 136.937 266.41 137.008 264.832V264.671L144.686 274.179L145.268 274.901C145.492 275.018 145.713 275.128 145.932 275.23C151.745 278.002 158.166 272.687 156.342 266.627C154.495 260.519 151.63 251.486 149.719 247.667C148.119 244.469 146.052 239.157 144.798 235.832C144.961 235.766 145.119 235.69 145.272 235.604C145.272 235.604 145.242 235.454 145.194 235.181L145.272 235.14C145.272 235.14 143.406 225.519 143.324 218.682C143.324 218.562 143.324 218.437 143.324 218.307C143.324 218.233 143.324 218.158 143.324 218.087C144.712 217.769 145.593 217.645 145.593 217.645L145.619 217.346L145.459 217.38L146.231 208.519C146.231 208.519 149.066 202.47 146.895 199.953C146.235 199.217 145.794 198.309 145.623 197.334C145.25 195.019 145.623 191.155 150.678 187.946C158.461 182.997 161.498 178.969 161.498 178.969C161.498 178.969 161.633 176.081 156.868 174.674ZM141.41 180.824V176.728C142.854 176.657 144.328 176.825 145.779 176.728C146.492 176.678 147.198 176.559 147.887 176.373L148.238 176.616C146.115 178.253 143.826 179.664 141.41 180.824V180.824ZM119.341 245.026C119.912 245.422 120.487 245.834 121.05 246.249C121.401 248.269 121.711 249.694 121.733 249.795C121.089 248.133 120.288 246.536 119.341 245.026V245.026Z" fill="url(#paint2_linear)"/>
<path d="M131.676 241.659L131.34 243.489L131.083 244.888L130.613 247.446L126.054 250.644C126.054 250.644 125.643 250.293 124.964 249.735C123.099 248.194 119.17 245.067 116.286 243.376C115.545 242.902 114.743 242.531 113.902 242.273L131.676 241.659Z" fill="#FFBDC6"/>
<path opacity="0.1" d="M131.676 241.659L131.34 243.489C130.335 243.545 129.327 243.493 128.333 243.335L117.696 243.489C117.192 243.459 116.722 243.418 116.282 243.373C115.541 242.898 114.739 242.527 113.898 242.269L131.676 241.659Z" fill="black"/>
<path d="M128.333 243.036C128.333 243.036 133.653 243.949 133.955 241.663C134.258 239.378 131.221 238.173 128.642 238.001C126.064 237.829 110.554 238.921 110.554 238.921C110.554 238.921 107.82 242.576 117.696 243.186L128.333 243.036Z" fill="#7679B4"/>
<path opacity="0.1" d="M131.676 241.659L131.34 243.489L131.083 244.888L130.613 247.446L126.054 250.644C126.054 250.644 125.643 250.293 124.964 249.735C123.099 248.194 119.17 245.067 116.286 243.376C115.545 242.902 114.743 242.531 113.902 242.273L131.676 241.659Z" fill="black"/>
<path opacity="0.1" d="M131.676 241.659L131.34 243.489C130.335 243.545 129.327 243.493 128.333 243.335L117.696 243.489C117.192 243.459 116.722 243.418 116.282 243.373C115.541 242.898 114.739 242.527 113.898 242.269L131.676 241.659Z" fill="black"/>
<path opacity="0.1" d="M128.333 243.036C128.333 243.036 133.653 243.949 133.955 241.663C134.258 239.378 131.221 238.173 128.642 238.001C126.064 237.829 110.554 238.921 110.554 238.921C110.554 238.921 107.82 242.576 117.696 243.186L128.333 243.036Z" fill="black"/>
<path d="M139.955 167.923H112.148V200.981H139.955V167.923Z" fill="#A66477"/>
<path opacity="0.1" d="M139.955 167.923H112.148V200.981H139.955V167.923Z" fill="black"/>
<path d="M79.5536 224.52C79.0947 224.636 78.5126 225.078 77.8597 225.721C75.0502 228.504 71.0431 235.031 71.0431 235.031C65.9092 228.904 71.5916 224.06 74.0279 222.396C74.6174 221.992 75.0129 221.775 75.0129 221.775L79.5536 224.52Z" fill="#FFBDC6"/>
<path d="M131.374 178.359C131.374 178.359 132.743 187.957 137.452 190.243C142.16 192.528 131.374 196.792 131.374 196.792L116.633 191.309C116.633 191.309 124.99 188.567 123.319 180.491L131.374 178.359Z" fill="#FFBDC6"/>
<path d="M115.584 236.097L115.249 237.926L114.991 239.325L114.521 241.884L109.962 245.082C109.962 245.082 109.551 244.73 108.872 244.173C107.007 242.632 103.078 239.505 100.194 237.814C99.4528 237.34 98.6507 236.969 97.8098 236.711L115.584 236.097Z" fill="#FFBDC6"/>
<path opacity="0.1" d="M115.584 236.097L115.248 237.926C114.243 237.983 113.235 237.931 112.241 237.773L101.604 237.926C101.1 237.897 100.63 237.855 100.19 237.811C99.4489 237.336 98.6468 236.965 97.8059 236.707L115.584 236.097Z" fill="black"/>
<path d="M112.226 237.47C112.226 237.47 117.547 238.383 117.849 236.097C118.151 233.812 115.114 232.593 112.529 232.443C109.943 232.293 94.4444 233.356 94.4444 233.356C94.4444 233.356 91.7095 237.01 101.586 237.62L112.226 237.47Z" fill="#7679B4"/>
<path opacity="0.1" d="M114.976 239.329L114.506 241.888L109.947 245.086C109.947 245.086 109.536 244.734 108.857 244.177L114.887 239.221L114.976 239.329Z" fill="black"/>
<path d="M145.059 274.206C144.85 274.103 144.639 273.995 144.425 273.88L143.869 273.169L136.526 263.818V263.983C136.478 265.535 135.948 277.916 131.821 279.057C127.415 280.276 122.095 280.579 119.666 272.354C117.237 264.129 112.827 246.152 108.268 245.086L115.028 239.524C115.028 239.524 119.505 244.76 121.334 249.803C121.266 249.481 118.173 235.001 120.725 232.443H142.91C142.91 232.443 146.328 242.221 148.686 247.068C150.514 250.831 153.256 259.726 155.028 265.745C156.782 271.699 150.656 276.936 145.059 274.206Z" fill="#7679B4"/>
<path opacity="0.1" d="M144.44 235.181C141.019 237.212 125.975 236.385 121.073 236.056L119.741 235.959C119.595 235.959 119.763 235.877 119.763 235.877L119.901 234.493L123.546 225.201L143.075 213.86C142.679 215.053 142.545 216.882 142.578 218.981C142.675 225.706 144.44 235.181 144.44 235.181Z" fill="black"/>
<path d="M144.44 234.728C141.018 236.759 125.975 235.933 121.072 235.604L119.74 235.506H119.52L119.763 235.443L120.964 235.125L123.546 224.764L143.074 213.415C142.679 214.608 142.544 216.437 142.578 218.536C142.675 225.25 144.44 234.728 144.44 234.728Z" fill="#F2F1F2"/>
<path opacity="0.1" d="M142.578 218.521C138.608 219.437 129.87 222.134 126.512 228.62C124.274 232.952 122.408 234.811 121.076 235.589L119.744 235.491L119.767 235.409L120.968 235.091L123.55 224.73L143.078 213.381C142.675 214.608 142.545 216.422 142.578 218.521Z" fill="black"/>
<path opacity="0.1" d="M74.9945 221.779L79.5538 224.52C79.0949 224.636 78.5129 225.078 77.8599 225.721C77.4868 224.599 75.0915 223.058 74.0095 222.4C74.599 221.996 74.9945 221.779 74.9945 221.779Z" fill="black"/>
<path opacity="0.1" d="M118.942 235.682C118.891 235.711 118.833 235.722 118.775 235.715C118.717 235.707 118.663 235.681 118.621 235.641C118.726 235.671 118.834 235.684 118.942 235.682V235.682Z" fill="black"/>
<path d="M129.244 189.633C129.244 189.633 125.139 190.089 122.252 187.044C122.252 187.044 110.096 190.549 105.992 198.472C101.888 206.394 73.9275 221.932 73.9275 221.932C73.9275 221.932 78.7778 224.674 78.3338 226.047L96.7203 215.382C96.7203 215.382 103.253 210.658 105.078 209.592C106.902 208.526 116.931 201.976 119.058 219.8C121.185 237.623 119.058 235.51 119.058 235.51C119.058 235.51 122.099 236.576 126.52 228.029C130.941 219.482 144.604 217.518 144.604 217.518L145.35 208.541C145.35 208.541 148.063 202.586 145.985 200.102C145.351 199.372 144.93 198.48 144.768 197.525C144.421 195.244 144.768 191.439 149.619 188.279C157.081 183.416 159.954 179.444 159.954 179.444C159.954 179.444 160.107 176.549 155.547 175.179C150.988 173.81 132.449 166.344 132.449 166.344L131.84 168.933L146.429 179.294C146.429 179.294 139.135 185.234 133.37 185.084C133.348 185.058 134.411 189.479 129.244 189.633Z" fill="#565388"/>
<path opacity="0.1" d="M132.06 182.537C131.701 181.31 131.42 180.06 131.221 178.797L123.165 180.944C123.518 182.485 123.455 184.092 122.982 185.601C124.629 186.041 126.368 185.985 127.983 185.439C129.597 184.894 131.015 183.883 132.06 182.533V182.537Z" fill="black"/>
<path d="M125.371 185.443C130.155 185.443 134.034 181.555 134.034 176.758C134.034 171.961 130.155 168.073 125.371 168.073C120.586 168.073 116.707 171.961 116.707 176.758C116.707 181.555 120.586 185.443 125.371 185.443Z" fill="#FFBDC6"/>
<path opacity="0.1" d="M129.975 157.004C132.378 157.277 134.665 158.314 137.03 158.875C137.621 159.061 138.251 159.085 138.855 158.946C139.772 158.661 140.519 157.696 141.466 157.726C142.052 157.726 142.586 158.145 143.056 158.531C143.835 159.123 144.567 159.774 145.246 160.479C146.876 162.256 147.891 164.65 149.38 166.58C150.869 168.51 153.215 170.014 155.331 169.127C153.894 174.738 149.178 179.029 144.082 179.376C142.048 179.515 139.978 179.092 137.997 179.691C137.506 179.891 136.987 180.017 136.459 180.065C135.34 180.065 134.415 179.021 133.706 178.007C132.049 175.621 130.721 172.913 128.856 170.74C128.24 170.021 127.512 169.337 126.643 169.206C125.774 169.075 124.972 169.49 124.195 169.894C122.916 170.56 121.606 171.248 120.614 172.385C119.621 173.522 118.994 175.224 119.405 176.766C119.625 177.596 120.132 178.344 120.151 179.216C120.151 180.6 118.95 181.613 118.707 182.956C118.654 183.523 118.634 184.092 118.647 184.662C118.539 186.51 117.338 188.028 116.077 189.184C115.588 189.637 115.043 190.119 114.902 190.819C114.804 191.294 114.902 191.799 114.838 192.281C114.655 193.482 113.461 194.088 112.405 194.245C111.172 194.426 109.913 194.276 108.757 193.811C110.249 193.112 111.141 191.118 110.797 189.322C110.327 186.85 107.85 185.077 108.059 182.556C108.176 181.784 108.407 181.034 108.745 180.33C109.286 178.97 109.679 177.555 109.917 176.111C110.161 174.999 110.137 173.845 109.846 172.744C109.529 171.776 108.883 171.005 108.331 170.186C107.583 169.072 106.993 167.86 106.578 166.584C106.427 166.207 106.369 165.799 106.41 165.394C106.53 164.917 106.79 164.488 107.156 164.16C108.514 162.735 109.969 161.25 111.775 160.838C112.638 160.694 113.515 160.66 114.387 160.737C115.908 160.786 117.431 160.721 118.942 160.543C120.188 160.397 122.3 160.416 123.352 159.6C124.334 158.852 124.889 157.898 126.102 157.42C127.34 156.965 128.669 156.823 129.975 157.004V157.004Z" fill="black"/>
<path opacity="0.1" d="M134.792 246.687C134.792 246.687 139.806 256.588 138.287 259.636Z" fill="black"/>
<path opacity="0.1" d="M143.884 273.17L136.541 263.818V263.983C136.541 263.983 136.116 260.961 137.515 261.978C140.578 264.2 145.481 267.843 145.585 268.471C145.69 269.1 144.593 271.621 143.884 273.17Z" fill="black"/>
<g opacity="0.1">
<path opacity="0.1" d="M133.493 185.058C133.493 185.058 134.112 187.632 132.109 188.918C135.194 188.387 135.329 185.982 135.235 184.935C134.659 185.028 134.076 185.07 133.493 185.058V185.058Z" fill="black"/>
<path opacity="0.1" d="M75.7556 221.322C75.7556 221.322 103.716 205.784 107.82 197.862C110.764 192.176 117.856 188.769 121.625 187.295C118.875 188.219 109.622 191.761 106.145 198.472C102.041 206.394 74.0803 221.932 74.0803 221.932L75.7556 221.322Z" fill="black"/>
<path opacity="0.1" d="M138.933 183.85C143.69 182.354 148.238 178.662 148.238 178.662L133.65 168.301L133.982 166.879L132.587 166.318L131.979 168.907L146.567 179.268C144.226 181.113 141.661 182.652 138.933 183.85V183.85Z" fill="black"/>
<path opacity="0.1" d="M139.026 218.958C140.89 218.32 142.803 217.836 144.746 217.511L144.772 217.215C142.814 217.646 140.893 218.229 139.026 218.958V218.958Z" fill="black"/>
<path opacity="0.1" d="M121.345 234.919H121.211C121.16 234.947 121.101 234.959 121.043 234.951C120.986 234.944 120.932 234.918 120.89 234.878C120.994 234.907 121.102 234.921 121.211 234.919C121.711 234.627 122.461 232.353 120.89 219.187C119.211 205.13 112.622 206.233 109.014 207.849C112.7 206.832 117.774 207.711 119.218 219.796C120.789 232.963 120.039 235.241 119.539 235.529C120.187 235.505 120.814 235.293 121.345 234.919Z" fill="black"/>
<path opacity="0.1" d="M119.539 235.533C119.431 235.534 119.322 235.521 119.218 235.491C119.26 235.532 119.314 235.557 119.372 235.565C119.429 235.572 119.488 235.561 119.539 235.533V235.533Z" fill="black"/>
</g>
<path d="M129.975 156.709C132.378 156.982 134.665 158.018 137.03 158.579C137.621 158.765 138.251 158.79 138.855 158.65C139.772 158.366 140.519 157.401 141.466 157.431C142.052 157.431 142.586 157.85 143.056 158.235C143.835 158.827 144.567 159.479 145.246 160.184C146.876 161.961 147.891 164.354 149.38 166.285C150.869 168.215 153.215 169.718 155.331 168.832C153.894 174.443 149.178 178.733 144.082 179.081C142.048 179.219 139.978 178.797 137.997 179.395C137.506 179.596 136.987 179.722 136.459 179.769C135.34 179.769 134.415 178.725 133.706 177.712C132.049 175.325 130.721 172.617 128.856 170.444C128.24 169.726 127.512 169.041 126.643 168.91C125.774 168.779 124.972 169.195 124.195 169.599C122.916 170.264 121.606 170.953 120.614 172.09C119.621 173.227 118.994 174.929 119.405 176.47C119.625 177.3 120.132 178.048 120.151 178.92C120.151 180.304 118.95 181.318 118.707 182.661C118.654 183.227 118.634 183.797 118.647 184.366C118.539 186.214 117.338 187.733 116.077 188.888C115.588 189.341 115.043 189.824 114.902 190.523C114.804 190.998 114.902 191.503 114.838 191.986C114.655 193.186 113.461 193.792 112.405 193.949C111.172 194.131 109.913 193.981 108.757 193.515C110.249 192.816 111.141 190.822 110.797 189.027C110.327 186.554 107.85 184.781 108.059 182.26C108.176 181.488 108.407 180.738 108.745 180.035C109.286 178.675 109.679 177.26 109.917 175.815C110.161 174.704 110.137 173.549 109.846 172.449C109.529 171.48 108.883 170.71 108.331 169.89C107.583 168.777 106.993 167.565 106.578 166.288C106.427 165.911 106.369 165.503 106.41 165.099C106.53 164.622 106.79 164.192 107.156 163.864C108.514 162.439 109.969 160.954 111.775 160.543C112.638 160.399 113.515 160.365 114.387 160.442C115.908 160.49 117.431 160.425 118.942 160.247C120.188 160.102 122.3 160.12 123.352 159.305C124.334 158.557 124.889 157.603 126.102 157.124C127.34 156.67 128.669 156.527 129.975 156.709V156.709Z" fill="#A66477"/>
<path d="M377.352 137.213C377.352 137.165 377.352 137.12 377.352 137.075C377.352 137.03 377.352 136.978 377.33 136.933H377.27C377.27 136.832 377.27 136.731 377.27 136.622C377.121 133.155 372.338 125.775 370.42 127.929C368.741 129.822 371.275 134.61 372.566 136.765L372.681 136.959L372.618 136.918C372.618 136.918 367.279 152.882 366.648 153.503C366.018 154.124 361.623 166.677 355.828 168.091C354.683 168.364 353.731 168.611 352.933 168.839L352.996 168.626C353.37 167.403 353.828 166.247 354.015 164.886C354.202 163.524 354.015 161.875 353.328 161.212C352.993 160.883 352.582 160.838 352.306 160.315C352.127 159.855 352.031 159.368 352.023 158.875L351.53 152.823L351.873 152.718C353.948 152.052 355.959 150.473 356.194 148.349C356.122 148.376 356.048 148.4 355.974 148.42C356.001 148.296 356.022 148.172 356.037 148.046C354.295 148.734 352.679 146.924 351 146.112C348.236 144.754 345.075 146.034 342.221 146.344C338.986 146.699 335.916 145.353 332.61 145.596C330.812 145.734 328.812 146.957 328.909 148.734C328.965 149.71 329.655 150.537 329.939 151.472C330.655 153.735 329.062 156.006 327.667 157.936C326.749 159.204 325.868 160.749 325.711 162.237C322.499 158.871 319.025 154.981 318.623 153.518L309.329 137.554C309.329 137.554 309.108 137.789 308.754 138.137C308.698 137.965 308.631 137.763 308.556 137.561C307.37 134.228 304.012 126.153 299.755 127.634C295.498 129.115 301.52 137.393 304.139 140.692L304.512 141.148C304.292 141.203 304.062 141.192 303.848 141.118L314.212 158.942C314.212 158.942 316.097 162.353 317.824 163.281C317.824 163.281 330.7 179.556 330.857 182.81C331.013 186.064 336.647 194.746 336.647 194.746C336.647 194.746 338.531 208.852 335.233 211.331H335.274H335.3H335.341H335.379H335.453H335.502H335.55H335.614H335.666H335.74H335.778C335.621 211.485 335.461 211.653 335.296 211.836C332.853 214.552 329.73 220.372 333.998 230.27C340.277 244.858 341.221 250.573 341.221 250.573C341.221 250.573 329.282 251.194 326.932 251.658C324.85 252.069 316.757 252.357 314.906 252.406C314.246 251.635 312.295 249.93 309.661 252.406C306.362 255.507 304.008 265.872 304.008 265.872C304.008 265.872 302.751 274.243 306.993 272.07C306.993 272.07 312.019 265.094 313.429 264.783C314.13 264.63 314.873 263.594 315.44 262.595L315.47 262.614C315.503 262.614 315.641 262.539 315.865 262.449C316.91 262.034 319.787 261.035 322.055 261.533C323.297 261.806 328.625 261.869 334.211 261.854C332.95 264.884 330.689 272.702 330.689 272.702C330.689 272.702 329.745 279.992 332.879 279.693C335.117 279.472 338.55 273.738 340.341 270.465C341.639 269.511 345.359 266.092 348.109 266.351L366.637 259.221C366.637 259.221 371.032 256.741 368.678 248.527C366.812 241.996 361.503 228.628 359.406 223.417L359.343 223.282C358.835 222.022 358.53 221.274 358.53 221.274C357.668 218.895 357.103 216.419 356.847 213.901C356.828 213.703 356.813 213.501 356.798 213.303C357.058 213.194 357.302 213.051 357.526 212.88C357.526 212.88 355.798 195.367 357.526 193.504L357.556 193.471V193.448L357.586 193.411L357.653 193.325L357.735 193.22C357.828 193.097 357.94 192.943 358.067 192.756C359.056 191.305 360.899 187.991 360.369 184.078C360.347 183.909 360.319 183.738 360.287 183.566C360.084 182.505 359.722 181.481 359.212 180.528C359.138 180.132 359.092 179.731 359.074 179.328C359.074 179.1 359.074 178.849 359.074 178.58V178.535C359.074 178.462 359.074 178.39 359.074 178.318V178.265C359.074 178.09 359.104 177.891 359.13 177.727V177.659C359.13 177.592 359.141 177.524 359.164 177.454V177.368C359.164 177.3 359.194 177.233 359.209 177.166V177.095C359.231 177.005 359.253 176.915 359.283 176.825V176.78C359.306 176.706 359.33 176.632 359.358 176.56L359.391 176.474L359.466 176.294L359.503 176.204C359.533 176.137 359.567 176.07 359.6 176.002L359.626 175.946C359.671 175.864 359.718 175.783 359.768 175.703L359.809 175.64L359.932 175.464L359.992 175.385L360.123 175.228L360.182 175.161C360.25 175.09 360.317 175.019 360.391 174.951C362.432 173.081 371.54 159.297 371.54 159.297C371.54 159.297 373.737 156.196 373.737 154.184C373.86 154.139 377.744 141.16 377.352 137.213ZM352.903 253.076C352.679 250.951 352.455 248.318 352.25 245.595L355.802 251.145C355.802 251.145 355.466 252.836 352.903 253.076Z" fill="url(#paint3_linear)"/>
<path d="M315.869 251.901C315.869 251.901 313.742 248.535 310.548 251.598C307.355 254.661 305.079 264.851 305.079 264.851C305.079 264.851 303.862 273.08 307.966 270.944C307.966 270.944 312.817 264.088 314.197 263.785C315.578 263.482 317.085 259.67 317.085 259.67L315.869 251.901Z" fill="#493545"/>
<path d="M338.662 260.126C338.662 260.126 335.774 258.754 334.863 259.823C333.953 260.893 330.912 271.554 330.912 271.554C330.912 271.554 330.002 278.563 333.039 278.257C336.076 277.95 341.396 266.975 341.396 266.975L338.662 260.126Z" fill="#493545"/>
<path opacity="0.05" d="M338.662 260.126C338.662 260.126 335.774 258.754 334.863 259.823C333.953 260.893 330.912 271.554 330.912 271.554C330.912 271.554 330.002 278.563 333.039 278.257C336.076 277.95 341.396 266.975 341.396 266.975L338.662 260.126Z" fill="black"/>
<path d="M348.691 239.408L355.224 249.616C355.224 249.616 354.769 251.901 350.818 251.445L337.293 259.977C337.293 259.977 336.117 270.364 339.875 269.421C340.483 269.268 344.725 264.851 347.777 265.157L365.712 258.148C365.712 258.148 369.965 255.709 367.686 247.637C365.406 239.565 357.869 220.847 357.869 220.847L345.956 227.528L348.691 239.408Z" fill="#3E3D77"/>
<path opacity="0.05" d="M348.691 239.408L355.224 249.616C355.224 249.616 354.769 251.901 350.818 251.445L337.293 259.977C337.293 259.977 336.117 270.364 339.875 269.421C340.483 269.268 344.725 264.851 347.777 265.157L365.712 258.148C365.712 258.148 369.965 255.709 367.686 247.637C365.406 239.565 357.869 220.847 357.869 220.847L345.956 227.528L348.691 239.408Z" fill="black"/>
<path d="M352.795 254.489C353.705 260.28 348.541 260.736 348.541 260.736C348.541 260.736 325.29 261.192 322.555 260.583C319.82 259.973 316.171 261.649 316.171 261.649C311.459 258.754 315.261 251.594 315.261 251.594C315.261 251.594 324.987 251.291 327.267 250.846C329.547 250.401 341.094 249.769 341.094 249.769C341.094 249.769 340.184 244.132 334.102 229.813C329.972 220.088 332.983 214.365 335.36 211.698C335.966 210.99 336.668 210.371 337.445 209.858L356.138 210.77C356.118 211.715 356.153 212.661 356.242 213.602C356.562 216.833 357.4 219.99 358.723 222.953C357.66 222.953 350.821 229.353 350.821 229.353C350.821 229.353 351.881 248.703 352.795 254.489Z" fill="#3E3D77"/>
<path opacity="0.1" d="M316.626 252.204C316.626 252.204 326.353 251.901 328.633 251.456C330.912 251.011 342.46 250.39 342.46 250.39C342.46 250.39 341.55 244.753 335.468 230.434C331.338 220.709 334.349 214.986 336.725 212.319C337.332 211.611 338.034 210.992 338.811 210.479L356.13 211.324C356.13 211.144 356.13 210.95 356.13 210.782L337.438 209.869C336.661 210.382 335.959 211.002 335.352 211.709C332.987 214.38 329.965 220.099 334.095 229.825C340.191 244.132 341.094 249.769 341.094 249.769C341.094 249.769 329.528 250.379 327.267 250.835C325.006 251.291 315.261 251.583 315.261 251.583C315.261 251.583 311.463 258.746 316.171 261.652C316.171 261.652 316.313 261.585 316.544 261.488C313.414 258.26 316.626 252.204 316.626 252.204Z" fill="black"/>
<path d="M344.434 153.941H335.013V177.858H344.434V153.941Z" fill="#493545"/>
<path opacity="0.1" d="M344.434 153.941H335.013V177.858H344.434V153.941Z" fill="black"/>
<path d="M349.821 150.432C350.146 150.522 350.511 150.533 350.732 150.982C350.868 151.341 350.943 151.72 350.952 152.104L351.545 159.496C351.553 159.979 351.647 160.458 351.821 160.909C352.071 161.411 352.485 161.471 352.81 161.792C353.463 162.443 353.653 164.074 353.474 165.402C353.295 166.73 352.843 167.867 352.489 169.067C351.982 170.788 351.646 172.722 350.933 174.173C350.22 175.625 348.926 176.418 348.09 175.198C347.254 173.979 347.366 171.518 347.21 169.501C346.948 166.135 345.639 163.232 345.549 159.843C345.475 157.102 346.21 154.543 346.669 151.943C346.997 150.159 347.016 147.993 347.493 146.389C347.892 148.296 348.653 150.111 349.821 150.432Z" fill="#493545"/>
<path opacity="0.1" d="M349.821 150.432C350.146 150.522 350.511 150.533 350.732 150.982C350.868 151.341 350.943 151.72 350.952 152.104L351.545 159.496C351.553 159.979 351.647 160.458 351.821 160.909C352.071 161.411 352.485 161.471 352.81 161.792C353.463 162.443 353.653 164.074 353.474 165.402C353.295 166.73 352.843 167.867 352.489 169.067C351.982 170.788 351.646 172.722 350.933 174.173C350.22 175.625 348.926 176.418 348.09 175.198C347.254 173.979 347.366 171.518 347.21 169.501C346.948 166.135 345.639 163.232 345.549 159.843C345.475 157.102 346.21 154.543 346.669 151.943C346.997 150.159 347.016 147.993 347.493 146.389C347.892 148.296 348.653 150.111 349.821 150.432Z" fill="black"/>
<path d="M309.94 139.925L306.295 142.974C306.295 142.974 305.862 142.465 305.217 141.642C302.684 138.399 296.86 130.264 300.975 128.809C305.09 127.353 308.344 135.287 309.493 138.564C309.784 139.394 309.94 139.925 309.94 139.925Z" fill="#C77485"/>
<path d="M375.741 138.859C374.222 141.145 372.096 138.859 372.096 138.859C372.096 138.859 371.823 138.452 371.439 137.793C370.189 135.672 367.738 130.971 369.361 129.108C371.226 126.979 375.849 134.243 375.991 137.651C376.035 138.07 375.947 138.492 375.741 138.859V138.859Z" fill="#C77485"/>
<path d="M338.356 163.539C338.356 163.539 341.396 173.291 340.482 176.182C339.568 179.073 347.019 182.44 347.019 182.44H355.53C355.53 182.44 358.57 176.193 357.809 174.364C357.048 172.535 350.515 171.166 350.515 171.166C350.515 171.166 346.717 171.166 346.87 160.958L338.356 163.539Z" fill="#C77485"/>
<path opacity="0.1" d="M309.94 139.925L306.295 142.974C306.295 142.974 305.862 142.465 305.217 141.642C306.541 141.407 308.597 139.469 309.496 138.564C309.784 139.394 309.94 139.925 309.94 139.925Z" fill="black"/>
<path opacity="0.1" d="M375.74 138.859C374.222 141.145 372.095 138.859 372.095 138.859C372.095 138.859 371.823 138.451 371.438 137.793L371.487 137.64C372.472 138.347 375.535 137.745 375.99 137.64C376.037 138.062 375.949 138.489 375.74 138.859V138.859Z" fill="black"/>
<path opacity="0.1" d="M356.235 213.598C351.534 215.749 336.259 211.919 335.341 211.691C335.948 210.983 336.65 210.363 337.427 209.85L356.119 210.763C356.103 211.709 356.141 212.656 356.235 213.598V213.598Z" fill="black"/>
<path d="M340.333 171.918C340.333 171.918 336.688 173.137 331.52 168.413C331.52 168.413 319.954 156.986 319.208 154.244L310.254 138.534C310.254 138.534 306.455 142.648 304.933 142.039L314.962 159.559C314.962 159.559 316.787 162.926 318.458 163.823C318.458 163.823 330.92 179.821 331.069 183.02C331.218 186.218 336.684 194.783 336.684 194.783C336.684 194.783 338.509 208.646 335.315 211.085C335.315 211.085 353.093 215.656 356.891 212.607C356.891 212.607 355.22 195.401 356.891 193.564C356.891 193.564 362.059 187.471 358.563 180.768C358.563 180.768 357.817 177.113 359.779 175.284C361.742 173.455 370.569 159.896 370.569 159.896C370.569 159.896 372.696 156.847 372.696 154.869C372.696 154.869 376.647 141.463 376.054 137.958C376.054 137.958 372.558 138.706 371.495 137.958C371.495 137.958 366.327 153.668 365.719 154.259C365.111 154.85 360.869 167.209 355.235 168.581C349.601 169.954 348.702 170.56 348.702 170.56C348.702 170.56 359.641 177.416 354.324 180.461C349.008 183.506 340.333 171.918 340.333 171.918Z" fill="#FFAAC4"/>
<path opacity="0.1" d="M347.24 165.884C347.059 164.449 346.985 163.003 347.019 161.557L338.509 164.145C338.733 164.713 338.911 165.299 339.043 165.896C340.016 166.326 341.33 167.343 342.46 167.343C344.17 167.399 345.851 166.886 347.24 165.884V165.884Z" fill="black"/>
<path d="M342.307 166.891C346.671 166.891 350.209 163.344 350.209 158.968C350.209 154.593 346.671 151.046 342.307 151.046C337.943 151.046 334.405 154.593 334.405 158.968C334.405 163.344 337.943 166.891 342.307 166.891Z" fill="#C77485"/>
<path opacity="0.1" d="M332.905 146.763C331.166 146.898 329.226 148.102 329.323 149.849C329.375 150.81 330.032 151.622 330.319 152.542C331.01 154.768 329.472 157.001 328.122 158.901C326.771 160.801 325.51 163.318 326.667 165.331C326.996 165.815 327.353 166.281 327.734 166.726C329.163 168.66 329.144 171.271 329.778 173.593C330.588 176.565 332.503 179.113 335.129 180.713C337.755 182.313 340.892 182.844 343.897 182.197C342.766 180.749 342.202 178.937 342.311 177.102C342.397 175.77 342.826 174.379 342.311 173.148C341.647 171.566 339.699 170.941 338.696 169.557C337.692 168.173 337.759 166.255 338.244 164.605C338.729 162.955 339.569 161.426 339.972 159.742C340.071 159.251 340.196 158.766 340.345 158.287C341.046 156.29 343.143 155.13 345.195 154.633C347.247 154.135 349.404 154.105 351.407 153.451C353.411 152.796 355.358 151.263 355.59 149.157C353.903 149.834 352.34 148.068 350.713 147.257C348.034 145.925 344.979 147.178 342.218 147.485C339.072 147.836 336.088 146.531 332.905 146.763Z" fill="black"/>
<path d="M332.752 146.46C331.013 146.595 329.073 147.799 329.17 149.546C329.222 150.507 329.879 151.319 330.166 152.239C330.857 154.465 329.319 156.698 327.969 158.598C326.618 160.498 325.357 163.015 326.514 165.028C326.843 165.512 327.2 165.978 327.581 166.423C329.01 168.357 328.991 170.968 329.625 173.291C330.435 176.262 332.35 178.81 334.976 180.41C337.602 182.01 340.739 182.541 343.744 181.894C342.613 180.446 342.049 178.634 342.158 176.799C342.244 175.467 342.673 174.076 342.158 172.845C341.494 171.263 339.546 170.638 338.542 169.255C337.539 167.871 337.606 165.952 338.091 164.302C338.576 162.653 339.416 161.123 339.819 159.439C339.918 158.948 340.042 158.463 340.192 157.984C340.893 155.987 342.99 154.827 345.042 154.33C347.094 153.832 349.251 153.802 351.254 153.148C353.258 152.493 355.205 150.96 355.437 148.854C353.75 149.531 352.187 147.765 350.56 146.954C347.881 145.622 344.826 146.875 342.065 147.182C338.927 147.53 335.953 146.209 332.752 146.46Z" fill="#493545"/>
<path opacity="0.1" d="M350.135 176.567C350.135 176.567 353.299 179.399 353.922 180.648Z" fill="black"/>
<path opacity="0.1" d="M356.981 193.478C356.981 193.478 353.03 193.478 351.206 193.934C349.381 194.391 344.975 193.934 344.975 193.934" fill="black"/>
<g opacity="0.1">
<path opacity="0.1" d="M354.314 180.45C353.973 180.645 353.604 180.787 353.22 180.869C354.211 181.089 355.249 180.94 356.138 180.45C361.458 177.401 350.515 170.549 350.515 170.549H348.691C348.691 170.549 359.634 177.405 354.314 180.45Z" fill="black"/>
<path opacity="0.1" d="M376.08 138.223C376.08 138.126 376.058 138.033 376.043 137.947C375.418 138.076 374.786 138.173 374.151 138.235C374.792 138.305 375.44 138.301 376.08 138.223V138.223Z" fill="black"/>
<path opacity="0.1" d="M337.143 211.073C340.333 208.635 338.513 194.772 338.513 194.772C338.513 194.772 333.043 186.24 332.89 183.042C332.737 179.844 320.279 163.846 320.279 163.846C318.608 162.933 316.783 159.582 316.783 159.582C316.783 159.582 306.448 142.671 304.93 142.061L314.959 159.582C314.959 159.582 316.783 162.948 318.455 163.846C318.455 163.846 330.916 179.844 331.065 183.042C331.215 186.24 336.684 194.783 336.684 194.783C336.684 194.783 338.509 208.646 335.315 211.085C335.315 211.085 346.243 213.894 352.795 213.639C346.228 213.407 337.143 211.073 337.143 211.073Z" fill="black"/>
<path opacity="0.1" d="M340.423 172.037L340.333 171.922C340.229 171.952 340.123 171.976 340.016 171.993C340.158 172.011 340.292 172.026 340.423 172.037Z" fill="black"/>
</g>
<g opacity="0.1">
<path opacity="0.1" d="M376.043 137.928L375.95 137.947C375.79 142.626 372.551 153.619 372.551 153.619C372.551 155.598 370.424 158.647 370.424 158.647C370.424 158.647 361.612 172.206 359.634 174.035C357.657 175.864 358.418 179.519 358.418 179.519L358.437 179.556C358.377 178.325 358.526 176.418 359.783 175.251C361.757 173.421 370.574 159.862 370.574 159.862C370.574 159.862 372.7 156.814 372.7 154.835C372.7 154.857 376.651 141.451 376.043 137.928Z" fill="black"/>
<path opacity="0.1" d="M356.746 192.334C356.974 193.628 356.821 192.259 356.899 193.553C356.899 193.553 360.63 189.165 359.612 183.742C359.918 188.589 356.746 192.334 356.746 192.334Z" fill="black"/>
</g>
<path opacity="0.1" d="M241.652 346.558C329.777 346.558 401.216 339.679 401.216 331.192C401.216 322.706 329.777 315.826 241.652 315.826C153.527 315.826 82.0872 322.706 82.0872 331.192C82.0872 339.679 153.527 346.558 241.652 346.558Z" fill="#7854F7"/>
<path d="M179.799 315.602C179.799 315.602 174.367 297.105 180.818 283.493C183.561 277.801 184.389 271.369 183.176 265.165C182.577 262.224 181.71 259.344 180.586 256.562" stroke="#535461" stroke-width="2" stroke-miterlimit="10"/>
<path d="M184.608 247.966C184.608 250.233 180.504 256.805 180.504 256.805C180.504 256.805 176.4 250.233 176.4 247.966C176.358 247.402 176.433 246.835 176.62 246.301C176.806 245.767 177.101 245.277 177.485 244.862C177.869 244.448 178.335 244.117 178.852 243.891C179.37 243.664 179.928 243.548 180.493 243.548C181.057 243.548 181.615 243.664 182.133 243.891C182.65 244.117 183.116 244.448 183.5 244.862C183.884 245.277 184.179 245.767 184.365 246.301C184.552 246.835 184.627 247.402 184.585 247.966H184.608Z" fill="#7854F7"/>
<path d="M191.365 260.519C190.137 262.423 183.138 265.707 183.138 265.707C183.138 265.707 183.265 257.961 184.492 256.057C184.765 255.562 185.135 255.13 185.582 254.785C186.028 254.441 186.54 254.192 187.087 254.055C187.633 253.918 188.201 253.894 188.757 253.987C189.313 254.079 189.843 254.285 190.316 254.592C190.789 254.899 191.193 255.3 191.505 255.771C191.816 256.241 192.028 256.771 192.126 257.327C192.224 257.883 192.208 258.453 192.077 259.002C191.946 259.552 191.703 260.068 191.365 260.519V260.519Z" fill="#7854F7"/>
<path d="M191.07 281.978C189.052 283 181.37 282.293 181.37 282.293C181.37 282.293 185.38 275.668 187.399 274.647C187.883 274.356 188.421 274.168 188.981 274.095C189.541 274.021 190.109 274.065 190.652 274.222C191.194 274.379 191.698 274.647 192.132 275.008C192.567 275.369 192.922 275.817 193.176 276.322C193.43 276.827 193.578 277.379 193.609 277.944C193.641 278.509 193.556 279.075 193.36 279.605C193.163 280.136 192.86 280.62 192.469 281.028C192.077 281.435 191.606 281.758 191.085 281.975L191.07 281.978Z" fill="#7854F7"/>
<path d="M187.201 298.16C185.384 299.506 177.676 300.116 177.676 300.116C177.676 300.116 180.511 292.908 182.332 291.558C183.208 291.024 184.252 290.838 185.258 291.037C186.264 291.236 187.159 291.806 187.767 292.633C188.375 293.461 188.653 294.486 188.545 295.508C188.436 296.531 187.95 297.475 187.182 298.156L187.201 298.16Z" fill="#7854F7"/>
<path d="M174.534 266.149C176.157 267.727 183.713 269.365 183.713 269.365C183.713 269.365 181.847 261.843 180.239 260.261C179.864 259.839 179.406 259.5 178.894 259.263C178.382 259.027 177.827 258.898 177.264 258.886C176.7 258.874 176.14 258.979 175.619 259.193C175.097 259.408 174.625 259.728 174.233 260.133C173.84 260.538 173.535 261.021 173.336 261.549C173.137 262.078 173.049 262.642 173.077 263.207C173.106 263.771 173.25 264.324 173.5 264.83C173.751 265.336 174.103 265.785 174.534 266.149Z" fill="#7854F7"/>
<path d="M170.255 285.135C172.273 286.157 179.956 285.45 179.956 285.45C179.956 285.45 175.96 278.825 173.941 277.823C172.984 277.424 171.912 277.404 170.941 277.765C169.969 278.126 169.17 278.842 168.703 279.77C168.236 280.698 168.137 281.768 168.425 282.766C168.713 283.764 169.367 284.616 170.255 285.15V285.135Z" fill="#7854F7"/>
<path d="M168.613 304.16C170.43 305.506 178.139 306.116 178.139 306.116C178.139 306.116 175.303 298.908 173.482 297.558C173.056 297.179 172.555 296.894 172.012 296.72C171.47 296.546 170.897 296.488 170.33 296.548C169.764 296.608 169.216 296.786 168.721 297.07C168.227 297.355 167.797 297.739 167.459 298.199C167.121 298.658 166.883 299.184 166.758 299.741C166.634 300.299 166.627 300.876 166.737 301.436C166.847 301.997 167.073 302.528 167.399 302.996C167.725 303.464 168.145 303.859 168.632 304.156L168.613 304.16Z" fill="#7854F7"/>
<path opacity="0.1" d="M184.608 247.966C184.608 250.233 180.504 256.805 180.504 256.805C180.504 256.805 176.4 250.233 176.4 247.966C176.358 247.402 176.433 246.835 176.62 246.301C176.806 245.767 177.101 245.277 177.485 244.862C177.869 244.448 178.335 244.117 178.852 243.891C179.37 243.664 179.928 243.548 180.493 243.548C181.057 243.548 181.615 243.664 182.133 243.891C182.65 244.117 183.116 244.448 183.5 244.862C183.884 245.277 184.179 245.767 184.365 246.301C184.552 246.835 184.627 247.402 184.585 247.966H184.608Z" fill="#7854F7"/>
<path opacity="0.1" d="M191.365 260.519C190.137 262.423 183.138 265.707 183.138 265.707C183.138 265.707 183.265 257.961 184.492 256.057C184.765 255.562 185.135 255.13 185.582 254.785C186.028 254.441 186.54 254.192 187.087 254.055C187.633 253.918 188.201 253.894 188.757 253.987C189.313 254.079 189.843 254.285 190.316 254.592C190.789 254.899 191.193 255.3 191.505 255.771C191.816 256.241 192.028 256.771 192.126 257.327C192.224 257.883 192.208 258.453 192.077 259.002C191.946 259.552 191.703 260.068 191.365 260.519V260.519Z" fill="#7854F7"/>
<path opacity="0.1" d="M191.07 281.978C189.052 283 181.37 282.293 181.37 282.293C181.37 282.293 185.38 275.668 187.399 274.647C187.883 274.356 188.421 274.168 188.981 274.095C189.541 274.021 190.109 274.065 190.652 274.222C191.194 274.379 191.698 274.647 192.132 275.008C192.567 275.369 192.922 275.817 193.176 276.322C193.43 276.827 193.578 277.379 193.609 277.944C193.641 278.509 193.556 279.075 193.36 279.605C193.163 280.136 192.86 280.62 192.469 281.028C192.077 281.435 191.606 281.758 191.085 281.975L191.07 281.978Z" fill="#7854F7"/>
<path opacity="0.1" d="M187.201 298.16C185.384 299.506 177.676 300.116 177.676 300.116C177.676 300.116 180.511 292.908 182.332 291.558C183.208 291.024 184.252 290.838 185.258 291.037C186.264 291.236 187.159 291.806 187.767 292.633C188.375 293.461 188.653 294.486 188.545 295.508C188.436 296.531 187.95 297.475 187.182 298.156L187.201 298.16Z" fill="#7854F7"/>
<path opacity="0.1" d="M174.534 266.149C176.157 267.727 183.713 269.365 183.713 269.365C183.713 269.365 181.847 261.843 180.239 260.261C179.864 259.839 179.406 259.5 178.894 259.263C178.382 259.027 177.827 258.898 177.264 258.886C176.7 258.874 176.14 258.979 175.619 259.193C175.097 259.408 174.625 259.728 174.233 260.133C173.84 260.538 173.535 261.021 173.336 261.549C173.137 262.078 173.049 262.642 173.077 263.207C173.106 263.771 173.25 264.324 173.5 264.83C173.751 265.336 174.103 265.785 174.534 266.149Z" fill="#7854F7"/>
<path opacity="0.1" d="M170.255 285.135C172.273 286.157 179.956 285.45 179.956 285.45C179.956 285.45 175.96 278.825 173.941 277.823C172.984 277.424 171.912 277.404 170.941 277.765C169.969 278.126 169.17 278.842 168.703 279.77C168.236 280.698 168.137 281.768 168.425 282.766C168.713 283.764 169.367 284.616 170.255 285.15V285.135Z" fill="#7854F7"/>
<path opacity="0.1" d="M168.613 304.16C170.43 305.506 178.139 306.116 178.139 306.116C178.139 306.116 175.303 298.908 173.482 297.558C173.056 297.179 172.555 296.894 172.012 296.72C171.47 296.546 170.897 296.488 170.33 296.548C169.764 296.608 169.216 296.786 168.721 297.07C168.227 297.355 167.797 297.739 167.459 298.199C167.121 298.658 166.883 299.184 166.758 299.741C166.634 300.299 166.627 300.876 166.737 301.436C166.847 301.997 167.073 302.528 167.399 302.996C167.725 303.464 168.145 303.859 168.632 304.156L168.613 304.16Z" fill="#7854F7"/>
<path d="M289.729 315.867C289.729 315.867 284.297 297.371 290.748 283.759C293.491 278.066 294.319 271.635 293.106 265.43C292.507 262.489 291.64 259.61 290.517 256.827" stroke="#535461" stroke-width="2" stroke-miterlimit="10"/>
<path d="M294.531 248.228C294.531 250.495 290.427 257.067 290.427 257.067C290.427 257.067 286.323 250.495 286.323 248.228C286.4 247.192 286.864 246.223 287.623 245.517C288.382 244.81 289.38 244.417 290.416 244.417C291.452 244.417 292.45 244.81 293.209 245.517C293.968 246.223 294.433 247.192 294.509 248.228H294.531Z" fill="#7854F7"/>
<path d="M301.299 260.781C300.072 262.685 293.072 265.969 293.072 265.969C293.072 265.969 293.199 258.222 294.427 256.319C294.699 255.824 295.07 255.391 295.516 255.047C295.962 254.703 296.475 254.454 297.021 254.317C297.567 254.179 298.136 254.156 298.691 254.249C299.247 254.341 299.778 254.547 300.25 254.854C300.723 255.161 301.128 255.562 301.439 256.033C301.75 256.503 301.962 257.033 302.06 257.589C302.159 258.145 302.142 258.715 302.011 259.264C301.88 259.813 301.638 260.33 301.299 260.781V260.781Z" fill="#7854F7"/>
<path d="M301.016 282.24C298.997 283.261 291.315 282.554 291.315 282.554C291.315 282.554 295.326 275.93 297.344 274.909C297.829 274.615 298.369 274.425 298.93 274.35C299.491 274.275 300.062 274.318 300.606 274.475C301.15 274.632 301.656 274.901 302.092 275.264C302.527 275.626 302.883 276.075 303.137 276.583C303.391 277.09 303.538 277.645 303.568 278.212C303.598 278.778 303.51 279.345 303.311 279.877C303.112 280.408 302.805 280.892 302.41 281.299C302.015 281.706 301.54 282.026 301.016 282.24V282.24Z" fill="#7854F7"/>
<path d="M297.132 298.422C295.315 299.768 287.606 300.378 287.606 300.378C287.606 300.378 290.442 293.17 292.263 291.82C293.139 291.286 294.183 291.1 295.189 291.299C296.194 291.498 297.09 292.067 297.698 292.895C298.306 293.722 298.583 294.748 298.475 295.77C298.367 296.792 297.881 297.737 297.113 298.418L297.132 298.422Z" fill="#7854F7"/>
<path d="M284.472 266.41C286.095 267.989 293.651 269.627 293.651 269.627C293.651 269.627 291.785 262.105 290.177 260.523C289.802 260.101 289.344 259.762 288.832 259.525C288.32 259.289 287.765 259.16 287.202 259.148C286.638 259.136 286.078 259.241 285.557 259.455C285.035 259.67 284.564 259.99 284.171 260.395C283.778 260.8 283.473 261.282 283.274 261.811C283.075 262.34 282.987 262.904 283.016 263.469C283.044 264.033 283.188 264.585 283.439 265.091C283.689 265.598 284.041 266.047 284.472 266.41V266.41Z" fill="#7854F7"/>
<path d="M280.185 285.397C282.204 286.418 289.886 285.711 289.886 285.711C289.886 285.711 285.875 279.087 283.857 278.066C282.9 277.667 281.828 277.647 280.856 278.008C279.885 278.369 279.085 279.085 278.619 280.013C278.152 280.941 278.053 282.011 278.34 283.009C278.628 284.007 279.282 284.859 280.17 285.393L280.185 285.397Z" fill="#7854F7"/>
<path d="M278.548 304.421C280.365 305.768 288.073 306.378 288.073 306.378C288.073 306.378 285.238 299.17 283.417 297.819C282.541 297.286 281.497 297.1 280.491 297.299C279.485 297.498 278.59 298.067 277.982 298.895C277.373 299.722 277.096 300.748 277.204 301.77C277.313 302.792 277.798 303.737 278.566 304.418L278.548 304.421Z" fill="#7854F7"/>
<path opacity="0.1" d="M294.531 248.228C294.531 250.495 290.427 257.067 290.427 257.067C290.427 257.067 286.323 250.495 286.323 248.228C286.4 247.192 286.864 246.223 287.623 245.517C288.382 244.81 289.38 244.417 290.416 244.417C291.452 244.417 292.45 244.81 293.209 245.517C293.968 246.223 294.433 247.192 294.509 248.228H294.531Z" fill="#7854F7"/>
<path opacity="0.1" d="M301.299 260.781C300.072 262.685 293.072 265.969 293.072 265.969C293.072 265.969 293.199 258.222 294.427 256.319C294.699 255.824 295.07 255.391 295.516 255.047C295.962 254.703 296.475 254.454 297.021 254.317C297.567 254.179 298.136 254.156 298.691 254.249C299.247 254.341 299.778 254.547 300.25 254.854C300.723 255.161 301.128 255.562 301.439 256.033C301.75 256.503 301.962 257.033 302.06 257.589C302.159 258.145 302.142 258.715 302.011 259.264C301.88 259.813 301.638 260.33 301.299 260.781V260.781Z" fill="#7854F7"/>
<path opacity="0.1" d="M301.016 282.24C298.997 283.261 291.315 282.554 291.315 282.554C291.315 282.554 295.326 275.93 297.344 274.909C297.829 274.615 298.369 274.425 298.93 274.35C299.491 274.275 300.062 274.318 300.606 274.475C301.15 274.632 301.656 274.901 302.092 275.264C302.527 275.626 302.883 276.075 303.137 276.583C303.391 277.09 303.538 277.645 303.568 278.212C303.598 278.778 303.51 279.345 303.311 279.877C303.112 280.408 302.805 280.892 302.41 281.299C302.015 281.706 301.54 282.026 301.016 282.24V282.24Z" fill="#7854F7"/>
<path opacity="0.1" d="M297.132 298.422C295.315 299.768 287.606 300.378 287.606 300.378C287.606 300.378 290.442 293.17 292.263 291.82C293.139 291.286 294.183 291.1 295.189 291.299C296.194 291.498 297.09 292.067 297.698 292.895C298.306 293.722 298.583 294.748 298.475 295.77C298.367 296.792 297.881 297.737 297.113 298.418L297.132 298.422Z" fill="#7854F7"/>
<path opacity="0.1" d="M284.472 266.41C286.095 267.989 293.651 269.627 293.651 269.627C293.651 269.627 291.785 262.105 290.177 260.523C289.802 260.101 289.344 259.762 288.832 259.525C288.32 259.289 287.765 259.16 287.202 259.148C286.638 259.136 286.078 259.241 285.557 259.455C285.035 259.67 284.564 259.99 284.171 260.395C283.778 260.8 283.473 261.282 283.274 261.811C283.075 262.34 282.987 262.904 283.016 263.469C283.044 264.033 283.188 264.585 283.439 265.091C283.689 265.598 284.041 266.047 284.472 266.41V266.41Z" fill="#7854F7"/>
<path opacity="0.1" d="M280.185 285.397C282.204 286.418 289.886 285.711 289.886 285.711C289.886 285.711 285.875 279.087 283.857 278.066C282.9 277.667 281.828 277.647 280.856 278.008C279.885 278.369 279.085 279.085 278.619 280.013C278.152 280.941 278.053 282.011 278.34 283.009C278.628 284.007 279.282 284.859 280.17 285.393L280.185 285.397Z" fill="#7854F7"/>
<path opacity="0.1" d="M278.548 304.421C280.365 305.768 288.073 306.378 288.073 306.378C288.073 306.378 285.238 299.17 283.417 297.819C282.541 297.286 281.497 297.1 280.491 297.299C279.485 297.498 278.59 298.067 277.982 298.895C277.373 299.722 277.096 300.748 277.204 301.77C277.313 302.792 277.798 303.737 278.566 304.418L278.548 304.421Z" fill="#7854F7"/>
<path opacity="0.5" d="M316.313 104.843H313.97C314.192 104.854 314.414 104.819 314.622 104.741C314.83 104.663 315.02 104.544 315.181 104.39C315.342 104.237 315.47 104.052 315.557 103.847C315.645 103.642 315.69 103.422 315.69 103.199C315.69 102.976 315.645 102.756 315.557 102.551C315.47 102.346 315.342 102.162 315.181 102.008C315.02 101.854 314.83 101.735 314.622 101.657C314.414 101.579 314.192 101.544 313.97 101.555H294.972C294.55 101.575 294.153 101.757 293.862 102.063C293.571 102.369 293.408 102.776 293.408 103.199C293.408 103.622 293.571 104.029 293.862 104.335C294.153 104.641 294.55 104.823 294.972 104.843H297.315C296.894 104.863 296.496 105.045 296.205 105.351C295.914 105.657 295.751 106.064 295.751 106.487C295.751 106.91 295.914 107.317 296.205 107.623C296.496 107.929 296.894 108.111 297.315 108.131H294.035C293.813 108.12 293.592 108.155 293.383 108.233C293.175 108.311 292.985 108.43 292.824 108.584C292.663 108.737 292.535 108.922 292.448 109.127C292.361 109.332 292.315 109.552 292.315 109.775C292.315 109.998 292.361 110.218 292.448 110.423C292.535 110.628 292.663 110.812 292.824 110.966C292.985 111.12 293.175 111.239 293.383 111.317C293.592 111.395 293.813 111.429 294.035 111.419H313.019C313.241 111.429 313.462 111.395 313.671 111.317C313.879 111.239 314.069 111.12 314.23 110.966C314.391 110.812 314.519 110.628 314.606 110.423C314.694 110.218 314.739 109.998 314.739 109.775C314.739 109.552 314.694 109.332 314.606 109.127C314.519 108.922 314.391 108.737 314.23 108.584C314.069 108.43 313.879 108.311 313.671 108.233C313.462 108.155 313.241 108.12 313.019 108.131H316.313C316.735 108.111 317.132 107.929 317.423 107.623C317.714 107.317 317.877 106.91 317.877 106.487C317.877 106.064 317.714 105.657 317.423 105.351C317.132 105.045 316.735 104.863 316.313 104.843Z" fill="#DEE3F3"/>
<path opacity="0.5" d="M206.539 114.434H204.755C204.925 114.443 205.095 114.418 205.254 114.359C205.414 114.3 205.56 114.21 205.683 114.092C205.806 113.975 205.905 113.834 205.972 113.678C206.039 113.521 206.074 113.353 206.074 113.183C206.074 113.012 206.039 112.844 205.972 112.687C205.905 112.531 205.806 112.39 205.683 112.273C205.56 112.155 205.414 112.065 205.254 112.006C205.095 111.947 204.925 111.922 204.755 111.931H190.309C189.99 111.949 189.689 112.088 189.47 112.321C189.25 112.554 189.127 112.862 189.127 113.183C189.127 113.503 189.25 113.811 189.47 114.044C189.689 114.277 189.99 114.416 190.309 114.434H192.092C191.923 114.424 191.753 114.45 191.593 114.509C191.434 114.567 191.288 114.658 191.165 114.775C191.041 114.892 190.943 115.033 190.876 115.19C190.809 115.346 190.774 115.515 190.774 115.685C190.774 115.855 190.809 116.024 190.876 116.18C190.943 116.337 191.041 116.478 191.165 116.595C191.288 116.712 191.434 116.803 191.593 116.861C191.753 116.92 191.923 116.945 192.092 116.936H189.596C189.427 116.927 189.257 116.952 189.097 117.011C188.938 117.07 188.792 117.16 188.669 117.277C188.545 117.394 188.447 117.536 188.38 117.692C188.313 117.848 188.278 118.017 188.278 118.187C188.278 118.358 188.313 118.526 188.38 118.683C188.447 118.839 188.545 118.98 188.669 119.097C188.792 119.214 188.938 119.305 189.097 119.364C189.257 119.422 189.427 119.448 189.596 119.439H204.043C204.212 119.448 204.382 119.422 204.542 119.364C204.701 119.305 204.847 119.214 204.97 119.097C205.094 118.98 205.192 118.839 205.259 118.683C205.326 118.526 205.361 118.358 205.361 118.187C205.361 118.017 205.326 117.848 205.259 117.692C205.192 117.536 205.094 117.394 204.97 117.277C204.847 117.16 204.701 117.07 204.542 117.011C204.382 116.952 204.212 116.927 204.043 116.936H206.539C206.858 116.919 207.158 116.779 207.378 116.546C207.598 116.314 207.72 116.005 207.72 115.685C207.72 115.364 207.598 115.056 207.378 114.823C207.158 114.591 206.858 114.451 206.539 114.434V114.434Z" fill="#DEE3F3"/>
<path d="M85.2809 291.663C85.2809 291.663 91.8102 304.511 86.4898 311.54C81.1693 318.568 86.9748 337.723 86.9748 337.723" stroke="#7854F7" stroke-miterlimit="10"/>
<path d="M87.2286 287.645C87.2286 290.121 85.4153 292.134 85.4153 292.134C85.4153 292.134 83.6021 290.125 83.6021 287.645C83.6021 285.165 85.4153 283.157 85.4153 283.157C85.4153 283.157 87.2286 285.169 87.2286 287.645Z" fill="#7854F7"/>
<path d="M88.6651 291.663C88.6651 291.663 82.1358 304.511 87.4562 311.54C92.7767 318.568 86.9712 337.723 86.9712 337.723" stroke="#7854F7" stroke-miterlimit="10"/>
<path d="M86.7322 287.645C86.7322 290.121 88.5455 292.134 88.5455 292.134C88.5455 292.134 90.3587 290.125 90.3587 287.645C90.3587 285.165 88.5455 283.157 88.5455 283.157C88.5455 283.157 86.7322 285.169 86.7322 287.645Z" fill="#7854F7"/>
<path opacity="0.1" d="M86.7322 287.645C86.7322 290.121 88.5455 292.134 88.5455 292.134C88.5455 292.134 90.3587 290.125 90.3587 287.645C90.3587 285.165 88.5455 283.157 88.5455 283.157C88.5455 283.157 86.7322 285.169 86.7322 287.645Z" fill="black"/>
<path d="M91.3329 291.663C91.3329 291.663 97.8622 304.511 92.5418 311.54C87.2213 318.568 93.0268 337.723 93.0268 337.723" stroke="#7854F7" stroke-miterlimit="10"/>
<path d="M93.2618 287.645C93.2618 290.121 91.4485 292.134 91.4485 292.134C91.4485 292.134 89.6353 290.125 89.6353 287.645C89.6353 285.165 91.4485 283.157 91.4485 283.157C91.4485 283.157 93.2618 285.169 93.2618 287.645Z" fill="#7854F7"/>
<path d="M92.2431 297.939C90.5305 299.723 87.833 299.91 87.833 299.91C87.833 299.91 87.9151 297.202 89.6276 295.422C91.3402 293.641 94.0377 293.451 94.0377 293.451C94.0377 293.451 93.9444 296.151 92.2431 297.939Z" fill="#7854F7"/>
<path d="M92.4145 306.804C90.7019 308.588 88.0044 308.775 88.0044 308.775C88.0044 308.775 88.0865 306.067 89.799 304.287C91.5116 302.506 94.2091 302.315 94.2091 302.315C94.2091 302.315 94.127 305.016 92.4145 306.804Z" fill="#7854F7"/>
<path d="M83.1244 311.678C84.7436 313.548 84.6877 316.256 84.6877 316.256C84.6877 316.256 82.0051 315.931 80.3858 314.061C78.7665 312.19 78.8225 309.482 78.8225 309.482C78.8225 309.482 81.5051 309.808 83.1244 311.678Z" fill="#7854F7"/>
<path d="M84.6169 292.785C86.6764 294.154 87.3443 296.78 87.3443 296.78C87.3443 296.78 84.6729 297.187 82.6134 295.818C80.5538 294.449 79.886 291.823 79.886 291.823C79.886 291.823 82.5686 291.408 84.6169 292.785Z" fill="#7854F7"/>
<path opacity="0.1" d="M84.6169 292.785C86.6764 294.154 87.3443 296.78 87.3443 296.78C87.3443 296.78 84.6729 297.187 82.6134 295.818C80.5538 294.449 79.886 291.823 79.886 291.823C79.886 291.823 82.5686 291.408 84.6169 292.785Z" fill="black"/>
<path d="M94.7093 291.663C94.7093 291.663 88.18 304.511 93.5004 311.54C98.8209 318.568 93.0154 337.723 93.0154 337.723" stroke="#7854F7" stroke-miterlimit="10"/>
<path d="M92.7766 287.645C92.7766 290.121 94.5899 292.134 94.5899 292.134C94.5899 292.134 96.4032 290.125 96.4032 287.645C96.4032 285.165 94.5899 283.157 94.5899 283.157C94.5899 283.157 92.7766 285.169 92.7766 287.645Z" fill="#7854F7"/>
<path opacity="0.1" d="M92.7766 287.645C92.7766 290.121 94.5899 292.134 94.5899 292.134C94.5899 292.134 96.4032 290.125 96.4032 287.645C96.4032 285.165 94.5899 283.157 94.5899 283.157C94.5899 283.157 92.7766 285.169 92.7766 287.645Z" fill="black"/>
<path d="M93.2989 298.13C91.5639 299.895 91.4333 302.618 91.4333 302.618C91.4333 302.618 94.1309 302.465 95.8658 300.7C97.6007 298.934 97.7313 296.211 97.7313 296.211C97.7313 296.211 95.0338 296.364 93.2989 298.13Z" fill="#7854F7"/>
<path opacity="0.1" d="M93.2989 298.13C91.5639 299.895 91.4333 302.618 91.4333 302.618C91.4333 302.618 94.1309 302.465 95.8658 300.7C97.6007 298.934 97.7313 296.211 97.7313 296.211C97.7313 296.211 95.0338 296.364 93.2989 298.13Z" fill="black"/>
<path d="M96.6975 310.402C94.9626 312.168 94.832 314.891 94.832 314.891C94.832 314.891 97.5296 314.738 99.2645 312.972C100.999 311.207 101.13 308.484 101.13 308.484C101.13 308.484 98.4213 308.637 96.6975 310.402Z" fill="#7854F7"/>
<path d="M91.7056 307.706C91.7056 307.706 95.6343 301.496 101.153 301.347" stroke="#7854F7" stroke-miterlimit="10"/>
<path d="M88.6352 303.954C88.6352 303.954 84.7064 297.745 79.1882 297.595" stroke="#7854F7" stroke-miterlimit="10"/>
<path d="M88.124 312.819C88.124 312.819 92.0528 306.61 97.571 306.46" stroke="#7854F7" stroke-miterlimit="10"/>
<path d="M100.962 302.334C101.525 302.334 101.981 301.877 101.981 301.313C101.981 300.749 101.525 300.292 100.962 300.292C100.4 300.292 99.9436 300.749 99.9436 301.313C99.9436 301.877 100.4 302.334 100.962 302.334Z" fill="#7854F7"/>
<path d="M79.2852 298.669C79.8477 298.669 80.3037 298.211 80.3037 297.647C80.3037 297.083 79.8477 296.626 79.2852 296.626C78.7226 296.626 78.2666 297.083 78.2666 297.647C78.2666 298.211 78.7226 298.669 79.2852 298.669Z" fill="#7854F7"/>
<path d="M91.0153 314.854C91.0153 314.854 87.0865 308.644 81.5684 308.495" stroke="#7854F7" stroke-miterlimit="10"/>
<path d="M81.6655 309.576C82.2281 309.576 82.6841 309.119 82.6841 308.555C82.6841 307.991 82.2281 307.534 81.6655 307.534C81.103 307.534 80.647 307.991 80.647 308.555C80.647 309.119 81.103 309.576 81.6655 309.576Z" fill="#7854F7"/>
<path d="M97.6455 307.534C98.2081 307.534 98.6641 307.076 98.6641 306.512C98.6641 305.948 98.2081 305.491 97.6455 305.491C97.083 305.491 96.627 305.948 96.627 306.512C96.627 307.076 97.083 307.534 97.6455 307.534Z" fill="#7854F7"/>
<path d="M112.741 330.246C112.741 330.246 103.272 328.346 100.742 325.813C98.2128 323.281 86.8556 318.852 85.5908 322.017C84.3259 325.181 68.5437 335.943 79.2779 337.843C90.012 339.743 104.533 340.375 107.69 339.107C110.846 337.839 112.741 330.246 112.741 330.246Z" fill="#A8A8A8"/>
<path opacity="0.2" d="M79.2777 336.665C90.0118 338.565 104.533 339.197 107.689 337.929C110.092 336.964 111.764 332.318 112.424 330.178L112.741 330.246C112.741 330.246 110.846 337.843 107.689 339.107C104.533 340.371 90.0118 339.739 79.2777 337.843C76.181 337.293 75.293 336.006 75.6288 334.379C75.8899 335.426 76.9719 336.257 79.2777 336.665Z" fill="black"/>
<path d="M400.235 294.573C400.235 294.573 403.361 298.687 398.791 304.859C394.22 311.031 390.452 316.271 391.978 320.131C391.978 320.131 398.873 308.637 404.484 308.476C410.096 308.315 406.41 301.481 400.235 294.573Z" fill="#7854F7"/>
<path opacity="0.1" d="M400.235 294.573C400.507 294.969 400.722 295.402 400.873 295.859C406.35 302.308 409.264 308.326 404.003 308.48C399.1 308.622 393.22 317.408 391.81 319.63C391.857 319.802 391.913 319.97 391.978 320.135C391.978 320.135 398.873 308.641 404.484 308.48C410.096 308.319 406.41 301.481 400.235 294.573Z" fill="black"/>
<path d="M406.048 299.794C406.048 301.238 405.887 302.413 405.675 302.413C405.462 302.413 405.302 301.242 405.302 299.794C405.302 298.347 405.503 299.046 405.701 299.046C405.898 299.046 406.048 298.354 406.048 299.794Z" fill="#FFD037"/>
<path d="M408.044 301.519C406.779 302.211 405.678 302.641 405.585 302.45C405.492 302.259 406.436 301.571 407.7 300.883C408.965 300.195 408.465 300.696 408.562 300.883C408.659 301.07 409.305 300.827 408.044 301.519Z" fill="#FFD037"/>
<path d="M383.721 294.573C383.721 294.573 380.595 298.687 385.165 304.859C389.736 311.031 393.504 316.271 391.978 320.131C391.978 320.131 385.083 308.637 379.472 308.476C373.86 308.315 377.546 301.481 383.721 294.573Z" fill="#7854F7"/>
<path opacity="0.1" d="M383.721 294.573C383.449 294.969 383.234 295.402 383.083 295.859C377.606 302.308 374.692 308.326 379.953 308.48C384.855 308.622 390.736 317.408 392.146 319.63C392.099 319.802 392.043 319.97 391.978 320.135C391.978 320.135 385.083 308.641 379.472 308.48C373.86 308.319 377.546 301.481 383.721 294.573Z" fill="black"/>
<path d="M377.908 299.794C377.908 301.238 378.069 302.413 378.281 302.413C378.494 302.413 378.654 301.242 378.654 299.794C378.654 298.347 378.453 299.046 378.255 299.046C378.057 299.046 377.908 298.354 377.908 299.794Z" fill="#FFD037"/>
<path d="M375.912 301.519C377.177 302.211 378.278 302.641 378.371 302.45C378.464 302.259 377.52 301.571 376.255 300.883C374.991 300.195 375.491 300.696 375.394 300.883C375.297 301.07 374.647 300.827 375.912 301.519Z" fill="#FFD037"/>
<path d="M378.905 319.593C378.905 319.593 387.646 319.324 390.28 317.442C392.915 315.561 403.712 313.328 404.38 316.32C405.048 319.312 417.517 331.323 407.648 331.402C397.78 331.48 384.717 329.861 382.087 328.256C379.457 326.651 378.905 319.593 378.905 319.593Z" fill="#A8A8A8"/>
<path opacity="0.2" d="M407.824 330.366C397.955 330.444 384.893 328.824 382.262 327.22C380.259 325.997 379.46 321.609 379.196 319.585H378.905C378.905 319.585 379.457 326.655 382.087 328.26C384.717 329.864 397.78 331.488 407.648 331.405C410.499 331.383 411.48 330.366 411.428 328.862C411.032 329.778 409.962 330.347 407.824 330.366Z" fill="black"/>
<path opacity="0.5" d="M132.725 127.036H130.382C130.603 127.046 130.825 127.011 131.033 126.934C131.242 126.856 131.432 126.736 131.593 126.583C131.753 126.429 131.881 126.244 131.969 126.039C132.056 125.835 132.101 125.614 132.101 125.392C132.101 125.169 132.056 124.948 131.969 124.744C131.881 124.539 131.753 124.354 131.593 124.2C131.432 124.047 131.242 123.927 131.033 123.849C130.825 123.772 130.603 123.737 130.382 123.748H111.398C110.977 123.768 110.579 123.95 110.288 124.256C109.997 124.562 109.835 124.969 109.835 125.392C109.835 125.814 109.997 126.221 110.288 126.527C110.579 126.833 110.977 127.015 111.398 127.036H113.741C113.32 127.056 112.922 127.238 112.631 127.544C112.34 127.85 112.178 128.257 112.178 128.679C112.178 129.102 112.34 129.509 112.631 129.815C112.922 130.121 113.32 130.303 113.741 130.323H110.462C110.04 130.344 109.643 130.526 109.352 130.832C109.061 131.138 108.898 131.544 108.898 131.967C108.898 132.39 109.061 132.797 109.352 133.103C109.643 133.409 110.04 133.591 110.462 133.611H129.445C129.667 133.622 129.889 133.587 130.097 133.509C130.305 133.432 130.495 133.312 130.656 133.159C130.817 133.005 130.945 132.82 131.032 132.615C131.12 132.411 131.165 132.19 131.165 131.967C131.165 131.745 131.12 131.524 131.032 131.319C130.945 131.115 130.817 130.93 130.656 130.776C130.495 130.622 130.305 130.503 130.097 130.425C129.889 130.347 129.667 130.313 129.445 130.323H132.725C133.146 130.303 133.543 130.121 133.835 129.815C134.126 129.509 134.288 129.102 134.288 128.679C134.288 128.257 134.126 127.85 133.835 127.544C133.543 127.238 133.146 127.056 132.725 127.036V127.036Z" fill="#DEE3F3"/>
</g>
<defs>
<filter id="filter0_d" x="0" y="0" width="468" height="469.767" filterUnits="userSpaceOnUse" color-interpolation-filters="sRGB">
<feFlood flood-opacity="0" result="BackgroundImageFix"/>
<feColorMatrix in="SourceAlpha" type="matrix" values="0 0 0 0 0 0 0 0 0 0 0 0 0 0 0 0 0 0 127 0"/>
<feOffset dx="-10" dy="20"/>
<feGaussianBlur stdDeviation="22"/>
<feColorMatrix type="matrix" values="0 0 0 0 0.329749 0 0 0 0 0.188108 0 0 0 0 0.820833 0 0 0 0.4 0"/>
<feBlend mode="normal" in2="BackgroundImageFix" result="effect1_dropShadow"/>
<feBlend mode="normal" in="SourceGraphic" in2="effect1_dropShadow" result="shape"/>
</filter>
<linearGradient id="paint0_linear" x1="238.185" y1="302.51" x2="238.185" y2="147.653" gradientUnits="userSpaceOnUse">
<stop stop-color="#808080" stop-opacity="0.25"/>
<stop offset="0.54" stop-color="#808080" stop-opacity="0.12"/>
<stop offset="1" stop-color="#808080" stop-opacity="0.1"/>
</linearGradient>
<linearGradient id="paint1_linear" x1="209.223" y1="276.171" x2="209.223" y2="276.153" gradientUnits="userSpaceOnUse">
<stop stop-color="#808080" stop-opacity="0.25"/>
<stop offset="0.54" stop-color="#808080" stop-opacity="0.12"/>
<stop offset="1" stop-color="#808080" stop-opacity="0.1"/>
</linearGradient>
<linearGradient id="paint2_linear" x1="24092.5" y1="75731.7" x2="24092.5" y2="34008.8" gradientUnits="userSpaceOnUse">
<stop stop-color="#808080" stop-opacity="0.25"/>
<stop offset="0.54" stop-color="#808080" stop-opacity="0.12"/>
<stop offset="1" stop-color="#808080" stop-opacity="0.1"/>
</linearGradient>
<linearGradient id="paint3_linear" x1="67747.8" y1="91780.4" x2="67747.8" y2="29815.7" gradientUnits="userSpaceOnUse">
<stop stop-color="#808080" stop-opacity="0.25"/>
<stop offset="0.54" stop-color="#808080" stop-opacity="0.12"/>
<stop offset="1" stop-color="#808080" stop-opacity="0.1"/>
</linearGradient>
<clipPath id="clip0">
<rect width="354.372" height="247.442" fill="white" transform="translate(66.3721 99.1163)"/>
</clipPath>
</defs>
</svg>
