<svg width="788" height="1117" viewBox="0 0 788 1117" fill="none" xmlns="http://www.w3.org/2000/svg">
<rect width="788" height="1117" fill="#5F37EF"/>
<circle cx="522.445" cy="133.229" r="1.13851" transform="rotate(-90 522.445 133.229)" fill="#70C217"/>
<circle cx="522.445" cy="116.531" r="1.13851" transform="rotate(-90 522.445 116.531)" fill="#70C217"/>
<circle cx="522.445" cy="99.8332" r="1.13851" transform="rotate(-90 522.445 99.8332)" fill="#70C217"/>
<circle cx="522.445" cy="83.1354" r="1.13851" transform="rotate(-90 522.445 83.1354)" fill="#70C217"/>
<circle cx="522.445" cy="66.4362" r="1.13851" transform="rotate(-90 522.445 66.4362)" fill="#70C217"/>
<circle cx="539.142" cy="133.23" r="1.13851" transform="rotate(-90 539.142 133.23)" fill="#70C217"/>
<circle cx="539.142" cy="116.531" r="1.13851" transform="rotate(-90 539.142 116.531)" fill="#70C217"/>
<circle cx="539.142" cy="99.8332" r="1.13851" transform="rotate(-90 539.142 99.8332)" fill="#70C217"/>
<circle cx="539.142" cy="83.1354" r="1.13851" transform="rotate(-90 539.142 83.1354)" fill="#70C217"/>
<circle cx="539.142" cy="66.4362" r="1.13851" transform="rotate(-90 539.142 66.4362)" fill="#70C217"/>
<circle cx="555.842" cy="133.23" r="1.13851" transform="rotate(-90 555.842 133.23)" fill="#70C217"/>
<circle cx="555.842" cy="116.531" r="1.13851" transform="rotate(-90 555.842 116.531)" fill="#70C217"/>
<circle cx="555.842" cy="99.8332" r="1.13851" transform="rotate(-90 555.842 99.8332)" fill="#70C217"/>
<circle cx="555.842" cy="83.1354" r="1.13851" transform="rotate(-90 555.842 83.1354)" fill="#70C217"/>
<circle cx="555.842" cy="66.4362" r="1.13851" transform="rotate(-90 555.842 66.4362)" fill="#70C217"/>
<circle cx="572.54" cy="133.23" r="1.13851" transform="rotate(-90 572.54 133.23)" fill="#70C217"/>
<circle cx="572.54" cy="116.531" r="1.13851" transform="rotate(-90 572.54 116.531)" fill="#70C217"/>
<circle cx="572.54" cy="99.8332" r="1.13851" transform="rotate(-90 572.54 99.8332)" fill="#70C217"/>
<circle cx="572.54" cy="83.1354" r="1.13851" transform="rotate(-90 572.54 83.1354)" fill="#70C217"/>
<circle cx="572.54" cy="66.4362" r="1.13851" transform="rotate(-90 572.54 66.4362)" fill="#70C217"/>
<circle cx="589.237" cy="133.23" r="1.13851" transform="rotate(-90 589.237 133.23)" fill="#70C217"/>
<circle cx="589.237" cy="116.531" r="1.13851" transform="rotate(-90 589.237 116.531)" fill="#70C217"/>
<circle cx="589.237" cy="99.8332" r="1.13851" transform="rotate(-90 589.237 99.8332)" fill="#70C217"/>
<circle cx="589.237" cy="83.1354" r="1.13851" transform="rotate(-90 589.237 83.1354)" fill="#70C217"/>
<circle cx="589.237" cy="66.4362" r="1.13851" transform="rotate(-90 589.237 66.4362)" fill="#70C217"/>
<circle cx="605.934" cy="133.23" r="1.13851" transform="rotate(-90 605.934 133.23)" fill="#70C217"/>
<circle cx="605.934" cy="116.531" r="1.13851" transform="rotate(-90 605.934 116.531)" fill="#70C217"/>
<circle cx="605.934" cy="99.8332" r="1.13851" transform="rotate(-90 605.934 99.8332)" fill="#70C217"/>
<circle cx="605.934" cy="83.1354" r="1.13851" transform="rotate(-90 605.934 83.1354)" fill="#70C217"/>
<circle cx="605.934" cy="66.4362" r="1.13851" transform="rotate(-90 605.934 66.4362)" fill="#70C217"/>
<circle cx="622.634" cy="133.23" r="1.13851" transform="rotate(-90 622.634 133.23)" fill="#70C217"/>
<circle cx="622.634" cy="116.531" r="1.13851" transform="rotate(-90 622.634 116.531)" fill="#70C217"/>
<circle cx="622.634" cy="99.8332" r="1.13851" transform="rotate(-90 622.634 99.8332)" fill="#70C217"/>
<circle cx="622.634" cy="83.1354" r="1.13851" transform="rotate(-90 622.634 83.1354)" fill="#70C217"/>
<circle cx="622.634" cy="66.4362" r="1.13851" transform="rotate(-90 622.634 66.4362)" fill="#70C217"/>
<circle cx="639.331" cy="133.23" r="1.13851" transform="rotate(-90 639.331 133.23)" fill="#70C217"/>
<circle cx="639.331" cy="116.531" r="1.13851" transform="rotate(-90 639.331 116.531)" fill="#70C217"/>
<circle cx="639.331" cy="99.8332" r="1.13851" transform="rotate(-90 639.331 99.8332)" fill="#70C217"/>
<circle cx="639.331" cy="83.1354" r="1.13851" transform="rotate(-90 639.331 83.1354)" fill="#70C217"/>
<circle cx="639.331" cy="66.4367" r="1.13851" transform="rotate(-90 639.331 66.4367)" fill="#70C217"/>
<circle cx="656.029" cy="133.23" r="1.13851" transform="rotate(-90 656.029 133.23)" fill="#70C217"/>
<circle cx="656.029" cy="116.531" r="1.13851" transform="rotate(-90 656.029 116.531)" fill="#70C217"/>
<circle cx="656.029" cy="99.8332" r="1.13851" transform="rotate(-90 656.029 99.8332)" fill="#70C217"/>
<circle cx="656.029" cy="83.1354" r="1.13851" transform="rotate(-90 656.029 83.1354)" fill="#70C217"/>
<circle cx="656.029" cy="66.4367" r="1.13851" transform="rotate(-90 656.029 66.4367)" fill="#70C217"/>
<circle cx="672.729" cy="133.23" r="1.13851" transform="rotate(-90 672.729 133.23)" fill="#70C217"/>
<circle cx="672.729" cy="116.531" r="1.13851" transform="rotate(-90 672.729 116.531)" fill="#70C217"/>
<circle cx="672.729" cy="99.8332" r="1.13851" transform="rotate(-90 672.729 99.8332)" fill="#70C217"/>
<circle cx="672.729" cy="83.1354" r="1.13851" transform="rotate(-90 672.729 83.1354)" fill="#70C217"/>
<circle cx="672.729" cy="66.4362" r="1.13851" transform="rotate(-90 672.729 66.4362)" fill="#70C217"/>
<circle cx="484.449" cy="400.857" r="1.13851" fill="#70C217"/>
<circle cx="501.143" cy="400.855" r="1.13851" fill="#70C217"/>
<circle cx="517.842" cy="400.855" r="1.13851" fill="#70C217"/>
<circle cx="534.54" cy="400.855" r="1.13851" fill="#70C217"/>
<circle cx="551.238" cy="400.855" r="1.13851" fill="#70C217"/>
<circle cx="484.446" cy="417.554" r="1.13851" fill="#70C217"/>
<circle cx="501.143" cy="417.554" r="1.13851" fill="#70C217"/>
<circle cx="517.842" cy="417.554" r="1.13851" fill="#70C217"/>
<circle cx="534.54" cy="417.554" r="1.13851" fill="#70C217"/>
<circle cx="551.238" cy="417.554" r="1.13851" fill="#70C217"/>
<circle cx="484.446" cy="434.252" r="1.13851" fill="#70C217"/>
<circle cx="501.143" cy="434.252" r="1.13851" fill="#70C217"/>
<circle cx="517.842" cy="434.252" r="1.13851" fill="#70C217"/>
<circle cx="534.54" cy="434.252" r="1.13851" fill="#70C217"/>
<circle cx="551.238" cy="434.252" r="1.13851" fill="#70C217"/>
<circle cx="484.446" cy="450.95" r="1.13851" fill="#70C217"/>
<circle cx="501.143" cy="450.95" r="1.13851" fill="#70C217"/>
<circle cx="517.842" cy="450.95" r="1.13851" fill="#70C217"/>
<circle cx="534.54" cy="450.95" r="1.13851" fill="#70C217"/>
<circle cx="551.238" cy="450.95" r="1.13851" fill="#70C217"/>
<circle cx="484.446" cy="467.648" r="1.13851" fill="#70C217"/>
<circle cx="501.143" cy="467.648" r="1.13851" fill="#70C217"/>
<circle cx="517.842" cy="467.648" r="1.13851" fill="#70C217"/>
<circle cx="534.54" cy="467.648" r="1.13851" fill="#70C217"/>
<circle cx="551.238" cy="467.648" r="1.13851" fill="#70C217"/>
<circle cx="484.446" cy="484.347" r="1.13851" fill="#70C217"/>
<circle cx="501.143" cy="484.347" r="1.13851" fill="#70C217"/>
<circle cx="517.842" cy="484.347" r="1.13851" fill="#70C217"/>
<circle cx="534.54" cy="484.347" r="1.13851" fill="#70C217"/>
<circle cx="551.238" cy="484.347" r="1.13851" fill="#70C217"/>
<circle cx="484.446" cy="501.044" r="1.13851" fill="#70C217"/>
<circle cx="501.143" cy="501.044" r="1.13851" fill="#70C217"/>
<circle cx="517.842" cy="501.044" r="1.13851" fill="#70C217"/>
<circle cx="534.54" cy="501.044" r="1.13851" fill="#70C217"/>
<circle cx="551.238" cy="501.044" r="1.13851" fill="#70C217"/>
<circle cx="484.446" cy="517.742" r="1.13851" fill="#70C217"/>
<circle cx="501.143" cy="517.742" r="1.13851" fill="#70C217"/>
<circle cx="517.842" cy="517.742" r="1.13851" fill="#70C217"/>
<circle cx="534.54" cy="517.742" r="1.13851" fill="#70C217"/>
<circle cx="551.238" cy="517.742" r="1.13851" fill="#70C217"/>
<circle cx="484.446" cy="534.439" r="1.13851" fill="#70C217"/>
<circle cx="501.143" cy="534.439" r="1.13851" fill="#70C217"/>
<circle cx="517.842" cy="534.439" r="1.13851" fill="#70C217"/>
<circle cx="534.54" cy="534.439" r="1.13851" fill="#70C217"/>
<circle cx="551.238" cy="534.439" r="1.13851" fill="#70C217"/>
<circle cx="484.446" cy="551.138" r="1.13851" fill="#70C217"/>
<circle cx="501.143" cy="551.138" r="1.13851" fill="#70C217"/>
<circle cx="517.842" cy="551.138" r="1.13851" fill="#70C217"/>
<circle cx="534.54" cy="551.138" r="1.13851" fill="#70C217"/>
<circle cx="551.238" cy="551.138" r="1.13851" fill="#70C217"/>
<circle cx="674.997" cy="125.88" r="62.2837" transform="rotate(90 674.997 125.88)" stroke="#FFBA49" stroke-width="5"/>
<circle cx="579.841" cy="492.45" r="39.8275" transform="rotate(90 579.841 492.45)" stroke="#FFBA49" stroke-width="5"/>
<circle cx="743.82" cy="65.1359" r="8.0011" transform="rotate(90 743.82 65.1359)" stroke="#FFBA49" stroke-width="5"/>
<circle cx="618.775" cy="394.385" r="8.0011" transform="rotate(90 618.775 394.385)" stroke="#FFBA49" stroke-width="5"/>
</svg>
