<svg width="32" height="32" viewBox="0 0 32 32" fill="none" xmlns="http://www.w3.org/2000/svg">
<path opacity="0.1" fill-rule="evenodd" clip-rule="evenodd" d="M0 16C0 7.16344 7.16344 0 16 0C24.8366 0 32 7.16344 32 16C32 24.8366 24.8366 32 16 32C7.16344 32 0 24.8366 0 16Z" fill="white"/>
<path d="M20.3447 17.0485L20.863 13.8155H17.621V11.7184C17.621 10.8337 18.0731 9.97087 19.5251 9.97087H21V7.21845C21 7.21845 19.6621 7 18.3836 7C15.7123 7 13.968 8.54879 13.968 11.3515V13.8155H11V17.0485H13.968V24.8646C14.5639 24.9541 15.1735 25 15.7945 25C16.4155 25 17.0251 24.9541 17.621 24.8646V17.0485H20.3447Z" fill="white"/>
</svg>
