<svg width="20" height="20" viewBox="0 0 20 20" fill="none" xmlns="http://www.w3.org/2000/svg">
<g clip-path="url(#clip0)">
<path d="M19.2337 6.75344C14.2729 7.19199 9.57486 11.8767 9.13506 16.8521C9.10076 17.2403 9.4256 17.5673 9.81588 17.5329C14.7768 17.0944 19.4747 12.4101 19.9145 7.43426C19.9489 7.04548 19.6236 6.71926 19.2337 6.75344Z" fill="#272D4E"/>
<path d="M2.24753 15.4189C1.66216 15.791 1.12793 16.2624 0.668346 16.8227C0.47839 17.0542 0.47839 17.3877 0.668346 17.6192C2.84656 20.2744 6.52711 20.7853 9.26173 18.7636C6.72558 18.5563 4.19266 17.3531 2.24753 15.4189Z" fill="#272D4E"/>
<path d="M17.3127 15.209C15.3834 17.084 12.968 18.3325 10.5745 18.7039C13.3133 20.7935 17.046 20.3025 19.2471 17.6193C19.4371 17.3877 19.4371 17.0543 19.2471 16.8227C18.6962 16.151 18.0379 15.6069 17.3127 15.209Z" fill="#272D4E"/>
<path d="M9.85075 11.3518C11.5078 8.84415 13.9148 7.01285 16.4404 6.10518C16.3212 5.36784 16.0841 4.6559 15.7273 3.99196C15.5758 3.70997 15.2364 3.58709 14.9395 3.70675C12.142 4.83397 9.72803 7.10229 8.79614 9.95626C9.18167 10.3969 9.53509 10.8637 9.85075 11.3518Z" fill="#272D4E"/>
<path d="M9.14785 6.60649C8.0363 5.3702 6.59824 4.36042 4.97601 3.70676C4.6791 3.58709 4.33973 3.70994 4.18816 3.99197C3.77842 4.75442 3.52559 5.5799 3.4292 6.43474C5.01561 6.92635 6.53043 7.79202 7.82165 8.9632C8.13967 8.16856 8.57127 7.38327 9.14785 6.60649Z" fill="#272D4E"/>
<path d="M9.95864 5.63227C10.7754 4.75259 11.7394 3.98138 12.8086 3.35747C12.2809 2.137 11.4469 1.0313 10.3545 0.141172C10.1236 -0.0470573 9.79216 -0.0470573 9.56119 0.141172C8.46902 1.03114 7.63514 2.13665 7.10742 3.35684C8.17078 3.97706 9.13677 4.74619 9.95864 5.63227Z" fill="#272D4E"/>
<path d="M7.88423 16.7415C8.00767 15.3451 8.43989 13.9256 9.12978 12.5845C7.31919 9.37422 3.9817 7.35033 0.73424 7.22992C0.367515 7.21658 0.0700224 7.51764 0.0834449 7.88071C0.242513 12.1695 3.6222 16.1951 7.91237 17.2709C7.87854 17.0986 7.86842 16.9207 7.88423 16.7415Z" fill="#272D4E"/>
</g>
<defs>
<clipPath id="clip0">
<rect width="20" height="20" fill="white"/>
</clipPath>
</defs>
</svg>
