<svg width="468" height="469" viewBox="0 0 468 469" fill="none" xmlns="http://www.w3.org/2000/svg">
<g filter="url(#filter0_d)">
<rect x="54" y="24" width="380" height="381" rx="20" fill="white"/>
</g>
<path opacity="0.1" d="M91.993 115.72C99.276 132.179 89.9857 151.131 79.0501 165.403C75.39 170.188 71.3493 175.205 70.8419 181.208C70.23 188.551 75.1997 195.3 81.0947 199.712C91.8475 207.753 106.533 210.239 119.33 206.182C130.389 202.676 139.687 194.759 150.842 191.567C169.497 186.221 189.272 195.084 205.248 206.126C216.557 213.931 228.668 223.443 242.301 221.771C251.893 220.595 260.034 213.857 265.56 205.924C268.228 202.094 270.548 197.801 274.432 195.218C276.742 193.68 279.454 192.866 282.167 192.284C306.937 186.987 333.226 199.914 357.668 193.266C374.177 188.786 387.34 175.721 395.526 160.688C403.712 145.655 407.533 128.681 410.715 111.864C412.976 99.9186 414.853 87.0136 409.656 76.0275C404.156 64.3955 391.426 57.3439 378.632 56.0224C365.839 54.7009 353.008 58.348 341.221 63.4921C326.495 69.9352 312.06 78.9541 295.986 78.984C285.04 79.0064 274.6 74.803 264.135 71.5964C246.636 66.2396 228.44 63.578 210.307 61.1216C192.947 58.7699 175.415 56.5823 157.95 57.971C145.593 58.9528 134.68 63.6787 122.688 65.8663C114.872 67.2923 107.018 66.2396 99.3469 68.6287C89.8999 71.5852 80.1843 78.4352 79.662 89.2236C79.1695 99.493 88.1314 106.989 91.993 115.72Z" fill="#7854F7"/>
<g clip-path="url(#clip0)">
<path d="M105.561 342.862L105.545 342.964C105.526 342.865 105.508 342.763 105.491 342.662C105.46 342.5 105.433 342.338 105.407 342.175C104.391 335.801 104.95 329.277 107.036 323.167C107.437 321.974 107.894 320.803 108.407 319.654C110.367 315.205 113.145 311.16 116.599 307.73C117.72 306.586 119 305.608 120.398 304.825C120.604 304.717 120.81 304.614 121.021 304.519C122.315 303.894 123.771 303.684 125.19 303.918C125.705 304.014 126.205 304.181 126.674 304.414C126.839 304.494 126.997 304.581 127.153 304.675C128.101 305.294 128.911 306.102 129.531 307.047C130.151 307.993 130.569 309.056 130.758 310.17C131.027 311.831 130.966 313.529 130.577 315.167C130.543 315.323 130.507 315.479 130.469 315.635C130.193 316.726 129.846 317.799 129.431 318.846C125.274 329.5 116.342 338.952 105.561 342.862Z" fill="#F2F2F2"/>
<path d="M126.646 304.449C123.403 309.091 120.339 313.852 117.455 318.73C114.574 323.605 111.882 328.583 109.378 333.666C107.977 336.51 106.638 339.382 105.36 342.283C105.218 342.605 105.696 342.884 105.839 342.559C108.122 337.379 110.599 332.291 113.271 327.294C115.941 322.303 118.799 317.416 121.844 312.636C123.548 309.962 125.308 307.324 127.126 304.724C127.329 304.433 126.849 304.159 126.646 304.449Z" fill="white"/>
<path d="M130.117 315.195C127.679 318.35 124.092 320.422 120.132 320.96C119.027 321.11 117.909 321.132 116.799 321.025C116.444 320.992 116.441 321.543 116.793 321.576C120.924 321.922 125.024 320.632 128.205 317.984C129.097 317.241 129.899 316.398 130.596 315.47C130.809 315.187 130.328 314.914 130.117 315.195V315.195Z" fill="white"/>
<path d="M109.301 332.312C108.734 331.507 108.264 330.64 107.898 329.728C107.063 327.647 106.767 325.391 107.036 323.167C107.437 321.974 107.894 320.803 108.407 319.654C108.438 319.699 108.456 319.752 108.461 319.807C108.465 319.861 108.455 319.916 108.432 319.965C108.071 320.827 107.812 321.728 107.659 322.649C107.11 325.935 107.872 329.304 109.781 332.038C109.805 332.068 109.821 332.104 109.828 332.141C109.834 332.179 109.831 332.218 109.818 332.254C109.797 332.302 109.763 332.344 109.721 332.374C109.678 332.405 109.628 332.425 109.576 332.431C109.524 332.436 109.471 332.428 109.423 332.408C109.374 332.387 109.332 332.354 109.301 332.312V332.312Z" fill="white"/>
<path d="M120.481 304.476C119.814 307.124 120.013 309.915 121.048 312.443C121.085 312.506 121.145 312.552 121.215 312.571C121.286 312.591 121.361 312.581 121.425 312.545C121.488 312.508 121.533 312.448 121.552 312.378C121.571 312.308 121.563 312.233 121.528 312.17C120.559 309.771 120.379 307.128 121.014 304.621C121.031 304.552 121.02 304.479 120.983 304.417C120.946 304.356 120.887 304.311 120.818 304.292C120.749 304.273 120.675 304.282 120.612 304.316C120.549 304.351 120.502 304.408 120.481 304.476H120.481Z" fill="white"/>
<path d="M105.493 329.556L105.526 329.653C105.463 329.574 105.4 329.492 105.338 329.411C105.235 329.282 105.135 329.151 105.036 329.019C101.164 323.845 98.6171 317.808 97.6157 311.431C97.4147 310.19 97.2733 308.942 97.1914 307.687C96.8525 302.84 97.4271 297.972 98.8857 293.336C99.3456 291.805 100.023 290.346 100.896 289.006C101.028 288.815 101.162 288.628 101.305 288.447C102.159 287.294 103.351 286.434 104.716 285.985C105.218 285.832 105.738 285.748 106.262 285.737C106.445 285.732 106.626 285.736 106.807 285.747C107.936 285.856 109.03 286.197 110.02 286.747C111.01 287.298 111.876 288.046 112.562 288.945C113.576 290.291 114.313 291.824 114.732 293.454C114.775 293.608 114.816 293.763 114.854 293.918C115.119 295.012 115.312 296.122 115.433 297.242C116.72 308.6 113.217 321.104 105.493 329.556Z" fill="#F2F2F2"/>
<path d="M106.253 285.781C105.546 291.393 105.052 297.027 104.773 302.682C104.495 308.331 104.432 313.986 104.585 319.646C104.67 322.812 104.824 325.976 105.044 329.137C105.069 329.486 105.622 329.513 105.597 329.158C105.204 323.516 105.025 317.863 105.061 312.202C105.098 306.546 105.35 300.896 105.818 295.254C106.08 292.097 106.409 288.946 106.806 285.803C106.85 285.451 106.297 285.431 106.253 285.781V285.781Z" fill="white"/>
<path d="M114.338 293.692C113.651 297.614 111.44 301.108 108.184 303.417C107.275 304.061 106.295 304.598 105.263 305.018C104.933 305.152 105.188 305.642 105.515 305.508C109.334 303.903 112.363 300.863 113.945 297.046C114.389 295.976 114.706 294.857 114.89 293.713C114.947 293.364 114.394 293.345 114.338 293.692V293.692Z" fill="white"/>
<path d="M103.885 318.482C103.008 318.032 102.187 317.482 101.438 316.843C99.7286 315.387 98.4141 313.526 97.6154 311.432C97.4145 310.19 97.273 308.942 97.1912 307.687C97.2397 307.713 97.2807 307.75 97.3101 307.797C97.3396 307.843 97.3564 307.896 97.3589 307.951C97.4412 308.881 97.6314 309.799 97.9257 310.685C98.972 313.849 101.217 316.48 104.183 318.018C104.218 318.033 104.249 318.057 104.272 318.087C104.296 318.118 104.311 318.154 104.316 318.192C104.32 318.244 104.309 318.296 104.286 318.343C104.263 318.39 104.228 318.431 104.184 318.46C104.141 318.489 104.09 318.507 104.038 318.511C103.985 318.514 103.933 318.505 103.885 318.482V318.482Z" fill="white"/>
<path d="M100.806 288.659C101.45 291.312 102.928 293.692 105.023 295.451C105.085 295.49 105.16 295.503 105.232 295.487C105.303 295.472 105.365 295.429 105.405 295.367C105.443 295.305 105.455 295.231 105.44 295.16C105.424 295.09 105.382 295.027 105.321 294.987C103.344 293.312 101.952 291.054 101.347 288.54C101.329 288.471 101.285 288.411 101.223 288.374C101.162 288.336 101.089 288.324 101.019 288.339C100.949 288.355 100.888 288.397 100.848 288.456C100.808 288.516 100.793 288.588 100.806 288.659L100.806 288.659Z" fill="white"/>
<path d="M105.732 342.93L105.813 342.994C105.717 342.961 105.619 342.926 105.523 342.891C105.367 342.838 105.212 342.781 105.057 342.722C98.9971 340.44 93.5873 336.72 89.2965 331.885C88.4558 330.946 87.6618 329.97 86.9146 328.957C84.0086 325.055 81.8613 320.645 80.5837 315.956C80.1434 314.419 79.9255 312.827 79.9367 311.229C79.9441 310.998 79.9569 310.768 79.9791 310.538C80.0757 309.109 80.6148 307.745 81.5222 306.634C81.8619 306.236 82.2552 305.887 82.691 305.596C82.8421 305.493 82.997 305.4 83.1555 305.312C84.1658 304.799 85.2714 304.499 86.4033 304.431C87.5352 304.364 88.6688 304.529 89.7334 304.919C91.3152 305.51 92.7648 306.405 93.9993 307.554C94.1191 307.661 94.2371 307.769 94.3534 307.879C95.168 308.659 95.9309 309.491 96.6375 310.369C103.862 319.249 107.671 331.664 105.732 342.93Z" fill="#F2F2F2"/>
<path d="M82.7071 305.637C85.1454 310.746 87.7754 315.757 90.5971 320.672C93.417 325.581 96.4211 330.379 99.6094 335.066C101.393 337.688 103.233 340.272 105.128 342.817C105.337 343.098 105.818 342.824 105.605 342.539C102.223 337.995 99.0169 333.328 95.9865 328.539C92.9598 323.753 90.1182 318.858 87.4618 313.852C85.9757 311.052 84.55 308.221 83.1846 305.359C83.0319 305.039 82.5549 305.319 82.7071 305.637Z" fill="white"/>
<path d="M93.7955 307.965C95.337 311.639 95.3631 315.769 93.868 319.461C93.4509 320.492 92.9154 321.47 92.2722 322.377C92.067 322.668 92.5463 322.943 92.7498 322.655C95.1 319.254 96.0086 315.067 95.2785 311.002C95.0735 309.862 94.7361 308.75 94.273 307.687C94.1324 307.363 93.6558 307.643 93.7955 307.965Z" fill="white"/>
<path d="M98.391 334.462C97.409 334.553 96.4197 334.53 95.4431 334.394C93.2155 334.084 91.1019 333.221 89.2967 331.885C88.456 330.947 87.662 329.971 86.9148 328.958C86.9696 328.953 87.0246 328.963 87.0744 328.986C87.1241 329.009 87.167 329.045 87.1987 329.09C87.771 329.829 88.4274 330.501 89.1547 331.09C91.7465 333.194 95.0608 334.206 98.391 333.911C98.429 333.905 98.4679 333.908 98.504 333.922C98.5402 333.935 98.5723 333.957 98.5974 333.986C98.6285 334.028 98.648 334.078 98.6539 334.13C98.6599 334.182 98.652 334.235 98.6311 334.283C98.6102 334.331 98.5771 334.373 98.535 334.404C98.4928 334.436 98.4432 334.455 98.391 334.462V334.462Z" fill="white"/>
<path d="M79.6735 310.985C81.6507 312.875 84.1819 314.088 86.8987 314.446C87.0481 314.465 87.1739 314.305 87.1753 314.17C87.1735 314.098 87.1439 314.028 87.0924 313.977C87.0409 313.926 86.9715 313.896 86.8987 313.895C84.3274 313.544 81.9343 312.388 80.0646 310.595C79.8082 310.349 79.4166 310.738 79.6734 310.985H79.6735Z" fill="white"/>
<path d="M143.482 270.263C144.022 269.894 144.474 269.411 144.807 268.85C145.14 268.288 145.345 267.66 145.408 267.011C145.471 266.361 145.39 265.706 145.171 265.091C144.952 264.477 144.601 263.917 144.141 263.452L145.879 224.815L137.033 225.805L137.547 263.597C136.814 264.417 136.409 265.477 136.408 266.575C136.407 267.674 136.811 268.734 137.542 269.556C138.274 270.377 139.282 270.903 140.377 271.033C141.472 271.164 142.577 270.889 143.482 270.263V270.263Z" fill="#FFB8B8"/>
<path d="M159.619 335.666L164.654 336.548L169.63 317.622L163.033 316.321L159.619 335.666Z" fill="#FFB8B8"/>
<path d="M173.541 342.905L157.718 340.134L158.793 334.044L168.502 335.744C169.305 335.885 170.072 336.182 170.76 336.618C171.448 337.054 172.042 337.62 172.51 338.285C172.978 338.95 173.31 339.7 173.487 340.493C173.664 341.286 173.682 342.106 173.541 342.905V342.905V342.905Z" fill="#2F2E41"/>
<path d="M145.8 338.176L150.912 338.176L153.344 318.534L145.8 318.535L145.8 338.176Z" fill="#FFB8B8"/>
<path d="M160.77 342.905L144.705 342.906L144.704 336.722L154.563 336.722C156.209 336.722 157.788 337.373 158.952 338.532C160.116 339.692 160.77 341.265 160.77 342.905V342.905L160.77 342.905Z" fill="#2F2E41"/>
<path d="M167.545 332.798C167.466 332.798 167.386 332.793 167.307 332.784L161.29 332.29C161.016 332.258 160.752 332.171 160.513 332.034C160.274 331.897 160.065 331.713 159.9 331.493C159.734 331.273 159.615 331.022 159.55 330.755C159.485 330.488 159.475 330.211 159.521 329.94L165.077 298.92L161.323 279.2C161.292 279.04 161.205 278.896 161.076 278.796C160.947 278.695 160.786 278.644 160.623 278.652C160.459 278.66 160.304 278.727 160.186 278.84C160.068 278.953 159.995 279.104 159.981 279.267L155.288 331.864C155.236 332.392 154.981 332.879 154.575 333.223C154.17 333.567 153.647 333.74 153.115 333.707L147.447 333.497C146.95 333.462 146.484 333.247 146.135 332.892C145.787 332.538 145.581 332.069 145.556 331.573L145.175 268.534L174.562 264.875L176.615 296.459L176.607 296.493L169.522 331.249C169.414 331.69 169.161 332.082 168.802 332.363C168.444 332.644 168.001 332.797 167.545 332.798V332.798Z" fill="#2F2E41"/>
<path d="M154.863 199.779C160.519 199.779 165.104 195.211 165.104 189.577C165.104 183.943 160.519 179.375 154.863 179.375C149.208 179.375 144.623 183.943 144.623 189.577C144.623 195.211 149.208 199.779 154.863 199.779Z" fill="#FFB8B8"/>
<path d="M164.513 273.142C162.911 273.151 161.34 272.703 159.986 271.852C155.025 268.763 149.391 269.99 146.474 270.997C146.184 271.098 145.876 271.133 145.571 271.098C145.266 271.063 144.973 270.961 144.714 270.797C144.458 270.637 144.241 270.421 144.081 270.166C143.92 269.91 143.82 269.622 143.787 269.322L138.482 222.126C137.593 214.218 142.375 206.783 149.851 204.448C150.132 204.36 150.418 204.277 150.708 204.198C153.035 203.57 155.472 203.457 157.847 203.868C160.222 204.278 162.478 205.202 164.456 206.575C166.471 207.963 168.156 209.774 169.392 211.88C170.629 213.987 171.387 216.338 171.614 218.767L176.079 266.28C176.11 266.588 176.068 266.898 175.958 267.187C175.847 267.476 175.671 267.735 175.443 267.945C173.877 269.387 169.334 273.141 164.513 273.142Z" fill="#7854F7"/>
<path d="M148.36 232.247L136.392 230.936C136.051 230.899 135.723 230.789 135.429 230.613C135.135 230.438 134.882 230.202 134.688 229.921C134.494 229.64 134.363 229.32 134.304 228.984C134.245 228.648 134.259 228.303 134.346 227.973L137.393 216.406C137.594 214.672 138.478 213.088 139.85 212.001C141.222 210.915 142.971 210.415 144.712 210.611C146.454 210.806 148.046 211.682 149.141 213.046C150.235 214.41 150.742 216.151 150.55 217.886L151.002 229.797C151.015 230.138 150.954 230.478 150.823 230.793C150.692 231.109 150.495 231.392 150.244 231.625C149.993 231.857 149.695 232.033 149.37 232.14C149.045 232.248 148.7 232.284 148.36 232.247V232.247Z" fill="#7854F7"/>
<path d="M176.032 268.608C176.523 268.177 176.914 267.644 177.176 267.047C177.439 266.449 177.566 265.801 177.55 265.149C177.534 264.497 177.374 263.856 177.083 263.272C176.791 262.688 176.375 262.175 175.863 261.768L172.913 223.205L164.246 225.148L169.334 262.703C168.705 263.606 168.431 264.707 168.563 265.797C168.695 266.888 169.224 267.892 170.05 268.62C170.875 269.347 171.94 269.748 173.043 269.746C174.145 269.744 175.209 269.339 176.032 268.608V268.608Z" fill="#FFB8B8"/>
<path d="M160.923 229.822C160.672 229.59 160.474 229.306 160.343 228.991C160.212 228.676 160.151 228.336 160.164 227.995L160.617 216.084C160.425 214.348 160.931 212.608 162.026 211.244C163.12 209.88 164.713 209.004 166.454 208.808C168.196 208.612 169.945 209.112 171.317 210.199C172.689 211.285 173.573 212.869 173.774 214.604L176.82 226.17C176.907 226.501 176.922 226.845 176.863 227.182C176.804 227.518 176.673 227.837 176.479 228.119C176.285 228.4 176.032 228.636 175.738 228.811C175.444 228.986 175.116 229.096 174.775 229.134L162.807 230.445C162.466 230.482 162.122 230.446 161.797 230.338C161.471 230.231 161.173 230.055 160.923 229.822V229.822Z" fill="#7854F7"/>
<path d="M154.254 200.163C154.072 200.163 153.891 200.142 153.714 200.1L153.662 200.088C144.658 198.715 142.668 193.52 142.231 191.35C141.779 189.104 142.294 186.936 143.457 186.094C142.823 184.099 142.925 182.33 143.76 180.834C145.218 178.226 148.381 177.343 148.805 177.236C151.331 175.379 154.353 176.618 154.903 176.87C159.789 175.069 161.656 176.568 161.994 176.903C164.178 177.293 165.51 178.134 165.952 179.401C166.782 181.782 164.156 184.743 164.044 184.868L163.986 184.932L160.075 185.118C159.704 185.136 159.341 185.231 159.009 185.397C158.677 185.564 158.384 185.798 158.149 186.085C157.914 186.371 157.742 186.704 157.644 187.061C157.546 187.418 157.525 187.791 157.581 188.157V188.157C157.687 188.629 157.821 189.095 157.982 189.551C158.65 191.63 159.15 193.407 158.504 194.082C158.358 194.213 158.178 194.3 157.984 194.333C157.791 194.367 157.592 194.345 157.41 194.271C156.798 194.109 156.383 194.143 156.176 194.373C155.855 194.73 155.953 195.633 156.452 196.917C156.609 197.323 156.651 197.764 156.574 198.192C156.497 198.62 156.304 199.019 156.016 199.346C155.799 199.601 155.529 199.806 155.225 199.947C154.921 200.088 154.59 200.162 154.254 200.163Z" fill="#2F2E41"/>
<path d="M275.196 232.776H224.745C222.866 232.774 221.064 232.03 219.735 230.706C218.407 229.382 217.659 227.587 217.657 225.715V150.188C217.659 148.316 218.407 146.521 219.735 145.197C221.064 143.874 222.866 143.129 224.745 143.127H275.196C277.076 143.129 278.877 143.874 280.206 145.197C281.535 146.521 282.282 148.316 282.285 150.188V225.715C282.282 227.587 281.535 229.382 280.206 230.706C278.877 232.03 277.076 232.774 275.196 232.776V232.776ZM224.745 143.958C223.087 143.96 221.497 144.617 220.325 145.785C219.152 146.953 218.493 148.536 218.491 150.188V225.715C218.493 227.367 219.152 228.951 220.325 230.119C221.497 231.287 223.087 231.944 224.745 231.946H275.196C276.855 231.944 278.444 231.287 279.617 230.119C280.789 228.951 281.449 227.367 281.451 225.715V150.188C281.449 148.536 280.789 146.953 279.617 145.785C278.444 144.617 276.855 143.96 275.196 143.958H224.745Z" fill="#3F3D56"/>
<path d="M267.483 179.437H232.459C231.519 179.436 230.618 179.063 229.954 178.401C229.29 177.74 228.916 176.842 228.915 175.906V159.291C228.916 158.355 229.29 157.458 229.954 156.796C230.618 156.134 231.519 155.762 232.459 155.761H267.483C268.422 155.762 269.323 156.134 269.988 156.796C270.652 157.458 271.026 158.355 271.027 159.291V175.906C271.026 176.842 270.652 177.74 269.988 178.401C269.323 179.063 268.422 179.436 267.483 179.437Z" fill="#7854F7"/>
<path d="M264.981 195.013H234.961C234.076 195.013 233.228 194.663 232.602 194.04C231.976 193.417 231.625 192.571 231.625 191.69C231.625 190.809 231.976 189.964 232.602 189.34C233.228 188.717 234.076 188.367 234.961 188.367H264.981C265.866 188.367 266.714 188.717 267.34 189.34C267.965 189.964 268.317 190.809 268.317 191.69C268.317 192.571 267.965 193.417 267.34 194.04C266.714 194.663 265.866 195.013 264.981 195.013Z" fill="#CCCCCC"/>
<path d="M264.981 207.474H234.961C234.076 207.474 233.228 207.124 232.602 206.501C231.976 205.878 231.625 205.032 231.625 204.151C231.625 203.27 231.976 202.425 232.602 201.801C233.228 201.178 234.076 200.828 234.961 200.828H264.981C265.866 200.828 266.714 201.178 267.34 201.801C267.965 202.425 268.317 203.27 268.317 204.151C268.317 205.032 267.965 205.878 267.34 206.501C266.714 207.124 265.866 207.474 264.981 207.474Z" fill="#CCCCCC"/>
<path d="M264.981 219.935H234.961C234.076 219.935 233.228 219.585 232.602 218.962C231.976 218.338 231.625 217.493 231.625 216.612C231.625 215.731 231.976 214.885 232.602 214.262C233.228 213.639 234.076 213.289 234.961 213.289H264.981C265.866 213.289 266.714 213.639 267.34 214.262C267.965 214.885 268.317 215.731 268.317 216.612C268.317 217.493 267.965 218.338 267.34 218.962C266.714 219.585 265.866 219.935 264.981 219.935Z" fill="#CCCCCC"/>
<path d="M398.197 275.144H347.746C345.867 275.142 344.065 274.397 342.736 273.073C341.408 271.75 340.66 269.955 340.658 268.083V192.556C340.66 190.684 341.408 188.889 342.736 187.565C344.065 186.241 345.867 185.497 347.746 185.495H398.197C400.077 185.497 401.878 186.241 403.207 187.565C404.536 188.889 405.283 190.684 405.286 192.556V268.083C405.283 269.955 404.536 271.75 403.207 273.073C401.878 274.397 400.077 275.142 398.197 275.144ZM347.746 186.325C346.088 186.327 344.498 186.984 343.326 188.152C342.153 189.32 341.494 190.904 341.492 192.556V268.083C341.494 269.735 342.153 271.318 343.326 272.486C344.498 273.654 346.088 274.311 347.746 274.313H398.197C399.856 274.311 401.445 273.654 402.618 272.486C403.79 271.318 404.45 269.735 404.452 268.083V192.556C404.45 190.904 403.79 189.32 402.618 188.152C401.445 186.984 399.856 186.327 398.197 186.325H347.746Z" fill="#3F3D56"/>
<path d="M387.982 204.151H357.961C357.077 204.151 356.228 203.801 355.603 203.178C354.977 202.555 354.626 201.71 354.626 200.828C354.626 199.947 354.977 199.102 355.603 198.479C356.228 197.855 357.077 197.505 357.961 197.505H387.982C388.867 197.505 389.715 197.855 390.341 198.479C390.966 199.102 391.318 199.947 391.318 200.828C391.318 201.71 390.966 202.555 390.341 203.178C389.715 203.801 388.867 204.151 387.982 204.151Z" fill="#CCCCCC"/>
<path d="M387.982 216.612H357.961C357.077 216.612 356.228 216.262 355.603 215.639C354.977 215.016 354.626 214.171 354.626 213.289C354.626 212.408 354.977 211.563 355.603 210.94C356.228 210.316 357.077 209.966 357.961 209.966H387.982C388.867 209.966 389.715 210.316 390.341 210.94C390.966 211.563 391.318 212.408 391.318 213.289C391.318 214.171 390.966 215.016 390.341 215.639C389.715 216.262 388.867 216.612 387.982 216.612Z" fill="#CCCCCC"/>
<path d="M390.484 248.387H355.46C354.52 248.386 353.619 248.014 352.955 247.352C352.29 246.69 351.917 245.793 351.916 244.857V228.242C351.917 227.306 352.29 226.409 352.955 225.747C353.619 225.085 354.52 224.713 355.46 224.711H390.484C391.423 224.713 392.324 225.085 392.988 225.747C393.653 226.409 394.027 227.306 394.028 228.242V244.857C394.027 245.793 393.653 246.69 392.988 247.352C392.324 248.014 391.423 248.386 390.484 248.387V248.387Z" fill="#E6E6E6"/>
<path d="M387.982 263.133H357.961C357.077 263.133 356.228 262.783 355.603 262.16C354.977 261.537 354.626 260.692 354.626 259.81C354.626 258.929 354.977 258.084 355.603 257.461C356.228 256.837 357.077 256.487 357.961 256.487H387.982C388.867 256.487 389.715 256.837 390.341 257.461C390.966 258.084 391.318 258.929 391.318 259.81C391.318 260.692 390.966 261.537 390.341 262.16C389.715 262.783 388.867 263.133 387.982 263.133Z" fill="#CCCCCC"/>
<path d="M367.343 155.103H316.892C315.012 155.101 313.211 154.356 311.882 153.032C310.553 151.709 309.806 149.914 309.803 148.042V101.175C309.806 99.3029 310.553 97.5081 311.882 96.1843C313.211 94.8605 315.012 94.1159 316.892 94.1138H367.343C369.222 94.1159 371.024 94.8605 372.353 96.1843C373.681 97.5081 374.429 99.3029 374.431 101.175V148.042C374.429 149.914 373.681 151.709 372.353 153.032C371.024 154.356 369.222 155.101 367.343 155.103V155.103ZM316.892 94.9445C315.233 94.9464 313.644 95.6034 312.471 96.7714C311.299 97.9395 310.639 99.5232 310.637 101.175V148.042C310.639 149.693 311.299 151.277 312.471 152.445C313.644 153.613 315.233 154.27 316.892 154.272H367.343C369.001 154.27 370.591 153.613 371.763 152.445C372.936 151.277 373.595 149.693 373.597 148.042V101.175C373.595 99.5232 372.936 97.9395 371.763 96.7714C370.591 95.6034 369.001 94.9464 367.343 94.9445H316.892Z" fill="#3F3D56"/>
<path d="M357.128 140.392H327.107C326.222 140.392 325.374 140.042 324.748 139.419C324.123 138.796 323.771 137.95 323.771 137.069C323.771 136.188 324.123 135.343 324.748 134.719C325.374 134.096 326.222 133.746 327.107 133.746H357.128C358.012 133.746 358.861 134.096 359.486 134.719C360.112 135.343 360.463 136.188 360.463 137.069C360.463 137.95 360.112 138.796 359.486 139.419C358.861 140.042 358.012 140.392 357.128 140.392Z" fill="#CCCCCC"/>
<path d="M357.128 127.931H327.107C326.222 127.931 325.374 127.581 324.748 126.958C324.123 126.335 323.771 125.489 323.771 124.608C323.771 123.727 324.123 122.882 324.748 122.258C325.374 121.635 326.222 121.285 327.107 121.285H357.128C358.012 121.285 358.861 121.635 359.486 122.258C360.112 122.882 360.463 123.727 360.463 124.608C360.463 125.489 360.112 126.335 359.486 126.958C358.861 127.581 358.012 127.931 357.128 127.931Z" fill="#CCCCCC"/>
<path d="M357.128 115.47H327.107C326.222 115.47 325.374 115.12 324.748 114.497C324.123 113.874 323.771 113.028 323.771 112.147C323.771 111.266 324.123 110.421 324.748 109.797C325.374 109.174 326.222 108.824 327.107 108.824H357.128C358.012 108.824 358.861 109.174 359.486 109.797C360.112 110.421 360.463 111.266 360.463 112.147C360.463 113.028 360.112 113.874 359.486 114.497C358.861 115.12 358.012 115.47 357.128 115.47Z" fill="#CCCCCC"/>
<path d="M278.115 154.687C283.411 154.687 287.705 150.41 287.705 145.134C287.705 139.858 283.411 135.581 278.115 135.581C272.819 135.581 268.525 139.858 268.525 145.134C268.525 150.41 272.819 154.687 278.115 154.687Z" fill="#7854F7"/>
<path d="M277.164 148.778C276.949 148.779 276.739 148.709 276.566 148.58L276.555 148.572L274.302 146.853C274.197 146.774 274.109 146.675 274.042 146.561C273.976 146.448 273.933 146.322 273.915 146.192C273.898 146.062 273.906 145.93 273.94 145.803C273.974 145.676 274.033 145.557 274.113 145.453C274.193 145.349 274.293 145.261 274.407 145.196C274.521 145.13 274.647 145.087 274.778 145.07C274.909 145.053 275.042 145.062 275.169 145.097C275.296 145.131 275.415 145.19 275.52 145.27L276.979 146.385L280.429 141.903C280.509 141.799 280.609 141.712 280.723 141.646C280.836 141.581 280.962 141.538 281.092 141.521C281.223 141.504 281.355 141.513 281.482 141.547C281.609 141.58 281.728 141.639 281.833 141.719L281.811 141.748L281.833 141.719C282.044 141.88 282.182 142.118 282.216 142.38C282.251 142.642 282.18 142.907 282.019 143.118L277.961 148.389C277.867 148.511 277.747 148.609 277.608 148.676C277.47 148.744 277.318 148.779 277.164 148.778V148.778Z" fill="white"/>
<path d="M403.201 197.47C408.497 197.47 412.791 193.193 412.791 187.917C412.791 182.641 408.497 178.363 403.201 178.363C397.904 178.363 393.611 182.641 393.611 187.917C393.611 193.193 397.904 197.47 403.201 197.47Z" fill="#3F3D56"/>
<path d="M402.25 191.561C402.035 191.562 401.825 191.492 401.652 191.363L401.641 191.355L399.388 189.636C399.283 189.557 399.195 189.457 399.128 189.344C399.062 189.23 399.019 189.105 399.001 188.975C398.984 188.845 398.992 188.713 399.026 188.586C399.06 188.459 399.119 188.34 399.199 188.236C399.279 188.131 399.379 188.044 399.493 187.978C399.607 187.913 399.733 187.87 399.864 187.853C399.995 187.836 400.127 187.845 400.255 187.879C400.382 187.914 400.501 187.972 400.605 188.053L402.065 189.168L405.515 184.686C405.595 184.582 405.695 184.495 405.809 184.429C405.922 184.364 406.048 184.321 406.178 184.304C406.309 184.287 406.441 184.295 406.568 184.329C406.695 184.363 406.814 184.422 406.919 184.501L406.897 184.53L406.919 184.502C407.13 184.663 407.267 184.901 407.302 185.163C407.337 185.425 407.266 185.69 407.105 185.9L403.047 191.172C402.953 191.293 402.832 191.392 402.694 191.459C402.556 191.527 402.404 191.562 402.25 191.561Z" fill="white"/>
<path d="M372.763 104.843C378.06 104.843 382.353 100.566 382.353 95.2898C382.353 90.0136 378.06 85.7363 372.763 85.7363C367.467 85.7363 363.173 90.0136 363.173 95.2898C363.173 100.566 367.467 104.843 372.763 104.843Z" fill="#3F3D56"/>
<path d="M371.813 98.9342C371.597 98.9346 371.387 98.8651 371.214 98.7362L371.204 98.7282L368.95 97.0092C368.845 96.9297 368.757 96.8304 368.691 96.7169C368.624 96.6035 368.581 96.4781 368.564 96.348C368.546 96.2178 368.554 96.0855 368.588 95.9587C368.622 95.8318 368.681 95.7129 368.761 95.6087C368.841 95.5044 368.941 95.417 369.055 95.3514C369.17 95.2858 369.296 95.2432 369.426 95.2262C369.557 95.2092 369.69 95.2181 369.817 95.2523C369.944 95.2866 370.063 95.3455 370.168 95.4257L371.628 96.5408L375.077 92.059C375.157 91.955 375.257 91.8678 375.371 91.8023C375.485 91.7367 375.61 91.6942 375.741 91.677C375.871 91.6599 376.004 91.6685 376.131 91.7024C376.258 91.7362 376.377 91.7947 376.481 91.8744L376.46 91.9034L376.482 91.8748C376.692 92.036 376.83 92.2737 376.865 92.5359C376.899 92.7981 376.828 93.0632 376.667 93.2733L372.609 98.5449C372.515 98.6664 372.395 98.7647 372.257 98.8322C372.118 98.8997 371.967 98.9346 371.813 98.9342Z" fill="white"/>
<path d="M233.601 343.264H74.7424C74.6318 343.264 74.5258 343.221 74.4476 343.143C74.3694 343.065 74.3254 342.959 74.3254 342.849C74.3254 342.739 74.3694 342.633 74.4476 342.555C74.5258 342.477 74.6318 342.434 74.7424 342.434H233.601C233.712 342.434 233.818 342.477 233.896 342.555C233.974 342.633 234.018 342.739 234.018 342.849C234.018 342.959 233.974 343.065 233.896 343.143C233.818 343.221 233.712 343.264 233.601 343.264Z" fill="#3F3D56"/>
</g>
<defs>
<filter id="filter0_d" x="0" y="0" width="468" height="469" filterUnits="userSpaceOnUse" color-interpolation-filters="sRGB">
<feFlood flood-opacity="0" result="BackgroundImageFix"/>
<feColorMatrix in="SourceAlpha" type="matrix" values="0 0 0 0 0 0 0 0 0 0 0 0 0 0 0 0 0 0 127 0"/>
<feOffset dx="-10" dy="20"/>
<feGaussianBlur stdDeviation="22"/>
<feColorMatrix type="matrix" values="0 0 0 0 0.329749 0 0 0 0 0.188108 0 0 0 0 0.820833 0 0 0 0.4 0"/>
<feBlend mode="normal" in2="BackgroundImageFix" result="effect1_dropShadow"/>
<feBlend mode="normal" in="SourceGraphic" in2="effect1_dropShadow" result="shape"/>
</filter>
<clipPath id="clip0">
<rect width="338.465" height="257.528" fill="white" transform="translate(74.3254 85.7363)"/>
</clipPath>
</defs>
</svg>
