<svg width="402" height="222" viewBox="0 0 402 222" fill="none" xmlns="http://www.w3.org/2000/svg">
<g clip-path="url(#clip0)">
<path d="M206.857 220.864C200.502 221.798 194.07 222.109 187.654 221.791C172.184 221.01 156.969 216.518 143.967 208.072C138.202 204.326 132.703 199.725 129.718 193.544C125.668 185.15 127.085 174.524 132.868 167.213C134.978 164.576 137.573 162.366 140.514 160.701C140.949 160.455 141.395 160.219 141.845 159.992C146.745 157.532 152.248 156.526 157.704 157.093C166.978 158.105 175.537 163.761 180.483 171.663C184.888 178.709 186.423 187.023 187.327 195.356C187.498 196.926 187.645 198.5 187.787 200.066C186.999 204.601 185.759 209.046 184.087 213.335C184.002 213.544 183.933 213.759 183.879 213.978C184.826 216.031 185.728 218.102 186.584 220.192C187.388 220.628 188.288 220.856 189.203 220.854H206.819L206.857 220.864Z" fill="#F2F2F2"/>
<path d="M186.219 221.266C186.102 221.318 185.976 221.346 185.848 221.349C185.721 221.352 185.593 221.329 185.474 221.283C185.355 221.236 185.247 221.166 185.155 221.077C185.063 220.988 184.99 220.882 184.94 220.764C184.864 220.585 184.793 220.405 184.717 220.225C184.035 218.57 183.32 216.931 182.572 215.307C172.99 194.355 158.698 175.891 140.807 161.349C140.705 161.277 140.623 161.179 140.572 161.065C140.52 160.951 140.5 160.826 140.514 160.701C140.54 160.559 140.598 160.424 140.683 160.307C140.769 160.19 140.88 160.094 141.008 160.025C141.136 159.957 141.277 159.919 141.422 159.913C141.567 159.907 141.712 159.934 141.845 159.992C141.916 160.024 141.983 160.065 142.044 160.115C149.698 166.339 156.721 173.301 163.009 180.899C169.298 188.49 174.836 196.671 179.545 205.329C180.829 207.693 182.047 210.091 183.202 212.522C183.429 213.004 183.657 213.491 183.879 213.978C184.826 216.031 185.728 218.102 186.584 220.192C186.598 220.225 186.612 220.263 186.627 220.296C186.67 220.386 186.694 220.483 186.697 220.583C186.7 220.682 186.681 220.781 186.642 220.873C186.604 220.965 186.546 221.047 186.473 221.115C186.4 221.183 186.313 221.234 186.219 221.266Z" fill="white"/>
<path d="M123.395 158.895C133.598 158.895 141.868 150.637 141.868 140.451C141.868 130.266 133.598 122.008 123.395 122.008C113.192 122.008 104.922 130.266 104.922 140.451C104.922 150.637 113.192 158.895 123.395 158.895Z" fill="#6C63FF"/>
<path d="M121.564 147.487C121.148 147.488 120.743 147.354 120.411 147.105L120.39 147.089L116.049 143.771C115.848 143.617 115.679 143.425 115.552 143.206C115.425 142.987 115.343 142.746 115.309 142.495C115.276 142.244 115.292 141.989 115.358 141.745C115.423 141.501 115.536 141.271 115.69 141.071C115.844 140.87 116.037 140.701 116.256 140.575C116.475 140.448 116.717 140.366 116.969 140.333C117.22 140.3 117.475 140.316 117.72 140.382C117.965 140.447 118.194 140.56 118.395 140.714L121.207 142.867L127.852 134.214C128.006 134.014 128.199 133.845 128.418 133.719C128.637 133.592 128.879 133.51 129.131 133.477C129.382 133.444 129.637 133.461 129.882 133.526C130.126 133.591 130.356 133.704 130.557 133.858L130.515 133.914L130.558 133.859C130.963 134.17 131.228 134.629 131.295 135.135C131.362 135.641 131.225 136.153 130.915 136.559L123.098 146.736C122.917 146.97 122.685 147.16 122.419 147.29C122.153 147.421 121.86 147.488 121.564 147.487Z" fill="white"/>
<path d="M401.436 222H0.563958C0.414659 222 0.271625 221.94 0.166207 221.835C0.0607885 221.729 0.00158691 221.586 0.00158691 221.437C0.00158691 221.288 0.0607885 221.145 0.166207 221.04C0.271625 220.934 0.414659 220.874 0.563958 220.874H401.436C401.585 220.874 401.728 220.934 401.834 221.04C401.939 221.145 401.998 221.288 401.998 221.437C401.998 221.586 401.939 221.729 401.834 221.835C401.728 221.94 401.585 222 401.436 222Z" fill="#3F3D56"/>
<path d="M78.4157 64.2885C85.9865 64.2885 92.1239 58.1611 92.1239 50.6027C92.1239 43.0443 85.9865 36.917 78.4157 36.917C70.8448 36.917 64.7074 43.0443 64.7074 50.6027C64.7074 58.1611 70.8448 64.2885 78.4157 64.2885Z" fill="#2F2E41"/>
<path d="M67.7156 43.2239C69.9308 41.0123 70.3797 37.8749 68.7183 36.2162C67.0569 34.5575 63.9143 35.0057 61.6991 37.2173C59.4839 39.4289 59.035 42.5663 60.6964 44.225C62.3578 45.8837 65.5004 45.4355 67.7156 43.2239Z" fill="#2F2E41"/>
<path d="M92.7033 38.8778C93.6263 36.7206 92.0391 33.9759 89.1581 32.7473C86.2772 31.5187 83.1935 32.2715 82.2706 34.4286C81.3476 36.5858 82.9348 39.3305 85.8157 40.5591C88.6967 41.7877 91.7804 41.0349 92.7033 38.8778Z" fill="#2F2E41"/>
<path d="M116.587 129.616C116.934 128.959 117.132 128.234 117.167 127.492C117.202 126.75 117.074 126.009 116.792 125.322C116.509 124.635 116.079 124.018 115.532 123.515C114.985 123.011 114.334 122.634 113.625 122.409L93.8181 80.5767L84.7576 86.9197L107.077 126.045C106.777 127.259 106.934 128.541 107.517 129.647C108.101 130.754 109.071 131.608 110.243 132.048C111.416 132.488 112.709 132.484 113.878 132.035C115.047 131.587 116.011 130.726 116.587 129.616V129.616Z" fill="#FFB8B8"/>
<path d="M98.3606 87.5559L87.8409 92.2522C87.5416 92.3859 87.2169 92.4535 86.8891 92.4506C86.5612 92.4476 86.2378 92.3742 85.9409 92.2352C85.6441 92.0963 85.3807 91.8951 85.1687 91.6453C84.9568 91.3956 84.8012 91.1032 84.7127 90.788L81.6105 79.7443C80.9344 78.2115 80.8948 76.4737 81.5002 74.9118C82.1056 73.3499 83.3066 72.0914 84.84 71.4122C86.3734 70.733 88.114 70.6886 89.6801 71.2887C91.2463 71.8888 92.5102 73.0843 93.1947 74.6133L99.3532 84.252C99.5294 84.5281 99.644 84.8388 99.6891 85.163C99.7343 85.4872 99.7089 85.8173 99.6147 86.1309C99.5205 86.4444 99.3597 86.734 99.1433 86.9799C98.9269 87.2258 98.6599 87.4223 98.3606 87.5559Z" fill="#CCCCCC"/>
<path d="M49.7763 133.764C50.5009 133.596 51.1799 133.271 51.7653 132.813C52.3507 132.354 52.8283 131.773 53.1645 131.111C53.5007 130.448 53.6873 129.72 53.7112 128.978C53.735 128.236 53.5956 127.497 53.3027 126.815L72.0615 84.5031L61.3305 81.8047L46.2655 124.244C45.1493 124.811 44.2804 125.768 43.8234 126.932C43.3663 128.096 43.3529 129.387 43.7857 130.561C44.2184 131.734 45.0673 132.708 46.1714 133.298C47.2755 133.889 48.5582 134.054 49.7763 133.764H49.7763Z" fill="#FFB8B8"/>
<path d="M44.6627 210.457L50.1195 212.44L60.3799 192.371L52.3259 189.444L44.6627 210.457Z" fill="#FFB8B8"/>
<path d="M58.7983 221.324L41.6485 215.09L44.0611 208.475L54.5848 212.3C56.3422 212.939 57.7734 214.249 58.5635 215.941C59.3537 217.633 59.4382 219.57 58.7983 221.324Z" fill="#2F2E41"/>
<path d="M57.5699 198.907C57.2351 198.907 56.9044 198.833 56.6018 198.69L50.3306 195.725C49.8165 195.484 49.4113 195.06 49.1949 194.535C48.9785 194.011 48.9665 193.425 49.1613 192.892L66.8598 143.962C67.0063 143.557 67.265 143.201 67.6058 142.937C67.9466 142.673 68.3555 142.51 68.785 142.469C69.2145 142.427 69.6471 142.508 70.0325 142.702C70.4178 142.896 70.7402 143.195 70.9622 143.564L80.3232 159.14C80.5315 159.487 80.6436 159.883 80.6479 160.288C80.6522 160.692 80.5487 161.091 80.3478 161.442L59.5594 197.762C59.358 198.111 59.068 198.4 58.7187 198.601C58.3694 198.802 57.9731 198.908 57.5699 198.907Z" fill="#2F2E41"/>
<path d="M78.8504 65.4848C85.2757 65.4848 90.4844 60.2846 90.4844 53.8698C90.4844 47.4551 85.2757 42.2549 78.8504 42.2549C72.4251 42.2549 67.2163 47.4551 67.2163 53.8698C67.2163 60.2846 72.4251 65.4848 78.8504 65.4848Z" fill="#FFB8B8"/>
<path d="M95.3093 106.679L74.71 101.023L63.7539 79.1471C63.2276 78.0961 62.9791 76.9283 63.032 75.7545C63.0849 74.5808 63.4375 73.44 64.0562 72.4405C64.675 71.441 65.5393 70.616 66.5673 70.0438C67.5952 69.4717 68.7526 69.1714 69.9295 69.1714H86.3186C88.0197 69.1703 89.6612 69.7971 90.9275 70.9312C95.3239 74.8632 104.56 86.1987 95.3985 106.481L95.3093 106.679Z" fill="#CCCCCC"/>
<path d="M69.522 92.0702L59.0852 87.1929C58.7882 87.0542 58.5247 86.8531 58.3126 86.6035C58.1005 86.3539 57.9448 86.0616 57.856 85.7465C57.7673 85.4313 57.7476 85.1008 57.7984 84.7774C57.8491 84.454 57.969 84.1454 58.15 83.8724L64.4928 74.3091C65.2127 72.7964 66.504 71.6305 68.0836 71.0668C69.6632 70.5032 71.4022 70.5878 72.9194 71.3023C74.4366 72.0167 75.6081 73.3026 76.1771 74.878C76.7461 76.4534 76.6662 78.1898 75.9549 79.7065L72.6751 90.6602C72.5811 90.9738 72.4205 91.2635 72.2043 91.5096C71.988 91.7556 71.7212 91.9522 71.4219 92.0861C71.1227 92.2199 70.7981 92.2877 70.4702 92.285C70.1424 92.2823 69.8189 92.209 69.522 92.0702Z" fill="#CCCCCC"/>
<path d="M82.1494 215.94H87.9562L90.7192 193.578L82.1479 193.578L82.1494 215.94Z" fill="#FFB8B8"/>
<path d="M99.1561 221.323L80.9049 221.324L80.9046 214.284L92.1042 214.284C93.9744 214.284 95.7681 215.025 97.0905 216.345C98.413 217.666 99.156 219.456 99.1561 221.323Z" fill="#2F2E41"/>
<path d="M84.3419 207.419C83.8197 207.42 83.3133 207.241 82.9079 206.912C82.5026 206.584 82.2231 206.125 82.1167 205.615C80.4474 197.763 71.778 157.544 65.0115 136.827C58.127 115.75 69.8517 106.15 72.272 104.439C72.5298 104.257 72.7345 104.01 72.8654 103.724L74.6238 99.8621C74.8062 99.4634 75.0994 99.1254 75.4687 98.8885C75.838 98.6515 76.2677 98.5254 76.7067 98.5254H76.7209C89.9027 98.604 94.3342 102.752 95.6275 104.533C95.8183 104.798 95.949 105.101 96.0107 105.422C96.0723 105.742 96.0634 106.072 95.9845 106.389L87.6441 140.743C87.5924 140.956 87.5807 141.177 87.6096 141.394L95.9076 203.77C95.9475 204.07 95.9272 204.374 95.8478 204.666C95.7685 204.958 95.6318 205.231 95.4456 205.47C95.2594 205.708 95.0275 205.908 94.7634 206.056C94.4993 206.204 94.2083 206.298 93.9073 206.333L84.6097 207.404C84.5208 207.414 84.4314 207.419 84.3419 207.419Z" fill="#2F2E41"/>
<path d="M66.6257 46.564C69.2843 48.3933 72.4398 49.3669 75.6686 49.354C74.5168 50.1513 73.2056 50.6899 71.8253 50.9326C76.1183 51.8519 80.5551 51.8768 84.8582 51.0057C85.8146 50.8526 86.7376 50.5361 87.5864 50.0702C88.0094 49.8343 88.378 49.5122 88.6681 49.1249C88.9583 48.7375 89.1635 48.2934 89.2705 47.8217C89.5564 46.1909 88.2836 44.7092 86.9608 43.7107C84.9356 42.2052 82.6005 41.168 80.1244 40.674C77.6484 40.18 75.0933 40.2417 72.6441 40.8545C71.0448 41.2673 69.4427 41.9646 68.4039 43.2468C67.3652 44.529 67.0575 46.5058 68.0471 47.8261L66.6257 46.564Z" fill="#2F2E41"/>
<path d="M280.183 96.9448C283.584 96.9448 286.341 94.1924 286.341 90.7971C286.341 87.4018 283.584 84.6494 280.183 84.6494C276.782 84.6494 274.025 87.4018 274.025 90.7971C274.025 94.1924 276.782 96.9448 280.183 96.9448Z" fill="#6C63FF"/>
<path d="M279.572 93.1423C279.434 93.1426 279.299 93.0979 279.188 93.0149L279.181 93.0098L277.734 91.9036C277.667 91.8524 277.61 91.7885 277.568 91.7155C277.525 91.6425 277.498 91.5618 277.487 91.4781C277.475 91.3945 277.481 91.3094 277.503 91.2278C277.524 91.1463 277.562 91.0698 277.614 91.0027C277.665 90.9357 277.729 90.8795 277.802 90.8373C277.876 90.7951 277.956 90.7677 278.04 90.7567C278.124 90.7457 278.209 90.7514 278.291 90.7733C278.373 90.7953 278.449 90.8331 278.516 90.8846L279.454 91.6021L281.669 88.7181C281.72 88.6512 281.784 88.5951 281.857 88.5529C281.93 88.5107 282.011 88.4833 282.095 88.4723C282.178 88.4613 282.263 88.4668 282.345 88.4886C282.427 88.5104 282.503 88.548 282.57 88.5993L282.556 88.618L282.57 88.5996C282.706 88.7033 282.794 88.8563 282.816 89.025C282.839 89.1937 282.793 89.3644 282.689 89.4995L280.084 92.8918C280.024 92.97 279.946 93.0333 279.857 93.0767C279.769 93.1202 279.671 93.1426 279.572 93.1423Z" fill="white"/>
<path d="M280.183 114.915C283.584 114.915 286.341 112.163 286.341 108.767C286.341 105.372 283.584 102.62 280.183 102.62C276.782 102.62 274.025 105.372 274.025 108.767C274.025 112.163 276.782 114.915 280.183 114.915Z" fill="#6C63FF"/>
<path d="M279.572 111.113C279.434 111.113 279.299 111.068 279.188 110.985L279.181 110.98L277.734 109.874C277.667 109.823 277.61 109.759 277.568 109.686C277.525 109.613 277.498 109.532 277.487 109.448C277.475 109.365 277.481 109.28 277.503 109.198C277.524 109.116 277.562 109.04 277.614 108.973C277.665 108.906 277.729 108.85 277.802 108.808C277.876 108.765 277.956 108.738 278.04 108.727C278.124 108.716 278.209 108.722 278.291 108.744C278.373 108.765 278.449 108.803 278.516 108.855L279.454 109.572L281.669 106.688C281.72 106.621 281.784 106.565 281.857 106.523C281.93 106.481 282.011 106.454 282.095 106.443C282.178 106.432 282.263 106.437 282.345 106.459C282.427 106.481 282.503 106.518 282.57 106.57L282.556 106.588L282.57 106.57C282.706 106.674 282.794 106.826 282.816 106.995C282.839 107.164 282.793 107.335 282.689 107.47L280.084 110.862C280.024 110.94 279.946 111.004 279.857 111.047C279.769 111.09 279.671 111.113 279.572 111.113Z" fill="white"/>
<path d="M283.499 135.723C286.9 135.723 289.656 132.97 289.656 129.575C289.656 126.18 286.9 123.427 283.499 123.427C280.098 123.427 277.341 126.18 277.341 129.575C277.341 132.97 280.098 135.723 283.499 135.723Z" fill="#6C63FF"/>
<path d="M282.888 131.92C282.75 131.92 282.615 131.876 282.504 131.793L282.497 131.788L281.05 130.681C280.983 130.63 280.926 130.566 280.884 130.493C280.841 130.42 280.814 130.34 280.802 130.256C280.791 130.172 280.797 130.087 280.818 130.006C280.84 129.924 280.878 129.848 280.929 129.781C280.981 129.714 281.045 129.657 281.118 129.615C281.191 129.573 281.272 129.546 281.356 129.535C281.44 129.524 281.525 129.529 281.607 129.551C281.688 129.573 281.765 129.611 281.832 129.662L282.769 130.38L284.984 127.496C285.036 127.429 285.1 127.373 285.173 127.331C285.246 127.289 285.327 127.261 285.41 127.25C285.494 127.239 285.579 127.245 285.661 127.266C285.742 127.288 285.819 127.326 285.886 127.377L285.872 127.396L285.886 127.377C286.021 127.481 286.11 127.634 286.132 127.803C286.154 127.972 286.109 128.142 286.005 128.277L283.4 131.67C283.339 131.748 283.262 131.811 283.173 131.855C283.084 131.898 282.987 131.92 282.888 131.92Z" fill="white"/>
<path d="M342.877 180.903C342.813 180.903 342.773 180.902 342.759 180.901L335.114 180.902V179.776H342.787C342.964 179.783 346.589 179.885 349.928 175.84C354.905 169.81 358.991 154.885 350.199 118.021C338.378 68.451 348.238 24.6588 353.025 8.13169C353.261 7.31402 353.303 6.45279 353.149 5.61604C352.994 4.7793 352.646 3.98997 352.133 3.31041C351.62 2.63085 350.956 2.07968 350.193 1.70046C349.43 1.32124 348.589 1.12436 347.737 1.12537H233.564C232.696 1.12654 231.841 1.33201 231.067 1.72512C230.293 2.11824 229.624 2.68791 229.112 3.38791C227.084 6.1733 224.3 11.5243 222.559 21.1997L221.449 21.0008C223.229 11.1152 226.103 5.60676 228.2 2.72631C228.817 1.88285 229.624 1.1964 230.556 0.722704C231.488 0.249004 232.518 0.00140102 233.564 3.0628e-06H347.737C348.764 -0.000983726 349.777 0.236489 350.697 0.69366C351.616 1.15083 352.416 1.81517 353.034 2.6342C353.652 3.45323 354.071 4.4045 354.257 5.41287C354.444 6.42123 354.393 7.45905 354.108 8.44434C349.345 24.8857 339.536 68.4507 351.296 117.76C360.212 155.143 355.926 170.392 350.76 176.601C347.353 180.696 343.6 180.903 342.877 180.903Z" fill="#E6E6E6"/>
<path d="M322.305 201.441C322.242 201.441 322.201 201.439 322.187 201.439L314.542 201.439V200.314H322.215C322.394 200.319 326.017 200.423 329.356 196.377C334.333 190.348 338.42 175.423 329.628 138.558C317.806 88.9886 327.666 45.1964 332.454 28.6693C332.69 27.8516 332.732 26.9904 332.577 26.1536C332.422 25.3169 332.075 24.5276 331.562 23.848C331.049 23.1684 330.384 22.6173 329.621 22.2381C328.858 21.8589 328.018 21.662 327.165 21.663H212.992C212.124 21.6641 211.269 21.8696 210.495 22.2627C209.722 22.6558 209.052 23.2255 208.54 23.9255C206.512 26.7109 203.729 32.0619 201.987 41.7373L200.877 41.5384C202.657 31.6528 205.531 26.1444 207.628 23.2639C208.245 22.4204 209.052 21.734 209.984 21.2603C210.916 20.7866 211.947 20.539 212.992 20.5376H327.165C328.192 20.5366 329.206 20.7741 330.125 21.2313C331.044 21.6884 331.845 22.3528 332.463 23.1718C333.081 23.9908 333.499 24.9421 333.686 25.9505C333.872 26.9588 333.821 27.9967 333.537 28.9819C328.773 45.4233 318.965 88.9883 330.724 138.298C339.64 175.681 335.354 190.929 330.189 197.138C326.782 201.234 323.028 201.441 322.305 201.441Z" fill="#CCCCCC"/>
<path d="M310.152 158.838C298.391 109.529 308.201 65.9602 312.966 49.5222C313.25 48.5369 313.3 47.4992 313.114 46.491C312.927 45.4829 312.508 44.5318 311.891 43.7128C311.273 42.8938 310.473 42.2294 309.554 41.7718C308.635 41.3142 307.622 41.0761 306.595 41.0762H192.42C191.374 41.0772 190.344 41.3244 189.412 41.7977C188.48 42.271 187.674 42.957 187.057 43.8001C182.448 50.1275 172.885 71.1101 183.567 129.168C189.279 160.228 189.194 181.405 187.328 195.355C186.28 203.21 184.665 208.772 183.202 212.522L183.045 212.919C182.737 213.678 182.576 214.488 182.572 215.307C182.561 216.232 182.747 217.148 183.116 217.996C183.486 218.844 184.032 219.604 184.717 220.225C185.164 220.644 185.67 220.994 186.219 221.266C186.674 221.498 187.156 221.674 187.654 221.791C188.161 221.914 188.681 221.976 189.203 221.975H301.617C301.631 221.975 301.669 221.98 301.735 221.98C302.455 221.98 306.212 221.772 309.617 217.676C314.78 211.467 319.067 196.221 310.152 158.838ZM308.783 216.915C305.444 220.963 301.821 220.859 301.645 220.854H189.203C188.303 220.854 187.417 220.634 186.621 220.212C185.826 219.791 185.146 219.182 184.642 218.438C184.197 217.794 183.899 217.062 183.767 216.292C183.636 215.522 183.674 214.732 183.879 213.978C183.933 213.759 184.002 213.544 184.087 213.335C185.759 209.046 186.999 204.601 187.787 200.066C190.458 185.524 190.956 163.085 184.675 128.965C174.074 71.3371 183.448 50.6713 187.967 44.4621C188.479 43.7632 189.15 43.1944 189.923 42.8017C190.697 42.409 191.552 42.2035 192.42 42.2017H306.595C307.447 42.2011 308.287 42.3982 309.05 42.7774C309.812 43.1566 310.476 43.7075 310.989 44.3867C311.501 45.0659 311.849 45.8547 312.004 46.691C312.159 47.5272 312.117 48.388 311.881 49.2053C307.093 65.7332 297.235 109.529 309.058 159.098C317.85 195.961 313.762 210.886 308.783 216.915Z" fill="#3F3D56"/>
<path d="M255.911 94.7695H197.087C195.891 94.7695 194.744 94.2952 193.899 93.451C193.053 92.6069 192.578 91.4619 192.578 90.268C192.578 89.0742 193.053 87.9292 193.899 87.085C194.744 86.2409 195.891 85.7666 197.087 85.7666H255.911C257.107 85.7666 258.254 86.2409 259.099 87.085C259.945 87.9292 260.42 89.0742 260.42 90.268C260.42 91.4619 259.945 92.6069 259.099 93.451C258.254 94.2952 257.107 94.7695 255.911 94.7695Z" fill="#CCCCCC"/>
<path d="M255.911 114.159H197.087C195.891 114.159 194.744 113.684 193.899 112.84C193.053 111.996 192.578 110.851 192.578 109.657C192.578 108.463 193.053 107.318 193.899 106.474C194.744 105.63 195.891 105.156 197.087 105.156H255.911C257.107 105.156 258.254 105.63 259.099 106.474C259.945 107.318 260.42 108.463 260.42 109.657C260.42 110.851 259.945 111.996 259.099 112.84C258.254 113.684 257.107 114.159 255.911 114.159Z" fill="#CCCCCC"/>
<path d="M260.648 134.02H201.824C200.628 134.02 199.481 133.546 198.635 132.702C197.79 131.858 197.315 130.713 197.315 129.519C197.315 128.325 197.79 127.18 198.635 126.336C199.481 125.492 200.628 125.018 201.824 125.018H260.648C261.844 125.018 262.991 125.492 263.836 126.336C264.682 127.18 265.157 128.325 265.157 129.519C265.157 130.713 264.682 131.858 263.836 132.702C262.991 133.546 261.844 134.02 260.648 134.02Z" fill="#CCCCCC"/>
<path d="M263.964 154.828H205.139C203.944 154.828 202.797 154.354 201.951 153.51C201.106 152.665 200.631 151.521 200.631 150.327C200.631 149.133 201.106 147.988 201.951 147.144C202.797 146.299 203.944 145.825 205.139 145.825H263.964C265.16 145.825 266.306 146.299 267.152 147.144C267.998 147.988 268.473 149.133 268.473 150.327C268.473 151.521 267.998 152.665 267.152 153.51C266.306 154.354 265.16 154.828 263.964 154.828Z" fill="#CCCCCC"/>
<path d="M263.989 59.8173H221.718C221.126 59.8179 220.539 59.702 219.991 59.476C219.444 59.2501 218.946 58.9186 218.527 58.5005C218.108 58.0825 217.775 57.586 217.548 57.0396C217.321 56.4932 217.205 55.9074 217.205 55.3159C217.205 54.7244 217.321 54.1387 217.548 53.5922C217.775 53.0458 218.108 52.5493 218.527 52.1313C218.946 51.7132 219.444 51.3817 219.991 51.1558C220.539 50.9298 221.126 50.8138 221.718 50.8145H263.989C265.185 50.8145 266.331 51.2887 267.177 52.1329C268.023 52.9771 268.498 54.122 268.498 55.3159C268.498 56.5098 268.023 57.6547 267.177 58.4989C266.331 59.3431 265.185 59.8173 263.989 59.8173Z" fill="#6C63FF"/>
<path d="M287.288 156.474C290.689 156.474 293.446 153.722 293.446 150.326C293.446 146.931 290.689 144.179 287.288 144.179C283.887 144.179 281.13 146.931 281.13 150.326C281.13 153.722 283.887 156.474 287.288 156.474Z" fill="#CCCCCC"/>
<path d="M266.806 175.163H207.981C206.786 175.163 205.639 174.688 204.793 173.844C203.948 173 203.473 171.855 203.473 170.661C203.473 169.467 203.948 168.322 204.793 167.478C205.639 166.634 206.786 166.16 207.981 166.16H266.806C268.002 166.16 269.149 166.634 269.994 167.478C270.84 168.322 271.315 169.467 271.315 170.661C271.315 171.855 270.84 173 269.994 173.844C269.149 174.688 268.002 175.163 266.806 175.163Z" fill="#CCCCCC"/>
<path d="M290.13 176.809C293.531 176.809 296.288 174.057 296.288 170.661C296.288 167.266 293.531 164.514 290.13 164.514C286.729 164.514 283.972 167.266 283.972 170.661C283.972 174.057 286.729 176.809 290.13 176.809Z" fill="#CCCCCC"/>
</g>
<defs>
<clipPath id="clip0">
<rect width="402" height="222" fill="white"/>
</clipPath>
</defs>
</svg>
