<svg width="450" height="520" viewBox="0 0 450 520" fill="none" xmlns="http://www.w3.org/2000/svg">
<path opacity="0.6" d="M960.061 450.413C946.809 468.442 926.929 477.931 900.423 479.829C852.145 483.625 563.394 107.862 556.767 58.5192C527.422 -139.8 756.535 45.2348 722.457 -92.355L515.144 303.334C496.211 339.392 472.545 358.37 444.146 360.268C402.495 363.115 376.936 336.546 366.523 280.561C342.857 154.358 312.565 47.1326 276.593 -43.9613C251.98 197.058 210.328 370.706 151.637 477.931C137.437 504.5 116.612 517.785 89.1592 519.682C67.3866 521.58 47.5072 514.938 29.5212 500.704C11.5352 486.471 2.06881 468.442 0.175544 446.618C-0.771088 429.537 2.06887 415.304 9.64194 401.07C46.5606 332.75 76.8529 217.934 101.465 58.5192C125.131 -96.1507 133.651 -216.66 127.971 -303.01C126.078 -326.732 129.864 -347.608 139.331 -365.637C150.69 -386.512 167.73 -397.899 189.502 -399.797C214.115 -401.695 239.674 -390.308 264.286 -364.688C352.323 -274.543 422.374 -139.8 473.492 39.5413C535.023 -81.9173 580.462 -173.011 609.807 -233.74C665.659 -340.965 712.99 -396.001 752.749 -398.848C778.308 -400.746 800.08 -378.921 819.013 -333.374C867.291 -209.069 919.356 31.0014 975.207 386.837C978.047 411.508 973.314 433.333 960.061 450.413Z" fill="white"/>
</svg>
