<svg width="20" height="20" viewBox="0 0 20 20" fill="none" xmlns="http://www.w3.org/2000/svg">
<path fill-rule="evenodd" clip-rule="evenodd" d="M8.92037 2.93281C8.36175 2.93281 7.88651 3.32099 7.75311 3.8442H12.2387C12.1053 3.32099 11.6301 2.93281 11.0714 2.93281H8.92037ZM13.506 3.8442H15.1568C16.9077 3.8442 18.3334 5.28723 18.3334 7.05937C18.3334 7.05937 18.2834 7.80958 18.2667 8.8543C18.265 8.937 18.225 9.01801 18.1592 9.06695C17.7581 9.36316 17.3913 9.60788 17.3579 9.62476C15.9739 10.553 14.3656 11.2062 12.6522 11.5311C12.5405 11.553 12.4305 11.4948 12.3738 11.3952C11.8935 10.5631 10.9964 10.0214 9.99591 10.0214C9.00208 10.0214 8.09663 10.5572 7.60222 11.3901C7.54469 11.488 7.4363 11.5446 7.32541 11.5235C5.62623 11.1977 4.01792 10.5454 2.64224 9.6332L1.84184 9.07624C1.77514 9.03404 1.73345 8.95809 1.73345 8.87371C1.70844 8.44333 1.66675 7.05937 1.66675 7.05937C1.66675 5.28723 3.09246 3.8442 4.84334 3.8442H6.48582C6.64424 2.62057 7.66975 1.66699 8.92038 1.66699H11.0715C12.3221 1.66699 13.3476 2.62057 13.506 3.8442ZM18.0499 10.6797L18.0166 10.6966C16.3324 11.8274 14.3064 12.5784 12.1803 12.8906C11.8802 12.9328 11.58 12.7387 11.4967 12.435C11.3132 11.743 10.7213 11.2873 10.0126 11.2873H10.0042H9.98757C9.27888 11.2873 8.68692 11.743 8.50349 12.435C8.42012 12.7387 8.11997 12.9328 7.81982 12.8906C5.69375 12.5784 3.66774 11.8274 1.98356 10.6966C1.97523 10.6881 1.89185 10.6375 1.82515 10.6797C1.75011 10.7219 1.75011 10.8231 1.75011 10.8231L1.80848 15.1269C1.80848 16.8991 3.22585 18.3337 4.97673 18.3337H15.0151C16.766 18.3337 18.1833 16.8991 18.1833 15.1269L18.25 10.8231C18.25 10.8231 18.25 10.7219 18.175 10.6797C18.1333 10.6544 18.0833 10.6628 18.0499 10.6797ZM10.6212 14.2155C10.6212 14.57 10.3461 14.8484 9.99591 14.8484C9.65407 14.8484 9.3706 14.57 9.3706 14.2155V13.1269C9.3706 12.7809 9.65407 12.494 9.99591 12.494C10.3461 12.494 10.6212 12.7809 10.6212 13.1269V14.2155Z" fill="#272D4E"/>
</svg>
